<?xml version="1.0" encoding="utf-8"?>
<!-- Generator: Adobe Illustrator 25.0.1, SVG Export Plug-In . SVG Version: 6.00 Build 0)  -->
<svg version="1.1" id="Ebene_1" xmlns="http://www.w3.org/2000/svg" xmlns:xlink="http://www.w3.org/1999/xlink" x="0px" y="0px"
	 viewBox="0 0 841.9 595.3" style="enable-background:new 0 0 841.9 595.3;" xml:space="preserve">
<style type="text/css">
	.st0{fill:#FFD5C9;}
	.st1{fill:#FFC8B8;}
	.st2{fill:#CAD4E3;}
	.st3{fill:#D5DAE3;}
	.st4{fill:#DAE7ED;}
	.st5{fill:#FCE99D;}
	.st6{fill:#FFF0B3;}
	.st7{fill:#C4BC93;}
	.st8{fill:#CDC6A5;}
	.st9{fill:#D7CAD9;}
	.st10{fill:#D1DDE3;}
	.st11{fill:#DDD3DE;}
	.st12{fill:#D4D9C3;}
	.st13{fill:#E9D1AA;}
	.st14{fill:#F7E2AB;}
	.st15{fill:#F1B8BE;}
	.st16{fill:#D3BFB6;}
	.st17{fill:#DED4B5;}
	.st18{fill:#F7CFCD;}
	.st19{fill:#C8CFB0;}
	.st20{fill:#C0C6ED;}
	.st21{fill:#C2E2C9;}
	.st22{fill:none;stroke:#919EAE;stroke-width:0.75;stroke-miterlimit:10;}
	.st23{fill:none;stroke:#919EAE;stroke-width:0.5;stroke-miterlimit:10;}
	.st24{fill:none;stroke:#919EAE;stroke-width:0.644;stroke-miterlimit:10;}
	.st25{fill:none;stroke:#919EAE;stroke-width:0.6204;stroke-miterlimit:10;}
	.st26{fill:none;stroke:#919EAE;stroke-width:0.6367;stroke-miterlimit:10;}
	.st27{fill:none;stroke:#919EAE;stroke-width:0.652;stroke-miterlimit:10;}
	.st28{fill:none;stroke:#919EAE;stroke-width:0.6804;stroke-miterlimit:10;}
	.st29{fill:none;stroke:#919EAE;stroke-width:0.7184;stroke-miterlimit:10;}
	.st30{fill:none;stroke:#919EAE;stroke-width:0.8007;stroke-miterlimit:10;}
	.st31{fill:none;stroke:#919EAE;stroke-width:0.4278;stroke-miterlimit:10;}
	.st32{fill:#DC97A9;}
	.st33{fill:#C19548;}
	.st34{fill:#898E75;}
	.st35{fill:#947E99;}
	.st36{fill:#D6B351;}
	.st37{fill:#86A2C4;}
	.st38{fill:#DD998C;}
	.st39{fill:#9EB9C6;}
	.st40{fill:#A89C76;}
</style>
<image style="display:none;overflow:visible;" width="564" height="742" xlink:href="CFECDDAE2E4B7614.jpg"  transform="matrix(0.7919 0 0 0.7919 197.4286 4.2756)">
</image>
<g id="XMLID_1_">
	<g>
		<path class="st0" d="M498.1,360.5c0.4,4.3,0.5,8.7,0.4,13l-93.3,73.5l0.9,78l0.1,0.3l-7.2,1.2l-7.8,1.3l-0.9,0.2l-0.1-0.5
			l-1.1-87.8l108.2-85.3C497.7,356.5,497.9,358.5,498.1,360.5z"/>
		<path class="st1" d="M498.5,373.6c0,0.5,0,0.9,0,1.4c-0.1,2.1-0.2,4.2-0.5,6.3c-0.3,2.7-0.7,5.2-1.2,7.8c-1.2,6.1-3.1,12-5.6,17.7
			L455.3,442l-33.4,13.9l0.8,66.5l0,0.3l-7.7,1.3l-6.7,1.1l-1.9,0.3l-0.1-0.3l-0.9-78L498.5,373.6z"/>
		<path class="st2" d="M497.5,354.5l-108.2,85.3l1.1,87.8l0.1,0.5l-8.7,1.5l-6,1l0-0.1l-0.4-99.6L493.5,336c0.3,0.9,0.6,1.7,0.8,2.6
			c1.2,3.9,2,7.9,2.6,11.9C497.1,351.8,497.3,353.1,497.5,354.5z"/>
		<path class="st3" d="M493.1,335c0.1,0.3,0.2,0.7,0.3,1l-118.2,94.8l0.4,99.6l0,0.1l-7.4,1.2l-2.7,0.5l-1-113.1l122.3-99.3l0,0
			c0.2,0.4,0.4,0.7,0.6,1.1c1,2,2,4.1,2.9,6.2c0.1,0.2,0.2,0.4,0.3,0.6C491.5,330.1,492.3,332.5,493.1,335z"/>
		<path class="st4" d="M491.2,406.8c-0.2,0.4-0.4,0.9-0.6,1.3c-0.7,1.5-1.5,3-2.3,4.5c-0.6,1-1.2,2.1-1.8,3.1
			c-2.5,4.4-5.1,8.7-7.8,13c-0.3,0.5-0.6,1-0.9,1.5c-3.1,5.1-6.2,10.2-7.9,16c-0.2,0.7-0.4,1.5-0.6,2.2c-0.4,1.3-0.7,2.5-0.8,3.8
			c-0.2,3-0.4,6-0.4,9l-0.7,0l-30.6,5.9l0.8,52.6l0.1,0.4l-2.8,0.5l-9.9,1.7l-2.4,0.4l0-0.3l-0.8-66.5l33.4-13.9L491.2,406.8z"/>
		<path class="st5" d="M364.4,419.2l1,113.1l-8.2,1.4l-1.4,0.2l-0.1-0.3L354.6,411l124.8-102.6c1.3,1.6,2.5,3.3,3.6,5.1
			c1.4,2,2.6,4.1,3.7,6.3l0,0L364.4,419.2z"/>
		<path class="st6" d="M479.4,308.5L354.6,411l-0.2-16.4l116.6-95.4c0.4,0.3,0.7,0.7,1.1,1c1.1,1.1,2.2,2.3,3.3,3.5
			c0.9,1,1.8,2,2.6,3.1c0.1,0.2,0.3,0.3,0.4,0.5c0,0,0,0,0,0C478.8,307.7,479.1,308.1,479.4,308.5z"/>
		<path class="st7" d="M479,513.2l-9.1,1.5l-7.5,1.2l0,0l-0.6-21.7l10.7-1.3l0.1,0c0.2,0.9,0.4,1.9,0.6,2.8c0.9,4.1,2,8,3.1,11.3
			C477.2,509.4,478.1,511.6,479,513.2z"/>
		<path class="st8" d="M472.7,492.8l-0.1,0l-10.7,1.3l0.6,21.7l0,0l-2.1,0.4l-9.5,1.6l-0.1-0.3l-0.4-36.1L470,479l0.1,0
			c0.3,1.9,0.6,3.8,1,5.7C471.6,487.4,472.1,490.2,472.7,492.8z"/>
		<path class="st9" d="M471.1,299.2l-116.6,95.4l0.2,16.4l-5.3,4.4l-0.2-0.2l-0.9-40.2l113.1-83.9c1.4,1,2.8,2.1,4.2,3.1
			C467.4,295.8,469.3,297.5,471.1,299.2z"/>
		<path class="st10" d="M470.1,479l-0.1,0l-19.6,2.4l0.4,36.1l0.1,0.3l-0.7,0.1l-7.8,1.3l-4.6,0.8l-0.1-0.4l-0.8-52.6l30.6-5.9
			l0.7,0c0,0.6,0,1.1,0,1.7c0.1,2,0.3,4.6,0.6,7.5C469.2,473,469.6,476,470.1,479z"/>
		<path class="st11" d="M460.4,290.5c0.3,0.2,0.6,0.4,0.8,0.6L348.2,375l0.9,40.2l0.2,0.2l-1.3,1.1l1,105.2l-0.2,0.1
			c-0.1-0.4-0.2-0.9-0.3-1.3c-0.6-2.5-1.3-4.9-2-7.3c-0.7-2.5-1.7-4.8-3.4-6.8c-0.9-1.1-1.9-1.9-3.1-2.3l0,0l-0.1-101.8l-0.1-40.5
			l44.2-22.5l26.6-32.7l35.2-24.5c4.7,2.2,9.3,4.7,13.6,7.6c0.2,0.1,0.3,0.2,0.5,0.3c0,0,0,0,0,0C460,290.2,460.3,290.4,460.4,290.5
			z"/>
		<path class="st12" d="M324.3,389.4l0.2-22.8l-0.1-0.1l3.2-3.1l16.9-21.7l78.5-67.2c2.3,0.5,4.5,1.1,6.8,1.7
			c1.9,0.5,3.9,1.1,5.8,1.7c3.5,1.2,6.9,2.6,10.2,4.1l-35.2,24.5L384,339.2l-44.2,22.5l0.1,40.5l-7.9,7l-0.4,94.3l0,0.3
			c-0.6,0-1.1,0.1-1.7,0.1c-1.8,0.1-3.5,0.2-5.3,0.4c-0.4,0-0.7,0-1.1,0.1l0-0.4l0.8-113L324.3,389.4L324.3,389.4z"/>
		<path class="st13" d="M344.5,341.8l-16.9,21.7l-3.2,3.1l-6.3,6.1l-0.1-0.1l0.5-25.3l79.6-75.7c4.8,0.1,9.5,0.5,14.2,1.2
			c3.3,0.5,6.6,1,9.9,1.7c0.2,0.1,0.5,0.1,0.8,0.2L344.5,341.8z"/>
		<path class="st14" d="M398.1,271.6l-79.6,75.7l-0.5,25.3l0.1,0.1l-14.5,14l-0.3-0.3l-0.5-39.1l64.7-73c0.2-0.1,0.5-0.1,0.7-0.1
			c3.9-0.8,7.9-1.4,11.8-1.8c1.3-0.1,2.5-0.2,3.8-0.3C388.7,271.6,393.4,271.4,398.1,271.6z"/>
		<path class="st15" d="M367.6,274.2l-64.7,73l0.5,39.1l0.3,0.3l-2.2,2.2l-0.5,115.6l0,0.5c-0.4,0-0.9-0.1-1.3-0.2
			c-2.4-0.4-4.7-1.1-6.9-2.2l0.1-0.2l-0.1-142.5V359l36.8-70.4l0,0c1.4-0.8,2.7-1.6,4.1-2.4c4-2.2,8.2-4.1,12.4-5.7
			c2.8-1,5.5-2.1,8.4-3C358.7,276.2,363.1,275.1,367.6,274.2z"/>
		<path class="st16" d="M355.8,533.6l0.1,0.3l-3.9,0.7c-0.6-2.5-0.8-3.5-1.4-6c-0.6-2.3-1.1-4.5-1.7-6.8l0.2-0.1l-1-105.2l1.3-1.1
			l5.3-4.4L355.8,533.6z"/>
		<path class="st17" d="M339.8,402.2L340,504l0,0c-0.6-0.2-1.1-0.3-1.8-0.4c-0.4,0-0.7,0-1.1-0.1c-1.2,0-2.4,0.1-3.6,0.1
			c-0.7,0-1.3,0.1-2,0.1l0-0.3l0.4-94.3L339.8,402.2z"/>
		<path class="st18" d="M329.4,288.6L292.6,359v0.7h-1c0-0.8,0-1.5-0.2-2.3c-0.6-4.6-0.4-9.1,0.5-13.6c0.6-2.8,1.3-5.6,2.1-8.4
			c0.9-3.1,1.9-6.1,2.9-9.2c2.9-8.6,7.6-16.1,13.8-22.8c3.4-3.7,7.1-6.9,11.1-9.8C324.4,291.8,326.9,290.1,329.4,288.6L329.4,288.6z
			"/>
		<path class="st19" d="M324.5,366.6l-0.2,22.8h0l0,1.6h-0.4l-11.4,10.7l-0.6,102.9l0,0.4c-0.9,0-1.9,0-2.8,0c-1.9,0-3.9,0-5.8,0
			c-0.8,0-1.6,0-2.4-0.1l0-0.5l0.5-115.6l2.2-2.2l14.5-14L324.5,366.6L324.5,366.6z"/>
		<path class="st17" d="M324.3,391l-0.8,113l0,0.4c-2.1,0.1-4.2,0.3-6.2,0.4c-0.4,0-0.9,0.1-1.3,0.1c-1.4,0.1-2.7,0.1-4.1,0.1l0-0.4
			l0.6-102.9l11.4-10.7H324.3z"/>
		<path class="st18" d="M292.6,359.7l0.1,142.5l-0.1,0.2c-0.1-0.1-0.3-0.1-0.4-0.2c-0.4-0.2-0.9-0.5-1.3-0.8
			c-2.4-1.5-4.2-3.5-5.5-5.7c-1.8-3.1-2.4-6.8-1.7-10.6c0.4-2.2,1.1-4.3,1.7-6.4c0.1-0.3,0.2-0.6,0.3-0.9c0.7-2.8,1.2-5.6,1-8.4
			c-0.1-1.8-0.6-3.4-1.3-4.8l0.2-15.5l0.8-76.8c0.8-1.1,1.5-2.2,2.3-3.3c1.9-2.8,3-5.9,3-9.2H292.6z"/>
		<path class="st20" d="M285.4,373.7c0.3-0.5,0.7-1,1-1.4l-0.8,76.8l-1.5,0c-0.4-0.2-0.8-0.3-1.1-0.4c-1.1-0.4-2.1-1-2.9-1.8
			c-2-1.8-3.5-5.6-1.4-8.8c1-1.5,1.8-3.1,2.6-4.7c1-2.1,1.4-4.4,0.9-6.7c-0.3-1.8-1.3-3-3-3.5c-1.5-0.5-3-0.9-4.5-1.3
			c-2.7-0.7-5.4-1.4-7.8-2.9c-3.3-2-4.6-4.9-4-8.6c0.5-3,1.7-5.7,3.2-8.2c4.5-7.6,9.5-14.8,14.8-21.9
			C282.4,378,283.9,375.8,285.4,373.7z"/>
		<path class="st21" d="M285.6,449.1l-0.2,15.5c-0.8-1.6-1.9-3-3.4-4.2c-1.6-1.4-2.4-3.2-1.8-5.5c0.5-2.1,1.7-3.8,3.2-5.3
			c0.2-0.2,0.3-0.3,0.6-0.6L285.6,449.1z"/>
	</g>
	<g>
		<line class="st22" x1="478.8" y1="307.1" x2="478.5" y2="307.3"/>
		<polyline class="st22" points="286.5,372.2 286.5,372.2 285.6,449.1 285.4,464.6 		"/>
		<polyline class="st22" points="329.4,288.6 292.6,359 292.6,359.7 292.8,502.2 		"/>
		<polyline class="st22" points="367.7,274.1 367.6,274.2 302.9,347.2 303.4,386.3 		"/>
		<polyline class="st22" points="300.9,504.3 301.4,388.8 303.6,386.6 318.1,372.6 324.4,366.6 327.6,363.5 		"/>
		<polyline class="st22" points="398.2,271.4 398.1,271.6 318.5,347.3 318,372.6 		"/>
		<polyline class="st22" points="344.4,341.9 344.5,341.8 423,274.6 		"/>
		<polyline class="st22" points="324.3,391.1 324.3,389.4 324.5,366.6 		"/>
		<polyline class="st22" points="323.9,391 312.4,401.7 311.9,504.6 		"/>
		<polyline class="st22" points="327.6,363.5 344.5,341.8 344.6,341.7 		"/>
		<polyline class="st22" points="339.8,402.2 339.8,361.8 384,339.2 410.5,306.6 445.7,282.1 		"/>
		<polyline class="st22" points="331.5,503.5 332,409.2 339.8,402.2 		"/>
		<polyline class="st22" points="355.8,533.6 354.6,411 354.4,394.6 471.1,299.2 471.2,299.1 		"/>
		<polyline class="st22" points="364.4,418.9 364.4,419.2 365.4,532.3 365.4,532.5 		"/>
		<line class="st22" x1="478.5" y1="307.3" x2="478.8" y2="307.1"/>
		<polyline class="st22" points="479.5,308.4 479.4,308.5 354.6,411 349.3,415.4 348,416.5 349,521.7 		"/>
		<polyline class="st22" points="364.2,419.3 364.4,419.2 486.7,319.8 		"/>
		<polyline class="st22" points="375.6,530.4 375.2,430.8 493.5,336 493.6,335.9 		"/>
		<polyline class="st22" points="390.3,527.6 389.2,439.8 497.5,354.5 497.5,354.4 		"/>
		<polyline class="st22" points="406.2,525.1 405.3,447.1 498.5,373.6 498.6,373.5 		"/>
		<polyline class="st22" points="491.6,406.4 491.2,406.8 455.3,442 421.8,455.9 422.6,522.4 		"/>
		<polyline class="st22" points="467.5,461.2 436.9,467.1 437.7,519.7 		"/>
		<polyline class="st22" points="450.8,517.6 450.4,481.5 470,479 		"/>
		<polyline class="st22" points="462.4,515.9 461.9,494.2 472.5,492.9 		"/>
		<line class="st22" x1="339.8" y1="402.2" x2="340" y2="504"/>
		<polyline class="st22" points="461.4,291 461.3,291.1 348.2,375 349.1,415.2 		"/>
		<polyline class="st22" points="324.3,389.4 324.3,391 323.5,504 		"/>
		<path class="st22" d="M348.5,520.5c-0.6-2.5-1.3-4.9-2-7.3c-0.7-2.5-1.7-4.8-3.4-6.8c-0.9-1.1-1.9-1.9-3.1-2.3
			c-0.6-0.2-1.1-0.3-1.8-0.4c-0.4,0-0.7,0-1.1-0.1"/>
		<polyline class="st22" points="435,520.6 437.7,520.1 442.4,519.3 		"/>
		<path class="st22" d="M476.4,506.9c-1.1-3.3-2.2-7.2-3.1-11.3"/>
		<path class="st22" d="M478.5,307.3C478.5,307.3,478.5,307.3,478.5,307.3"/>
		<path class="st22" d="M324.6,504.3c1.8-0.1,3.5-0.2,5.3-0.4"/>
		<polyline class="st22" points="469.9,514.7 462.4,516 460.4,516.3 		"/>
		<path class="st22" d="M475.4,303.7c0.9,1,1.8,2,2.6,3.1c0.1,0.2,0.3,0.3,0.4,0.5"/>
		<path class="st22" d="M348.5,520.5c0.1,0.4,0.2,0.9,0.3,1.3c0.6,2.3,1.1,4.5,1.7,6.8c0.6,2.5,0.8,3.5,1.4,6l3.9-0.7l1.4-0.2"/>
		<path class="st22" d="M299.6,504.7c-2.4-0.4-4.7-1.1-6.9-2.2c-0.1-0.1-0.3-0.1-0.4-0.2c-0.4-0.2-0.9-0.5-1.3-0.8"/>
		<path class="st22" d="M299.6,504.7c0.4,0.1,0.9,0.1,1.3,0.2c0.8,0.1,1.6,0.1,2.4,0.1c2,0,3.9,0,5.8,0"/>
		<path class="st22" d="M317.3,504.7c-0.4,0-0.9,0.1-1.3,0.1c-1.4,0.1-2.7,0.1-4.1,0.1c-0.9,0-1.9,0-2.8,0"/>
		<path class="st22" d="M285.4,373.7c-1.5,2.2-3.1,4.3-4.6,6.4c-5.2,7.1-10.3,14.3-14.8,21.9c-1.5,2.6-2.7,5.2-3.2,8.2
			c-0.6,3.8,0.7,6.7,4,8.6c2.4,1.5,5.1,2.2,7.8,2.9c1.5,0.4,3,0.9,4.5,1.3c1.8,0.5,2.7,1.7,3,3.5c0.5,2.4,0.1,4.6-0.9,6.7
			c-0.8,1.6-1.6,3.2-2.6,4.7c-2.1,3.2-0.6,7,1.4,8.8c0.9,0.8,1.8,1.4,2.9,1.8c0.3,0.1,0.6,0.2,1.1,0.4c-0.2,0.2-0.4,0.4-0.6,0.6
			c-1.5,1.5-2.7,3.2-3.2,5.3c-0.6,2.2,0.2,4,1.8,5.5c1.4,1.3,2.6,2.7,3.4,4.2"/>
		<path class="st22" d="M317.3,504.7c2.1-0.1,4.2-0.2,6.2-0.4c0.4,0,0.7-0.1,1.1-0.1"/>
		<path class="st23" d="M380.1,272.3c1.3-0.1,2.5-0.2,3.8-0.3c4.7-0.4,9.5-0.5,14.2-0.4c4.8,0.1,9.5,0.5,14.2,1.2
			c3.3,0.5,6.6,1,9.9,1.7c0.2,0.1,0.5,0.1,0.8,0.2"/>
		<path class="st22" d="M285.4,478.8c-0.6,2.1-1.3,4.2-1.7,6.4c-0.7,3.8-0.1,7.5,1.7,10.6"/>
		<path class="st22" d="M285.4,495.8c1.3,2.2,3.1,4.2,5.5,5.7"/>
		<path class="st23" d="M368.3,274.1c3.9-0.8,7.9-1.4,11.8-1.8"/>
		<path class="st22" d="M322,293.5c2.4-1.8,4.9-3.4,7.4-5c1.4-0.8,2.7-1.6,4.1-2.4c4-2.2,8.2-4.1,12.4-5.7c2.8-1,5.5-2.1,8.4-3
			c4.4-1.4,8.8-2.5,13.2-3.4c0.2-0.1,0.5-0.1,0.7-0.1"/>
		<path class="st23" d="M423,274.6c2.3,0.5,4.5,1.1,6.8,1.7c1.9,0.5,3.9,1.1,5.8,1.7c3.5,1.2,6.9,2.6,10.2,4.1"/>
		<path class="st22" d="M459.8,290.1c-0.2-0.1-0.3-0.2-0.5-0.3c-4.4-2.9-8.9-5.5-13.6-7.6"/>
		<path class="st22" d="M285.4,478.8c0.1-0.3,0.2-0.6,0.3-0.9c0.7-2.8,1.2-5.6,1-8.4c-0.1-1.8-0.6-3.4-1.3-4.8"/>
		<path class="st22" d="M285.4,373.7c0.3-0.5,0.7-1,1-1.4c0.8-1.1,1.5-2.2,2.3-3.3c1.9-2.8,3-5.9,3-9.2c0-0.8,0-1.5-0.2-2.3
			c-0.6-4.6-0.4-9.1,0.5-13.6c0.6-2.8,1.3-5.6,2.1-8.4c0.9-3.1,1.9-6.1,2.9-9.2c2.9-8.6,7.6-16.1,13.8-22.8
			c3.4-3.7,7.1-6.9,11.1-9.8"/>
		<path class="st22" d="M329.9,503.9c0.6,0,1.1-0.1,1.7-0.1c0.7,0,1.3-0.1,2-0.1c1.2-0.1,2.4-0.1,3.6-0.1"/>
		<polyline class="st22" points="460.4,516.3 450.9,517.9 450.2,518 		"/>
		<polyline class="st22" points="381.7,529.6 375.6,530.6 368.2,531.8 		"/>
		<path class="st22" d="M490.6,408.1c-0.7,1.5-1.5,3-2.3,4.5c-0.6,1-1.2,2.1-1.8,3.1"/>
		<path class="st22" d="M486.6,415.7c-2.5,4.4-5.1,8.7-7.8,13"/>
		<path class="st22" d="M471.1,484.7c0.5,2.7,1,5.4,1.6,8.1c0.2,0.9,0.4,1.9,0.6,2.8"/>
		<path class="st22" d="M478.5,307.3c0.3,0.4,0.6,0.8,0.9,1.2c1.3,1.6,2.5,3.3,3.6,5.1"/>
		<path class="st22" d="M469.9,514.7l9.1-1.5c-0.9-1.6-1.8-3.8-2.6-6.3"/>
		<path class="st22" d="M475.4,303.7c-1.1-1.2-2.2-2.3-3.3-3.5"/>
		<polyline class="st22" points="414.9,524 422.7,522.7 425.1,522.3 		"/>
		<line class="st22" x1="450.2" y1="518" x2="442.4" y2="519.3"/>
		<path class="st22" d="M469.4,448.4c-0.4,1.3-0.7,2.5-0.8,3.8c-0.2,3-0.4,6-0.4,9c0,0.6,0,1.1,0,1.7c0.1,2,0.3,4.6,0.6,7.5"/>
		<line class="st22" x1="435" y1="520.6" x2="425.1" y2="522.3"/>
		<line class="st22" x1="408.2" y1="525.1" x2="414.9" y2="524"/>
		<path class="st22" d="M471.1,484.7c-0.4-1.9-0.7-3.8-1-5.7c-0.5-3.1-0.9-6-1.2-8.6"/>
		<path class="st22" d="M469.4,448.4c0.2-0.7,0.4-1.5,0.6-2.2c1.7-5.8,4.9-10.9,7.9-16c0.3-0.5,0.6-1,0.9-1.5"/>
		<path class="st22" d="M498.5,374.9c-0.1,2.1-0.2,4.2-0.5,6.3c-0.3,2.7-0.7,5.2-1.2,7.8"/>
		<path class="st22" d="M487.4,320.9c1,2,2,4.1,2.9,6.2"/>
		<path class="st22" d="M460.4,290.5c0.3,0.2,0.6,0.4,0.8,0.6c1.4,1,2.8,2.1,4.2,3.1"/>
		<polyline class="st22" points="357.3,533.7 365.4,532.3 368.2,531.8 		"/>
		<polyline class="st22" points="408.2,525.1 406.3,525.4 399,526.6 		"/>
		<path class="st22" d="M465.4,294.3c2,1.6,3.8,3.2,5.6,5c0.4,0.3,0.7,0.7,1.1,1"/>
		<path class="st22" d="M490.6,408.1c0.2-0.4,0.4-0.9,0.6-1.3c2.5-5.7,4.4-11.6,5.6-17.7"/>
		<path class="st22" d="M460.4,290.5c-0.2-0.1-0.4-0.3-0.6-0.4c0,0,0,0,0,0"/>
		<line class="st22" x1="391.3" y1="527.9" x2="399" y2="526.6"/>
		<path class="st22" d="M496.9,350.5c-0.6-4-1.5-8-2.6-11.9c-0.2-0.9-0.5-1.7-0.8-2.6c-0.1-0.3-0.2-0.7-0.3-1"/>
		<path class="st22" d="M498.5,374.9c0-0.5,0-0.9,0-1.4c0.1-4.4,0-8.7-0.4-13c-0.2-2-0.4-4-0.7-6.1c-0.2-1.3-0.4-2.7-0.6-4"/>
		<polyline class="st22" points="381.7,529.6 390.3,528.1 391.3,527.9 		"/>
		<path class="st22" d="M487.4,320.9c-0.2-0.4-0.4-0.8-0.6-1.1c-1.1-2.1-2.4-4.2-3.7-6.3"/>
		<path class="st22" d="M493.1,335c-0.8-2.4-1.7-4.8-2.6-7.2c-0.1-0.2-0.2-0.4-0.3-0.6"/>
	</g>
</g>
<line class="st24" x1="383.2" y1="226" x2="383.2" y2="260"/>
<line class="st25" x1="436.7" y1="265.8" x2="443.8" y2="231.1"/>
<line class="st26" x1="470.1" y1="282.6" x2="496.5" y2="256.6"/>
<line class="st26" x1="490.3" y1="307.7" x2="520.4" y2="286"/>
<line class="st27" x1="510.2" y1="339.4" x2="544.3" y2="329.2"/>
<line class="st28" x1="510.2" y1="381.3" x2="544.2" y2="378.4"/>
<line class="st29" x1="492.1" y1="435.1" x2="526.9" y2="434.3"/>
<line class="st30" x1="481.9" y1="494.1" x2="516.5" y2="494.2"/>
<line class="st31" x1="325.5" y1="239.1" x2="330.8" y2="272.8"/>
<g>
	<path class="st32" d="M323.7,220.4c-0.9,0.2-2,0.4-2.9,0.6l0,0c0.8,0.1,1.7,0.2,2.7,0.4l3.4,0.7l0.1,0.7l-3,1.6
		c-0.9,0.5-1.7,0.9-2.5,1.2l0,0c0.8-0.1,2-0.2,3-0.3l2.9-0.3l0.1,0.8l-6.7,0.6l-0.2-1.1l3-1.6c0.8-0.4,1.5-0.7,2.1-1l0,0
		c-0.7-0.1-1.5-0.2-2.4-0.3l-3.4-0.7l-0.2-1.1l6.6-1.5l0.1,0.8L323.7,220.4z"/>
	<path class="st32" d="M323.2,213.6c1.8-0.3,2.7,0.8,2.9,2c0.2,1.3-0.6,2.4-2.1,2.7c-1.6,0.3-2.7-0.6-2.9-2
		C320.9,214.9,321.7,213.8,323.2,213.6z M323.8,217.4c1-0.2,1.7-0.9,1.6-1.7c-0.1-0.8-1-1.3-2.1-1.2c-0.8,0.1-1.8,0.7-1.6,1.7
		C321.9,217.2,322.9,217.5,323.8,217.4z"/>
	<path class="st32" d="M317.8,209.1l5.8-0.9c0.4-0.1,0.9-0.2,1.2-0.2l0.1,0.8l-0.8,0.2l0,0c0.6,0.2,1.1,0.7,1.2,1.5
		c0.2,1.2-0.7,2.2-2.1,2.4c-1.6,0.3-2.7-0.6-2.9-1.7c-0.1-0.7,0.2-1.3,0.5-1.6l0,0l-2.9,0.5L317.8,209.1z M322.1,209.3
		c-0.1,0-0.3,0.1-0.4,0.1c-0.5,0.2-0.9,0.8-0.8,1.4c0.1,0.9,1,1.3,2.1,1.1c1-0.2,1.7-0.8,1.5-1.7c-0.1-0.6-0.6-1.1-1.2-1.1
		c-0.1,0-0.2,0-0.4,0L322.1,209.3z"/>
	<path class="st32" d="M322.6,202.8c0.5-0.1,0.9-0.2,1.3-0.2l0.1,0.8l-0.8,0.2l0,0c0.4,0.2,1,0.6,1.1,1.4c0.1,0.8-0.2,1.7-1.8,2
		l-2.8,0.4l-0.1-0.9l2.6-0.4c0.9-0.1,1.5-0.5,1.4-1.3c-0.1-0.6-0.6-0.9-1-1c-0.1,0-0.3,0-0.5,0l-2.9,0.5l-0.1-0.9L322.6,202.8z"/>
	<path class="st32" d="M316.7,202.2l-0.1-0.9l7-1.1l0.1,0.9L316.7,202.2z"/>
	<path class="st32" d="M320.7,195.9l2.2,0.4l0.1,0.9l-7-1.2l-0.2-1l6.3-3.3l0.1,0.9l-2,1L320.7,195.9z M319.7,193.8l-1.8,1
		c-0.4,0.2-0.8,0.4-1.2,0.5l0,0c0.4,0,0.8,0.1,1.3,0.1l2,0.3L319.7,193.8z"/>
	<path class="st32" d="M322.2,189.2l-7.6-1.6l-0.1-0.7l7.6,1.6L322.2,189.2z"/>
	<path class="st32" d="M314.2,184.1l-0.1-0.9l3.2-0.5l0,0c-0.3-0.1-0.5-0.3-0.8-0.4l-2.8-1.6l-0.2-1.1l3.2,2l3.4-3.2l0.2,1l-2.9,2.7
		l0.8,0.5l2.5-0.4l0.1,0.9L314.2,184.1z"/>
	<path class="st32" d="M316.7,178.1c-0.6,0.1-1,0.2-1.5,0.3l-0.1-0.8l0.9-0.2l0,0c-0.7-0.1-1.2-0.6-1.3-1.2c0-0.1,0-0.2,0-0.3
		l0.8-0.1c0,0.1,0,0.2,0,0.3c0.1,0.6,0.6,1,1.3,1c0.1,0,0.3,0,0.4,0l2.5-0.4l0.1,0.9L316.7,178.1z"/>
	<path class="st32" d="M317.2,174.4c1.2-0.2,1.5-1,1.4-1.9c-0.1-0.6-0.3-1-0.5-1.3l0.6-0.2c0.2,0.3,0.4,0.8,0.6,1.5
		c0.2,1.5-0.6,2.5-2,2.7s-2.7-0.4-2.9-1.8c-0.2-1.6,1.1-2.2,1.9-2.3c0.2,0,0.3,0,0.4,0L317.2,174.4z M316.2,171.9
		c-0.6,0.1-1.4,0.4-1.2,1.4c0.1,0.9,1,1.1,1.6,1.1L316.2,171.9z"/>
	<path class="st32" d="M317,166.4c0.4-0.1,0.8-0.1,1.1-0.3l0.1,0.8l-0.6,0.2l0,0c0.4,0.2,0.8,0.7,0.9,1.3c0.2,1-0.5,1.6-1.1,1.7
		c-1.2,0.2-1.9-0.7-2.2-2.6l-0.1,0c-0.4,0.1-1.1,0.3-0.9,1.3c0.1,0.4,0.3,0.9,0.6,1.2l-0.5,0.3c-0.3-0.4-0.6-0.9-0.7-1.5
		c-0.2-1.5,0.7-2,1.7-2.1L317,166.4z M315.9,167.4c0.1,1,0.5,2,1.4,1.9c0.6-0.1,0.8-0.5,0.7-1c-0.1-0.6-0.6-1-1-1
		c-0.1,0-0.2,0-0.3,0L315.9,167.4z"/>
	<path class="st32" d="M311.9,164.7l1.1-0.2l-0.2-1.2l0.7-0.1l0.2,1.2l2.6-0.4c0.6-0.1,0.9-0.3,0.8-0.8c0-0.2-0.1-0.4-0.1-0.5
		l0.6-0.1c0.1,0.2,0.2,0.4,0.2,0.8c0.1,0.4,0,0.8-0.2,1c-0.2,0.3-0.6,0.4-1.2,0.5l-2.6,0.4l0.1,0.7l-0.7,0.1l-0.1-0.7l-0.9,0.1
		L311.9,164.7z"/>
	<path class="st32" d="M311.2,161.5c0.3-0.1,0.6,0.1,0.6,0.5c0,0.3-0.2,0.6-0.5,0.6c-0.3,0-0.6-0.1-0.6-0.5
		C310.7,161.8,310.9,161.6,311.2,161.5z M317.4,161.5l-4.8,0.8l-0.1-0.9l4.8-0.8L317.4,161.5z"/>
	<path class="st32" d="M312.2,159.7l2.5-1.4c0.4-0.2,0.8-0.4,1.2-0.6l0,0c-0.4,0-0.8-0.1-1.3-0.2l-2.8-0.5l-0.1-0.9l5.1,1.1l0.1,0.8
		l-4.5,2.6L312.2,159.7z"/>
	<path class="st32" d="M310.1,154.5c0.3-0.1,0.6,0.1,0.6,0.5c0,0.3-0.2,0.6-0.5,0.6c-0.3,0-0.6-0.1-0.6-0.5
		C309.5,154.8,309.8,154.5,310.1,154.5z M316.3,154.5l-4.8,0.8l-0.1-0.9l4.8-0.8L316.3,154.5z"/>
	<path class="st32" d="M309.9,152.1l1.1-0.2l-0.2-1.2l0.7-0.1l0.2,1.2l2.6-0.4c0.6-0.1,0.9-0.3,0.8-0.8c0-0.2-0.1-0.4-0.1-0.5
		l0.6-0.1c0.1,0.2,0.2,0.4,0.2,0.8c0.1,0.4,0,0.8-0.2,1c-0.2,0.3-0.6,0.4-1.2,0.5l-2.6,0.4l0.1,0.7l-0.7,0.1l-0.1-0.7l-0.9,0.1
		L309.9,152.1z"/>
	<path class="st32" d="M309.4,147.2c0,0.3-0.2,0.5-0.4,0.6c-0.3,0-0.5-0.1-0.6-0.4s0.1-0.5,0.4-0.6
		C309.1,146.8,309.4,146.9,309.4,147.2L309.4,147.2z M309.7,149.1c0,0.3-0.2,0.5-0.4,0.6c-0.3,0-0.5-0.1-0.6-0.4s0.1-0.5,0.4-0.6
		C309.4,148.6,309.7,148.8,309.7,149.1L309.7,149.1z M313.8,145.7c0.4-0.1,0.8-0.1,1.1-0.3l0.1,0.8l-0.6,0.2l0,0
		c0.4,0.2,0.8,0.7,0.9,1.3c0.2,1-0.5,1.6-1.1,1.7c-1.2,0.2-1.9-0.7-2.2-2.6l-0.1,0c-0.4,0.1-1.1,0.3-0.9,1.3
		c0.1,0.4,0.3,0.9,0.6,1.2l-0.5,0.3c-0.3-0.4-0.6-0.9-0.7-1.5c-0.2-1.5,0.7-2,1.7-2.1L313.8,145.7z M312.6,146.8
		c0.1,1,0.5,2,1.4,1.9c0.6-0.1,0.8-0.5,0.7-0.9c-0.1-0.6-0.6-1-1-1c-0.1,0-0.2,0-0.3,0L312.6,146.8z"/>
	<path class="st32" d="M308.6,144.1l1.1-0.2l-0.2-1.2l0.7-0.1l0.2,1.2l2.6-0.4c0.6-0.1,0.9-0.3,0.8-0.8c0-0.2-0.1-0.4-0.1-0.5
		l0.6-0.1c0.1,0.2,0.2,0.4,0.2,0.7c0.1,0.4,0,0.8-0.2,1c-0.2,0.3-0.6,0.4-1.2,0.5l-2.6,0.4l0.1,0.7l-0.7,0.1l-0.1-0.7l-0.9,0.1
		L308.6,144.1z"/>
	<path class="st32" d="M313.3,141.2c0.1-0.3,0.2-0.8,0.2-1.2c-0.1-0.6-0.5-0.9-0.9-0.8c-0.4,0.1-0.6,0.3-0.7,1
		c-0.2,0.9-0.6,1.4-1.2,1.5c-0.8,0.1-1.5-0.4-1.7-1.4c-0.1-0.5,0-0.9,0.1-1.2l0.7,0.1c-0.1,0.2-0.2,0.6-0.1,1
		c0.1,0.5,0.4,0.8,0.8,0.7c0.4-0.1,0.5-0.4,0.7-1c0.2-0.9,0.5-1.4,1.2-1.5c0.8-0.1,1.5,0.4,1.7,1.6c0.1,0.5,0,1-0.1,1.4L313.3,141.2
		z"/>
	<path class="st32" d="M307.5,136.9l1.1-0.2l-0.2-1.2l0.7-0.1l0.2,1.2l2.6-0.4c0.6-0.1,0.9-0.3,0.8-0.8c0-0.2-0.1-0.4-0.1-0.5
		l0.6-0.1c0.1,0.2,0.2,0.4,0.2,0.8c0.1,0.4,0,0.8-0.2,1c-0.2,0.3-0.6,0.4-1.2,0.5l-2.6,0.4l0.1,0.7l-0.7,0.1l-0.1-0.7l-0.9,0.1
		L307.5,136.9z"/>
	<path class="st32" d="M310.8,133.7c1.2-0.2,1.5-1,1.4-1.9c-0.1-0.6-0.3-1-0.5-1.3l0.6-0.2c0.2,0.3,0.4,0.8,0.6,1.5
		c0.2,1.5-0.6,2.5-2,2.7s-2.7-0.4-2.9-1.8c-0.2-1.6,1.1-2.2,1.9-2.3c0.2,0,0.3,0,0.4,0L310.8,133.7z M309.7,131.2
		c-0.6,0.1-1.4,0.4-1.2,1.4c0.1,0.9,1,1.1,1.6,1.1L309.7,131.2z"/>
	<path class="st32" d="M311.6,125.5c0.2,0.2,0.4,0.7,0.5,1.3c0.2,1.4-0.6,2.5-2.1,2.8c-1.5,0.2-2.7-0.6-2.9-2.2
		c-0.1-0.5,0-1,0.1-1.2l0.7,0.1c-0.1,0.2-0.1,0.6-0.1,1c0.2,1.1,1.1,1.6,2.1,1.4c1.1-0.2,1.7-1,1.5-1.9c-0.1-0.5-0.3-0.8-0.4-1
		L311.6,125.5z"/>
	<path class="st32" d="M304.6,125.5l-0.1-0.9l3-0.5l0,0c-0.3-0.1-0.5-0.3-0.7-0.5c-0.2-0.2-0.3-0.5-0.4-0.8c-0.1-0.6,0.1-1.7,1.8-2
		l2.8-0.4l0.1,0.9l-2.7,0.4c-0.8,0.1-1.4,0.5-1.2,1.3c0.1,0.6,0.6,0.9,1.1,1c0.1,0,0.3,0,0.4,0l2.9-0.5l0.1,0.9L304.6,125.5z"/>
	<path class="st32" d="M307.2,119.5c-0.5,0.1-0.9,0.2-1.3,0.2l-0.1-0.8l0.8-0.2l0,0c-0.5-0.2-1-0.6-1.1-1.4c-0.1-0.7,0.1-1.8,1.8-2
		l2.9-0.5l0.1,0.9l-2.8,0.4c-0.8,0.1-1.4,0.5-1.2,1.3c0.1,0.6,0.6,1,1.1,1c0.1,0,0.3,0,0.4,0l2.9-0.5l0.1,0.9L307.2,119.5z"/>
	<path class="st32" d="M303.6,113.5c0.3-0.1,0.6,0.1,0.6,0.5c0,0.3-0.2,0.6-0.5,0.6c-0.3,0-0.6-0.1-0.6-0.5
		C303.1,113.7,303.3,113.5,303.6,113.5z M309.9,113.5l-4.8,0.8l-0.1-0.9l4.8-0.8L309.9,113.5z"/>
	<path class="st32" d="M306.8,110.7L306.8,110.7c-0.2-0.1-0.4-0.2-0.6-0.4l-1.9-1.1l-0.2-1l2.3,1.5l2.5-2.5l0.2,1.1l-2,2l0.6,0.4
		l1.8-0.3l0.1,0.9l-7,1.1l-0.1-0.9L306.8,110.7z"/>
	<path class="st32" d="M306.5,106.4c1.2-0.2,1.5-1,1.4-1.9c-0.1-0.6-0.3-1-0.5-1.3l0.6-0.2c0.2,0.3,0.4,0.8,0.6,1.5
		c0.2,1.5-0.6,2.5-2,2.7c-1.4,0.2-2.7-0.4-2.9-1.8c-0.2-1.6,1.1-2.2,1.9-2.3c0.2,0,0.3,0,0.4,0L306.5,106.4z M305.4,103.9
		c-0.6,0.1-1.4,0.5-1.2,1.4c0.1,0.9,1,1.1,1.6,1.1L305.4,103.9z"/>
	<path class="st32" d="M304.5,102.1c-0.5,0.1-0.9,0.2-1.3,0.2l-0.1-0.8l0.8-0.2l0,0c-0.5-0.2-1-0.6-1.1-1.4c-0.1-0.7,0.1-1.8,1.8-2
		l2.9-0.5l0.1,0.9l-2.8,0.4c-0.8,0.1-1.4,0.5-1.2,1.3c0.1,0.6,0.6,1,1.1,1c0.1,0,0.3,0,0.4,0l2.9-0.5l0.1,0.9L304.5,102.1z"/>
</g>
<g>
	<path class="st33" d="M383,206.8c-0.9,0.1-2.1,0.2-2.9,0.2l0,0c0.8,0.2,1.7,0.5,2.6,0.8l3.3,1.1l0,0.7l-3.2,1.2
		c-0.9,0.3-1.8,0.6-2.6,0.8l0,0c0.8,0,2,0,3,0.1l2.9,0.1l0,0.8l-6.7-0.3l0-1.1l3.2-1.2c0.8-0.3,1.6-0.6,2.2-0.7l0,0
		c-0.7-0.2-1.4-0.4-2.3-0.7l-3.3-1.1l0-1.1l6.7-0.6l0,0.8L383,206.8z"/>
	<path class="st33" d="M383.4,200.1c1.8,0,2.6,1.2,2.6,2.3c0,1.3-0.9,2.3-2.4,2.4c-1.6,0-2.6-1-2.6-2.3
		C380.9,201.1,381.9,200.1,383.4,200.1z M383.5,203.9c1.1,0,1.8-0.7,1.8-1.5c0-0.8-0.8-1.4-1.9-1.4c-0.8,0-1.8,0.5-1.8,1.5
		C381.6,203.5,382.6,203.9,383.5,203.9z"/>
	<path class="st33" d="M378.6,194.9l5.8-0.2c0.4,0,0.9,0,1.2-0.1l0,0.8l-0.8,0.1l0,0c0.5,0.3,1,0.8,1,1.6c0,1.2-0.9,2.1-2.4,2.1
		c-1.6,0.1-2.6-0.9-2.7-2.1c0-0.7,0.3-1.2,0.7-1.5l0,0l-2.9,0.1L378.6,194.9z M382.8,195.7c-0.1,0-0.3,0-0.4,0c-0.6,0.1-1,0.6-1,1.3
		c0,0.9,0.8,1.4,1.9,1.4c1,0,1.8-0.5,1.8-1.5c0-0.6-0.4-1.1-1.1-1.3c-0.1,0-0.2,0-0.4,0L382.8,195.7z"/>
	<path class="st33" d="M384.2,189.2c0.5,0,0.9,0,1.3-0.1l0,0.8l-0.8,0.1l0,0c0.4,0.2,0.9,0.7,0.9,1.6c0,0.8-0.4,1.7-2.1,1.7
		l-2.8,0.1l0-0.9l2.7-0.1c0.9,0,1.5-0.3,1.5-1.1c0-0.6-0.4-1-0.8-1.1c-0.1,0-0.3-0.1-0.5-0.1l-3,0.1l0-0.9L384.2,189.2z"/>
	<path class="st33" d="M378.4,187.9l0-0.9l7.1-0.2l0,0.9L378.4,187.9z"/>
	<path class="st33" d="M378.7,183.4c-0.1-0.4-0.2-1-0.2-1.6c0-0.9,0.1-1.4,0.4-1.9c0.3-0.4,0.6-0.6,1.2-0.6c0.6,0,1.2,0.4,1.5,1.1
		l0,0c0.1-0.6,0.7-1.4,1.7-1.4c0.6,0,1,0.2,1.4,0.5c0.4,0.5,0.7,1.2,0.7,2.3c0,0.6,0,1.1,0,1.4L378.7,183.4z M381.5,182.5l0-0.8
		c0-0.9-0.5-1.4-1.2-1.4c-0.8,0-1.1,0.6-1.1,1.5c0,0.4,0,0.6,0.1,0.8L381.5,182.5z M384.7,182.4c0-0.2,0-0.4,0-0.7
		c0-0.9-0.4-1.7-1.4-1.7c-0.9,0-1.3,0.8-1.3,1.8l0,0.7L384.7,182.4z"/>
	<path class="st33" d="M385.6,176.4l-7.3-2.6l0-0.7l7.3,2.6L385.6,176.4z"/>
	<path class="st33" d="M378.4,170.3c-0.1-0.4-0.2-1-0.2-1.6c0-0.9,0.1-1.4,0.4-1.9c0.3-0.4,0.6-0.6,1.2-0.6c0.6,0,1.2,0.4,1.5,1.1h0
		c0.1-0.6,0.7-1.4,1.7-1.4c0.6,0,1,0.2,1.4,0.5c0.4,0.5,0.7,1.2,0.7,2.3c0,0.6,0,1.1,0,1.4L378.4,170.3z M381.1,169.4l0-0.8
		c0-0.9-0.5-1.4-1.2-1.4c-0.8,0-1.1,0.6-1.1,1.5c0,0.4,0,0.6,0.1,0.8L381.1,169.4z M384.4,169.3c0-0.2,0-0.4,0-0.7
		c0-0.9-0.4-1.7-1.4-1.7c-0.9,0-1.3,0.8-1.3,1.8l0,0.7L384.4,169.3z"/>
	<path class="st33" d="M378.7,163.9c0.3,0,0.5,0.2,0.6,0.5c0,0.3-0.2,0.5-0.5,0.5c-0.3,0-0.6-0.2-0.6-0.5
		C378.1,164.2,378.4,163.9,378.7,163.9z M384.9,164.7l-4.8,0.1l0-0.9l4.8-0.1L384.9,164.7z"/>
	<path class="st33" d="M377.8,162.6l0-0.9l7.1-0.2l0,0.9L377.8,162.6z"/>
	<path class="st33" d="M377.6,156.1l5.8-0.2c0.4,0,0.9,0,1.2-0.1l0,0.8l-0.8,0.1l0,0c0.5,0.3,1,0.8,1,1.6c0,1.2-0.9,2.1-2.4,2.1
		c-1.6,0.1-2.6-0.9-2.7-2.1c0-0.7,0.3-1.2,0.7-1.5l0,0l-2.9,0.1L377.6,156.1z M381.8,156.8c-0.1,0-0.3,0-0.4,0c-0.6,0.1-1,0.6-1,1.3
		c0,0.9,0.8,1.4,1.9,1.4c1,0,1.8-0.5,1.8-1.5c0-0.6-0.4-1.1-1.1-1.3c-0.1,0-0.2,0-0.4,0L381.8,156.8z"/>
	<path class="st33" d="M377.6,154.6l0-0.9l3-0.1l0,0c-0.5-0.3-0.9-0.8-0.9-1.6c0-1.2,0.9-2.1,2.4-2.1c1.7,0,2.6,1,2.6,2.1
		c0,0.7-0.2,1.3-0.9,1.6l0,0l0.8,0l0,0.8c-0.3,0-0.8,0-1.2,0L377.6,154.6z M382.7,153.6c0.1,0,0.2,0,0.3,0c0.6-0.2,1-0.7,1-1.3
		c0-0.9-0.8-1.4-1.9-1.4c-1,0-1.8,0.5-1.8,1.5c0,0.6,0.4,1.1,1.1,1.3c0.1,0,0.2,0,0.4,0L382.7,153.6z"/>
	<path class="st33" d="M382.2,148.3c1.2-0.1,1.7-0.8,1.6-1.7c0-0.6-0.1-1-0.3-1.3l0.6-0.2c0.1,0.3,0.3,0.8,0.4,1.6
		c0,1.5-0.9,2.4-2.4,2.4c-1.5,0-2.6-0.8-2.7-2.2c0-1.6,1.3-2,2.2-2.1c0.2,0,0.3,0,0.4,0L382.2,148.3z M381.5,145.7
		c-0.6,0-1.4,0.3-1.4,1.3c0,0.9,0.9,1.3,1.5,1.3L381.5,145.7z"/>
	<path class="st33" d="M383.1,140.3c0.4,0,0.8,0,1.2-0.1l0,0.8l-0.6,0.1l0,0c0.4,0.3,0.7,0.8,0.8,1.5c0,1-0.7,1.5-1.4,1.5
		c-1.2,0-1.8-1-1.9-2.9l-0.1,0c-0.4,0-1.1,0.1-1.1,1.1c0,0.4,0.2,0.9,0.4,1.2l-0.6,0.2c-0.3-0.4-0.5-1-0.5-1.6c0-1.5,1-1.9,1.9-1.9
		L383.1,140.3z M381.8,141.2c0,1,0.2,2,1.1,2c0.6,0,0.8-0.4,0.8-0.9c0-0.6-0.4-1-0.8-1.1c-0.1,0-0.2,0-0.3,0L381.8,141.2z"/>
	<path class="st33" d="M380.9,139c-0.6,0-1.1,0-1.5,0.1l0-0.8l0.9-0.1l0,0c-0.7-0.2-1.1-0.7-1.1-1.3c0-0.1,0-0.2,0-0.2l0.8,0
		c0,0.1,0,0.2,0,0.3c0,0.6,0.5,1,1.2,1.1c0.1,0,0.3,0,0.4,0l2.6-0.1l0,0.9L380.9,139z"/>
	<path class="st33" d="M377.1,135.8l0-0.9l3-0.1l0,0c-0.5-0.3-0.9-0.8-0.9-1.6c0-1.2,0.9-2.1,2.4-2.1c1.7,0,2.6,1,2.6,2.1
		c0,0.7-0.2,1.3-0.9,1.6l0,0l0.8,0l0,0.8c-0.3,0-0.8,0-1.3,0L377.1,135.8z M382.2,134.8c0.1,0,0.2,0,0.3,0c0.6-0.2,1-0.7,1-1.3
		c0-0.9-0.8-1.4-1.9-1.4c-1,0-1.8,0.5-1.8,1.5c0,0.6,0.4,1.1,1.1,1.3c0.1,0,0.2,0,0.4,0L382.2,134.8z"/>
	<path class="st33" d="M381.7,129.5c1.2-0.1,1.7-0.8,1.6-1.7c0-0.6-0.1-1-0.3-1.3l0.6-0.2c0.1,0.3,0.3,0.8,0.4,1.6
		c0,1.5-0.9,2.4-2.4,2.4c-1.5,0-2.6-0.8-2.7-2.2c0-1.6,1.3-2,2.2-2.1c0.2,0,0.3,0,0.4,0L381.7,129.5z M381,126.9
		c-0.6,0-1.4,0.3-1.4,1.3c0,0.9,0.9,1.3,1.5,1.3L381,126.9z"/>
	<path class="st33" d="M377.7,124.1c0.3,0,0.5,0.2,0.6,0.5c0,0.3-0.2,0.5-0.5,0.5c-0.3,0-0.6-0.2-0.6-0.5
		C377.1,124.3,377.3,124.1,377.7,124.1z M383.9,124.9L379,125l0-0.9l4.8-0.1L383.9,124.9z"/>
	<path class="st33" d="M377.8,121.6l1.2,0l0-1.3l0.7,0l0,1.3l2.6-0.1c0.6,0,0.9-0.2,0.9-0.7c0-0.2,0-0.4-0.1-0.5l0.7-0.1
		c0.1,0.2,0.1,0.4,0.2,0.8c0,0.4-0.1,0.7-0.4,1c-0.3,0.3-0.7,0.4-1.2,0.4l-2.6,0.1l0,0.8l-0.7,0l0-0.7l-0.9,0L377.8,121.6z"/>
	<path class="st33" d="M382.3,115.2c0.5,0,0.9,0,1.3-0.1l0,0.8l-0.8,0.1l0,0c0.4,0.2,0.9,0.7,0.9,1.6c0,0.8-0.4,1.7-2.1,1.7
		l-2.8,0.1l0-0.9l2.7-0.1c0.9,0,1.5-0.3,1.5-1.1c0-0.6-0.4-1-0.8-1.1c-0.1,0-0.3-0.1-0.5-0.1l-3,0.1l0-0.9L382.3,115.2z"/>
	<path class="st33" d="M380.1,113.8c-0.5,0-0.9,0-1.3,0.1l0-0.8l0.8-0.1l0,0c-0.5-0.2-0.9-0.8-1-1.6c0-0.7,0.4-1.7,2-1.8l2.9-0.1
		l0,0.9l-2.8,0.1c-0.8,0-1.4,0.3-1.4,1.2c0,0.6,0.4,1,0.9,1.2c0.1,0,0.3,0.1,0.4,0l2.9-0.1l0,0.9L380.1,113.8z"/>
	<path class="st33" d="M382.6,104.1c1.1,0,1.8,0.2,2.2,0.6c0.5,0.5,0.6,1.1,0.6,1.7c0,0.6-0.1,1.2-0.4,1.6l-0.7-0.2
		c0.2-0.3,0.4-0.8,0.3-1.4c0-0.9-0.5-1.5-1.7-1.5l-0.5,0l0,0c0.5,0.3,0.8,0.8,0.8,1.5c0,1.2-1,2.1-2.3,2.1c-1.6,0-2.6-1-2.6-2.1
		c0-0.8,0.4-1.3,0.8-1.5l0,0l-0.7,0l0-0.8c0.4,0,0.7,0,1.3,0L382.6,104.1z M380.4,105c-0.1,0-0.3,0-0.4,0.1
		c-0.5,0.2-0.9,0.6-0.9,1.3c0,0.8,0.7,1.4,1.9,1.4c0.9,0,1.7-0.5,1.7-1.5c0-0.5-0.4-1-0.9-1.2c-0.2,0-0.3-0.1-0.5-0.1L380.4,105z"/>
</g>
<g>
	<path class="st34" d="M446.9,213.7c-0.9-0.1-2.1-0.2-2.9-0.3l0,0c0.8,0.3,1.6,0.7,2.4,1.2l3.1,1.6l-0.1,0.7l-3.3,0.6
		c-1,0.2-1.9,0.3-2.7,0.4l0,0c0.8,0.1,1.9,0.3,2.9,0.5l2.8,0.6l-0.1,0.8l-6.6-1.4l0.1-1.1l3.4-0.7c0.9-0.2,1.6-0.3,2.3-0.4l0,0
		c-0.7-0.3-1.4-0.6-2.2-1l-3.1-1.6l0.1-1.1l6.7,0.5l-0.1,0.8L446.9,213.7z"/>
	<path class="st34" d="M448.3,207c1.8,0.2,2.4,1.6,2.2,2.7c-0.2,1.3-1.3,2.2-2.8,2c-1.6-0.2-2.4-1.4-2.2-2.7
		C445.7,207.6,446.8,206.8,448.3,207z M447.8,210.8c1,0.1,1.9-0.4,2-1.2c0.1-0.8-0.6-1.6-1.7-1.7c-0.8-0.1-1.9,0.2-2,1.2
		C446,210.1,446.9,210.7,447.8,210.8z"/>
	<path class="st34" d="M444.4,201.2l5.8,0.8c0.4,0.1,0.9,0.1,1.2,0.1l-0.1,0.8l-0.8-0.1l0,0c0.5,0.3,0.8,1,0.7,1.8
		c-0.2,1.2-1.3,1.9-2.7,1.7c-1.6-0.2-2.4-1.3-2.3-2.5c0.1-0.7,0.5-1.2,0.9-1.3l0,0l-2.9-0.4L444.4,201.2z M448.5,202.6
		c-0.1,0-0.3,0-0.4,0c-0.6,0.1-1.1,0.5-1.2,1.1c-0.1,0.9,0.6,1.5,1.7,1.7c1,0.1,1.8-0.2,2-1.2c0.1-0.6-0.2-1.2-0.9-1.4
		c-0.1,0-0.2-0.1-0.4-0.1L448.5,202.6z"/>
	<path class="st34" d="M450.9,196.5c0.5,0.1,0.9,0.1,1.3,0.1l-0.1,0.8l-0.8-0.1l0,0c0.4,0.3,0.8,0.9,0.7,1.7
		c-0.1,0.8-0.6,1.6-2.3,1.4l-2.8-0.4l0.1-0.9l2.7,0.4c0.9,0.1,1.6-0.1,1.7-0.9c0.1-0.6-0.3-1-0.6-1.3c-0.1-0.1-0.3-0.1-0.4-0.1
		l-2.9-0.4l0.1-0.9L450.9,196.5z"/>
	<path class="st34" d="M445.3,194.3l0.1-0.9l7,1l-0.1,0.9L445.3,194.3z"/>
	<path class="st34" d="M453.4,186c0.1,0.3,0.2,1,0.1,1.8c-0.3,1.9-1.6,3.1-3.8,2.8c-2.1-0.3-3.3-1.9-3-4c0.1-0.8,0.4-1.3,0.5-1.5
		l0.7,0.3c-0.2,0.3-0.4,0.8-0.5,1.3c-0.2,1.6,0.6,2.7,2.4,3c1.6,0.2,2.8-0.6,3-2.2c0.1-0.5,0-1.1-0.1-1.4L453.4,186z"/>
	<path class="st34" d="M454.3,183.7l-6.8-3.7l0.1-0.7l6.8,3.7L454.3,183.7z"/>
	<path class="st34" d="M455.2,172.3c0.1,0.4,0.2,1.2,0.1,2.1c-0.1,1-0.5,1.8-1.2,2.4c-0.6,0.5-1.6,0.7-2.6,0.6c-2-0.3-3.3-1.8-3-4.1
		c0.1-0.8,0.4-1.4,0.5-1.6l0.7,0.3c-0.2,0.3-0.4,0.8-0.5,1.4c-0.2,1.6,0.6,2.8,2.3,3c1.7,0.2,2.8-0.7,3-2.2c0.1-0.6,0-1,0-1.2
		l-2-0.3l-0.2,1.4l-0.7-0.1l0.3-2.2L455.2,172.3z"/>
	<path class="st34" d="M453.5,170.2c1.2,0.1,1.8-0.5,1.9-1.4c0.1-0.6,0-1-0.1-1.4l0.6-0.1c0.1,0.3,0.2,0.9,0.1,1.6
		c-0.2,1.5-1.3,2.2-2.7,2c-1.4-0.2-2.5-1.2-2.3-2.6c0.2-1.6,1.6-1.8,2.5-1.7c0.2,0,0.3,0.1,0.4,0.1L453.5,170.2z M453.2,167.5
		c-0.6-0.1-1.4,0-1.6,1c-0.1,0.9,0.6,1.4,1.2,1.5L453.2,167.5z"/>
	<path class="st34" d="M455.4,166c0.2-0.2,0.4-0.7,0.5-1.1c0.1-0.6-0.2-1-0.6-1c-0.4-0.1-0.7,0.2-1,0.8c-0.4,0.8-1,1.2-1.5,1.1
		c-0.8-0.1-1.3-0.8-1.2-1.8c0.1-0.5,0.3-0.9,0.5-1.1l0.6,0.3c-0.1,0.2-0.3,0.5-0.4,0.9c-0.1,0.5,0.2,0.8,0.5,0.9
		c0.4,0.1,0.6-0.2,0.9-0.8c0.4-0.8,0.9-1.2,1.6-1.1c0.8,0.1,1.4,0.8,1.2,2c-0.1,0.5-0.3,1-0.5,1.3L455.4,166z"/>
	<path class="st34" d="M451.1,160.2l1.1,0.2l0.2-1.2l0.7,0.1l-0.2,1.2l2.6,0.4c0.6,0.1,1,0,1-0.5c0-0.2,0-0.4,0-0.5l0.7,0
		c0,0.2,0.1,0.5,0,0.8c-0.1,0.4-0.2,0.7-0.5,0.9c-0.3,0.2-0.7,0.2-1.3,0.2l-2.6-0.4l-0.1,0.7L452,162l0.1-0.7l-0.9-0.1L451.1,160.2z
		"/>
	<path class="st34" d="M456.6,155.3c0.4,0.1,0.8,0.1,1.2,0.1l-0.1,0.8l-0.6,0l0,0c0.3,0.3,0.6,0.9,0.5,1.6c-0.1,1-0.9,1.4-1.6,1.3
		c-1.2-0.2-1.7-1.3-1.4-3.1l-0.1,0c-0.4-0.1-1.1,0-1.3,0.9c-0.1,0.4,0,0.9,0.2,1.3l-0.6,0.1c-0.2-0.4-0.3-1-0.2-1.6
		c0.2-1.5,1.2-1.7,2.2-1.6L456.6,155.3z M455.2,155.9c-0.1,0.9-0.1,2.1,0.8,2.2c0.6,0.1,0.9-0.3,0.9-0.7c0.1-0.6-0.3-1.1-0.6-1.3
		c-0.1,0-0.2-0.1-0.3-0.1L455.2,155.9z"/>
	<path class="st34" d="M450.9,153.1l0.1-0.9l7,1l-0.1,0.9L450.9,153.1z"/>
	<path class="st34" d="M452.5,149.8l1.1,0.2l0.2-1.2l0.7,0.1l-0.2,1.2l2.6,0.3c0.6,0.1,1,0,1-0.5c0-0.2,0-0.4,0-0.5l0.7,0
		c0,0.2,0.1,0.5,0,0.8c-0.1,0.4-0.2,0.7-0.5,0.9c-0.3,0.2-0.7,0.2-1.3,0.2l-2.6-0.4l-0.1,0.7l-0.7-0.1l0.1-0.7l-0.9-0.1L452.5,149.8
		z"/>
	<path class="st34" d="M457.9,144.2c0.5,0.1,0.9,0.1,1.3,0.1l-0.1,0.8l-0.8-0.1l0,0c0.4,0.3,0.8,0.9,0.7,1.7
		c-0.1,0.8-0.6,1.6-2.3,1.4l-2.8-0.4l0.1-0.9l2.7,0.4c0.9,0.1,1.6-0.1,1.7-0.9c0.1-0.6-0.3-1-0.6-1.3c-0.1-0.1-0.3-0.1-0.4-0.1
		l-2.9-0.4l0.1-0.9L457.9,144.2z"/>
	<path class="st34" d="M456,142.5c-0.5-0.1-0.9-0.1-1.3-0.1l0.1-0.8l0.8,0.1l0,0c-0.4-0.3-0.8-0.9-0.7-1.7c0.1-0.7,0.6-1.6,2.3-1.4
		l2.9,0.4l-0.1,0.9l-2.8-0.4c-0.8-0.1-1.5,0.1-1.6,0.9c-0.1,0.6,0.3,1.1,0.7,1.3c0.1,0.1,0.2,0.1,0.4,0.1l2.9,0.4l-0.1,0.9
		L456,142.5z"/>
	<path class="st34" d="M460.1,133.3c1.1,0.1,1.7,0.5,2.1,1c0.4,0.5,0.4,1.2,0.3,1.8c-0.1,0.6-0.3,1.2-0.6,1.5l-0.6-0.3
		c0.2-0.3,0.5-0.8,0.6-1.4c0.1-0.9-0.3-1.6-1.5-1.8l-0.5-0.1l0,0c0.4,0.3,0.7,0.9,0.6,1.6c-0.2,1.2-1.3,1.9-2.6,1.7
		c-1.6-0.2-2.4-1.4-2.3-2.5c0.1-0.8,0.6-1.2,1-1.4l0,0l-0.7-0.1l0.1-0.8c0.3,0.1,0.7,0.1,1.3,0.2L460.1,133.3z M457.7,133.8
		c-0.1,0-0.3,0-0.4,0c-0.5,0.1-1,0.5-1.1,1.1c-0.1,0.8,0.5,1.5,1.6,1.7c0.9,0.1,1.8-0.2,1.9-1.2c0.1-0.5-0.2-1.1-0.7-1.3
		c-0.1-0.1-0.3-0.1-0.5-0.1L457.7,133.8z"/>
	<path class="st34" d="M460.5,125.6c0.5,0.1,0.9,0.1,1.3,0.1l-0.1,0.8l-0.8-0.1l0,0c0.4,0.3,0.8,0.9,0.7,1.7
		c-0.1,0.8-0.6,1.6-2.3,1.4l-2.8-0.4l0.1-0.9l2.7,0.4c0.9,0.1,1.6-0.1,1.7-0.9c0.1-0.6-0.3-1-0.6-1.3c-0.1-0.1-0.3-0.1-0.4-0.1
		l-2.9-0.4l0.1-0.9L460.5,125.6z"/>
	<path class="st34" d="M458.5,123.9c-0.5-0.1-0.9-0.1-1.3-0.1l0.1-0.8l0.8,0.1l0,0c-0.4-0.3-0.8-0.9-0.7-1.7
		c0.1-0.7,0.6-1.6,2.3-1.4l2.9,0.4l-0.1,0.9l-2.8-0.4c-0.8-0.1-1.5,0.1-1.6,0.9c-0.1,0.6,0.3,1.1,0.7,1.3c0.1,0.1,0.2,0.1,0.4,0.1
		l2.9,0.4l-0.1,0.9L458.5,123.9z"/>
	<path class="st34" d="M456.2,113.8l5.8,0.8c0.4,0.1,0.9,0.1,1.2,0.1l-0.1,0.8l-0.8-0.1l0,0c0.5,0.3,0.8,1,0.7,1.8
		c-0.2,1.2-1.3,1.9-2.7,1.7c-1.6-0.2-2.4-1.3-2.3-2.5c0.1-0.7,0.5-1.2,0.9-1.3l0,0l-2.9-0.4L456.2,113.8z M460.3,115.2
		c-0.1,0-0.3,0-0.4,0c-0.6,0.1-1.1,0.5-1.2,1.1c-0.1,0.9,0.6,1.5,1.7,1.7c1,0.1,1.8-0.2,2-1.2c0.1-0.6-0.2-1.2-0.9-1.4
		c-0.1,0-0.2-0.1-0.4-0.1L460.3,115.2z"/>
	<path class="st34" d="M457.9,109.5l-0.3,2l-0.7-0.1l0.7-4.9l0.7,0.1l-0.3,2l5.9,0.8l-0.1,0.9L457.9,109.5z"/>
	<path class="st34" d="M462.1,106.5c1.2,0.1,1.8-0.5,1.9-1.4c0.1-0.6,0-1-0.1-1.4l0.6-0.1c0.1,0.3,0.2,0.9,0.1,1.6
		c-0.2,1.5-1.3,2.2-2.7,2s-2.5-1.2-2.3-2.6c0.2-1.6,1.6-1.8,2.5-1.7c0.2,0,0.3,0.1,0.4,0.1L462.1,106.5z M461.8,103.9
		c-0.6-0.1-1.4,0-1.6,1c-0.1,0.9,0.6,1.4,1.2,1.5L461.8,103.9z"/>
	<path class="st34" d="M465.2,98.9c0.1,0.2,0.2,0.8,0.1,1.4c-0.2,1.4-1.3,2.3-2.8,2.1c-1.5-0.2-2.4-1.4-2.2-2.9
		c0.1-0.5,0.3-1,0.4-1.2l0.6,0.3c-0.1,0.2-0.3,0.5-0.4,1c-0.1,1.1,0.6,1.8,1.6,1.9c1.1,0.2,1.9-0.5,2-1.4c0.1-0.5,0-0.8-0.1-1.1
		L465.2,98.9z"/>
	<path class="st34" d="M458.5,97l0.1-0.9l3,0.4l0,0c-0.2-0.2-0.4-0.4-0.5-0.7c-0.1-0.3-0.2-0.6-0.1-0.9c0.1-0.6,0.6-1.6,2.3-1.4
		l2.9,0.4l-0.1,0.9l-2.8-0.4c-0.8-0.1-1.5,0.1-1.6,0.9c-0.1,0.6,0.3,1.1,0.7,1.3c0.1,0.1,0.2,0.1,0.4,0.1l2.9,0.4l-0.1,0.9L458.5,97
		z"/>
	<path class="st34" d="M462.8,92c-0.5-0.1-0.9-0.1-1.3-0.1l0.1-0.8l0.8,0.1l0,0c-0.4-0.3-0.8-0.9-0.7-1.7c0.1-0.7,0.6-1.6,2.3-1.4
		l2.9,0.4l-0.1,0.9l-2.8-0.4c-0.8-0.1-1.5,0.1-1.6,0.9c-0.1,0.6,0.3,1.1,0.7,1.3c0.1,0.1,0.2,0.1,0.4,0.1l2.9,0.4l-0.1,0.9L462.8,92
		z"/>
	<path class="st34" d="M461,85.1c0.3,0,0.5,0.3,0.5,0.6c0,0.3-0.3,0.5-0.6,0.5c-0.3,0-0.5-0.3-0.5-0.6
		C460.4,85.3,460.7,85.1,461,85.1z M467,86.9l-4.8-0.6l0.1-0.9l4.8,0.6L467,86.9z"/>
	<path class="st34" d="M464.9,83.4L464.9,83.4c-0.1-0.2-0.3-0.4-0.5-0.5l-1.5-1.6l0.1-1l1.7,2.1l3.1-1.7l-0.1,1.1l-2.5,1.3l0.4,0.5
		l1.8,0.2l-0.1,0.9l-7-1l0.1-0.9L464.9,83.4z"/>
</g>
<g>
	<path class="st35" d="M507.5,243.9c-0.7-0.6-1.6-1.3-2.2-1.9l0,0c0.4,0.7,0.9,1.5,1.3,2.4l1.6,3.1l-0.4,0.5l-3.1-1.4
		c-0.9-0.4-1.7-0.8-2.5-1.2l0,0c0.6,0.6,1.4,1.4,2.1,2.1l2,2.1l-0.6,0.6l-4.6-4.9l0.8-0.8l3.2,1.4c0.8,0.4,1.5,0.7,2.1,1l0,0
		c-0.4-0.6-0.8-1.3-1.2-2.1l-1.6-3.1l0.8-0.8l5.2,4.3l-0.6,0.6L507.5,243.9z"/>
	<path class="st35" d="M512.4,239.3c1.3,1.2,1,2.7,0.3,3.5c-0.9,1-2.3,1.1-3.4,0c-1.2-1.1-1.2-2.5-0.3-3.5
		C510,238.3,511.3,238.3,512.4,239.3z M509.9,242.2c0.8,0.7,1.8,0.8,2.4,0.2c0.6-0.6,0.4-1.6-0.4-2.4c-0.6-0.6-1.6-1-2.3-0.2
		S509.2,241.5,509.9,242.2z"/>
	<path class="st35" d="M512.6,232.3l4.3,4c0.3,0.3,0.7,0.6,0.9,0.8l-0.5,0.6l-0.6-0.5l0,0c0.2,0.6,0.1,1.3-0.4,1.9
		c-0.8,0.9-2.1,0.9-3.2-0.1c-1.2-1.1-1.2-2.5-0.4-3.4c0.5-0.5,1.1-0.7,1.5-0.6l0,0l-2.1-2L512.6,232.3z M515.1,235.8
		c-0.1-0.1-0.2-0.2-0.3-0.2c-0.5-0.3-1.2-0.2-1.6,0.2c-0.6,0.7-0.4,1.6,0.4,2.3c0.7,0.7,1.6,0.9,2.3,0.2c0.4-0.4,0.5-1.1,0.1-1.7
		c-0.1-0.1-0.2-0.2-0.3-0.3L515.1,235.8z"/>
	<path class="st35" d="M520.6,232.1c0.4,0.3,0.7,0.6,1,0.9l-0.5,0.6l-0.6-0.5l0,0c0.1,0.4,0.2,1.2-0.4,1.8c-0.5,0.6-1.4,0.9-2.7-0.2
		l-2.1-1.9l0.6-0.6l2,1.8c0.7,0.6,1.3,0.8,1.9,0.2c0.4-0.4,0.4-1,0.2-1.4c-0.1-0.1-0.2-0.3-0.3-0.4l-2.2-2l0.6-0.6L520.6,232.1z"/>
	<path class="st35" d="M517.3,227.1l0.6-0.6l5.2,4.8l-0.6,0.6L517.3,227.1z"/>
	<path class="st35" d="M520.7,224.1c0.3-0.4,0.7-0.9,1.1-1.5c0.8-0.9,1.7-1.4,2.5-1.4c0.8-0.1,1.6,0.2,2.4,0.9
		c0.8,0.7,1.2,1.6,1.3,2.5c0,0.9-0.4,1.9-1.3,2.8c-0.4,0.5-0.8,0.8-1.1,1.1L520.7,224.1z M525.7,227.5c0.2-0.1,0.4-0.4,0.6-0.6
		c1.3-1.4,1.2-2.8-0.2-4c-1.2-1.1-2.5-1.1-3.8,0.2c-0.3,0.3-0.5,0.6-0.6,0.8L525.7,227.5z"/>
	<path class="st35" d="M531.3,223l-3.4-7l0.5-0.5l3.4,7L531.3,223z"/>
	<path class="st35" d="M530.3,213.5l0.6-0.6l4.4,4.1l1.9-2.1l0.5,0.5l-2.5,2.8L530.3,213.5z"/>
	<path class="st35" d="M539.9,211.3c0.3,0.3,0.6,0.5,0.9,0.7l-0.5,0.6l-0.5-0.4l0,0c0.1,0.5,0,1.1-0.5,1.6c-0.7,0.7-1.5,0.6-2,0.1
		c-0.9-0.8-0.6-2,0.6-3.4l-0.1-0.1c-0.3-0.3-0.9-0.7-1.6,0.1c-0.3,0.3-0.5,0.8-0.6,1.2l-0.6-0.2c0.1-0.5,0.3-1,0.8-1.5
		c1-1.1,2-0.7,2.7,0L539.9,211.3z M538.4,211.1c-0.7,0.7-1.3,1.6-0.6,2.2c0.4,0.4,0.9,0.3,1.2,0c0.4-0.5,0.4-1,0.2-1.4
		c0-0.1-0.1-0.2-0.2-0.2L538.4,211.1z"/>
	<path class="st35" d="M538.3,207.6l2.8,1.2c0.3,0.1,0.7,0.3,0.9,0.4l0,0c-0.2-0.3-0.4-0.6-0.5-0.9l-1.4-2.6l0.6-0.7l1.6,3.3
		c0.8,1.6,1.1,2.5,1.1,3.3c0,0.6-0.2,1-0.3,1.2l-0.7-0.3c0.1-0.2,0.2-0.5,0.2-0.9c0-0.3,0-0.8-0.2-1.2c0-0.1-0.1-0.2-0.1-0.2
		c0,0-0.1-0.1-0.2-0.1l-4.5-1.7L538.3,207.6z"/>
	<path class="st35" d="M546,202.9c1.3,1.2,1,2.7,0.3,3.5c-0.9,1-2.3,1.1-3.4,0c-1.2-1.1-1.2-2.5-0.3-3.5
		C543.5,201.9,544.9,201.9,546,202.9z M543.4,205.7c0.8,0.7,1.8,0.8,2.4,0.2c0.6-0.6,0.4-1.6-0.4-2.4c-0.6-0.6-1.6-1-2.3-0.2
		C542.3,204.1,542.7,205.1,543.4,205.7z"/>
	<path class="st35" d="M550.3,199.8c0.4,0.3,0.7,0.6,1,0.9l-0.5,0.6l-0.6-0.5l0,0c0.1,0.4,0.2,1.2-0.4,1.8c-0.5,0.6-1.4,0.9-2.7-0.2
		l-2.1-1.9l0.6-0.6l2,1.8c0.7,0.6,1.3,0.8,1.9,0.2c0.4-0.4,0.4-1,0.2-1.4c-0.1-0.1-0.2-0.3-0.3-0.4l-2.2-2l0.6-0.6L550.3,199.8z"/>
	<path class="st35" d="M548.6,194.8l0.9,0.8l0.9-0.9l0.5,0.5l-0.9,0.9l1.9,1.8c0.4,0.4,0.8,0.5,1.1,0.2c0.2-0.2,0.2-0.3,0.3-0.4
		l0.5,0.4c-0.1,0.2-0.2,0.4-0.4,0.7c-0.3,0.3-0.6,0.4-0.9,0.4c-0.4,0-0.7-0.2-1.2-0.6l-1.9-1.8l-0.5,0.6l-0.5-0.5l0.5-0.6l-0.7-0.6
		L548.6,194.8z"/>
	<path class="st35" d="M553.1,195.4c0.9,0.8,1.8,0.6,2.4-0.1c0.4-0.5,0.6-0.8,0.7-1.2l0.6,0.3c-0.1,0.3-0.3,0.8-0.9,1.4
		c-1,1.1-2.3,1.1-3.4,0.1c-1.1-1-1.3-2.4-0.4-3.4c1.1-1.2,2.4-0.5,3,0.1c0.1,0.1,0.2,0.2,0.3,0.3L553.1,195.4z M554.4,193.1
		c-0.4-0.4-1.2-0.8-1.9-0.1c-0.6,0.7-0.3,1.5,0.1,2L554.4,193.1z"/>
	<path class="st35" d="M555.3,191.2c-0.4-0.3-0.7-0.6-1-0.9l0.5-0.6l0.6,0.5l0,0c-0.2-0.5-0.1-1.2,0.4-1.8c0.5-0.5,1.5-1,2.7,0.1
		l2.1,2l-0.6,0.6l-2.1-1.9c-0.6-0.5-1.2-0.8-1.8-0.1c-0.4,0.4-0.4,1-0.1,1.5c0.1,0.1,0.2,0.2,0.3,0.3l2.1,2l-0.6,0.6L555.3,191.2z"
		/>
</g>
<g>
	<path class="st36" d="M534.9,275.3c-0.6-0.7-1.3-1.6-1.8-2.3l0,0c0.3,0.8,0.6,1.6,0.8,2.6l1,3.3l-0.5,0.4l-2.8-1.9
		c-0.8-0.6-1.6-1.1-2.2-1.6l0,0c0.5,0.7,1.1,1.6,1.7,2.5l1.6,2.4l-0.7,0.5l-3.6-5.7l0.9-0.7l2.9,1.9c0.7,0.5,1.3,1,1.9,1.4l0,0
		c-0.3-0.6-0.5-1.4-0.8-2.2l-1-3.3l0.9-0.7l4.4,5.2l-0.7,0.5L534.9,275.3z"/>
	<path class="st36" d="M540.6,271.7c1.1,1.4,0.5,2.8-0.4,3.5c-1,0.8-2.4,0.6-3.3-0.6c-1-1.3-0.7-2.7,0.4-3.5
		C538.4,270.2,539.8,270.5,540.6,271.7z M537.6,274c0.6,0.9,1.6,1.1,2.3,0.6c0.7-0.5,0.7-1.5,0.1-2.4c-0.5-0.7-1.4-1.2-2.3-0.6
		C536.8,272.2,537,273.3,537.6,274z"/>
	<path class="st36" d="M542.1,264.8l3.5,4.7c0.3,0.3,0.6,0.7,0.8,1l-0.6,0.5l-0.5-0.6l0,0c0.1,0.6-0.1,1.3-0.8,1.7
		c-0.9,0.7-2.2,0.4-3.1-0.7c-1-1.3-0.8-2.7,0.2-3.4c0.6-0.4,1.2-0.5,1.6-0.3l0,0l-1.7-2.3L542.1,264.8z M543.9,268.7
		c-0.1-0.1-0.2-0.2-0.3-0.3c-0.4-0.4-1.1-0.5-1.6-0.1c-0.7,0.5-0.7,1.5,0,2.4c0.6,0.8,1.5,1.1,2.2,0.6c0.5-0.4,0.7-1,0.4-1.6
		c0-0.1-0.1-0.2-0.2-0.3L543.9,268.7z"/>
	<path class="st36" d="M550,266.1c0.3,0.4,0.6,0.7,0.8,1l-0.6,0.5l-0.5-0.6l0,0c0,0.4-0.1,1.2-0.7,1.7c-0.6,0.5-1.6,0.7-2.6-0.7
		l-1.7-2.3l0.7-0.5l1.6,2.1c0.5,0.7,1.1,1.1,1.8,0.6c0.5-0.4,0.6-0.9,0.5-1.3c0-0.1-0.1-0.3-0.2-0.4l-1.8-2.4l0.7-0.5L550,266.1z"/>
	<path class="st36" d="M547.7,260.6l0.7-0.5l4.2,5.7l-0.7,0.5L547.7,260.6z"/>
	<path class="st36" d="M556.5,259l-2.1,1.6l1.5,1.9l2.3-1.7l0.4,0.6l-3,2.3l-4-5.4l2.9-2.2l0.4,0.6l-2.2,1.7l1.3,1.7l2.1-1.6
		L556.5,259z"/>
	<path class="st36" d="M560.8,260.2l-2.1-7.5l0.5-0.4l2.1,7.5L560.8,260.2z"/>
	<path class="st36" d="M561.6,250.7l0.7-0.5l1.9,2.6l0,0c0-0.3,0-0.6,0-0.9l0.1-3.3l0.9-0.6l-0.2,3.7l4.4,1.5l-0.8,0.6l-3.8-1.3
		l-0.1,1l1.5,2.1l-0.7,0.5L561.6,250.7z"/>
	<path class="st36" d="M572,248.3c1.1,1.4,0.5,2.8-0.4,3.5c-1.1,0.8-2.4,0.6-3.3-0.6c-1-1.3-0.7-2.7,0.4-3.5
		C569.8,246.8,571.1,247.1,572,248.3z M569,250.6c0.6,0.9,1.6,1.1,2.3,0.6c0.7-0.5,0.7-1.5,0.1-2.4c-0.5-0.7-1.4-1.2-2.3-0.6
		C568.2,248.8,568.4,249.9,569,250.6z"/>
	<path class="st36" d="M572.3,246.8c-0.3-0.4-0.6-0.7-0.8-1l0.6-0.5l0.5,0.6l0,0c-0.1-0.5,0.1-1.2,0.7-1.7c0.5-0.4,1.6-0.7,2.6,0.6
		l1.7,2.3l-0.7,0.5l-1.7-2.2c-0.5-0.6-1.1-1-1.8-0.5c-0.5,0.3-0.6,0.9-0.4,1.4c0,0.1,0.1,0.2,0.2,0.4l1.7,2.3l-0.7,0.5L572.3,246.8z
		"/>
	<path class="st36" d="M578.1,246.2l0.1-3.6c0-0.3,0-0.6,0.1-1l0,0l-2.1,1.6l-0.4-0.6l3-2.2l0.3,0.4l-0.1,3.5c0,0.3,0,0.6,0,1l0,0
		l2.3-1.7l0.4,0.6l-3.2,2.3L578.1,246.2z"/>
	<path class="st36" d="M581.3,241.7c0.7,0.9,1.6,0.9,2.3,0.4c0.5-0.4,0.7-0.7,0.9-1l0.5,0.4c-0.2,0.3-0.5,0.8-1.1,1.2
		c-1.2,0.9-2.5,0.6-3.4-0.5c-0.9-1.2-0.9-2.6,0.3-3.4c1.3-0.9,2.4-0.1,3,0.6c0.1,0.1,0.2,0.3,0.2,0.3L581.3,241.7z M582.9,239.6
		c-0.3-0.5-1-1-1.8-0.4c-0.7,0.5-0.5,1.4-0.2,2L582.9,239.6z"/>
	<path class="st36" d="M584.3,238.2c-0.4-0.5-0.7-0.9-1-1.2l0.6-0.5l0.5,0.6l0,0c-0.1-0.7,0.2-1.3,0.8-1.8c0.9-0.7,2.2-0.4,3.1,0.7
		c1,1.4,0.7,2.7-0.2,3.4c-0.5,0.4-1.1,0.5-1.6,0.3l0,0l1.6,2.1l-0.7,0.5L584.3,238.2z M585.7,238.7c0.1,0.1,0.2,0.2,0.2,0.3
		c0.5,0.4,1.2,0.4,1.7,0c0.7-0.6,0.7-1.5,0.1-2.4c-0.6-0.8-1.5-1.1-2.2-0.6c-0.5,0.4-0.7,1-0.4,1.7c0,0.1,0.1,0.2,0.2,0.3
		L585.7,238.7z"/>
	<path class="st36" d="M588.1,231.9l0.7,0.9l1-0.8l0.4,0.5l-1,0.8l1.6,2.1c0.4,0.5,0.7,0.7,1.1,0.4c0.2-0.1,0.3-0.2,0.4-0.4l0.4,0.5
		c-0.1,0.2-0.3,0.4-0.5,0.6c-0.3,0.2-0.7,0.3-1,0.3c-0.4-0.1-0.7-0.3-1-0.8l-1.6-2.1l-0.6,0.4l-0.4-0.5l0.6-0.4l-0.5-0.7
		L588.1,231.9z"/>
	<path class="st36" d="M590.5,229.8c0.2,0.2,0.2,0.6-0.1,0.8c-0.2,0.2-0.6,0.1-0.7-0.1c-0.2-0.2-0.1-0.6,0.1-0.8
		C590,229.5,590.3,229.6,590.5,229.8z M593.4,235.4l-2.9-3.9l0.7-0.5l2.9,3.9L593.4,235.4z"/>
	<path class="st36" d="M597.4,229.4c1.1,1.4,0.5,2.8-0.4,3.5c-1,0.8-2.4,0.6-3.3-0.6c-1-1.3-0.7-2.7,0.4-3.5
		C595.1,228,596.5,228.2,597.4,229.4z M594.3,231.7c0.6,0.9,1.6,1.1,2.3,0.6c0.7-0.5,0.7-1.5,0.1-2.4c-0.5-0.7-1.4-1.2-2.3-0.6
		C593.6,230,593.8,231,594.3,231.7z"/>
	<path class="st36" d="M597.6,227.9c-0.3-0.4-0.6-0.7-0.8-1l0.6-0.5l0.5,0.6l0,0c-0.1-0.5,0.1-1.2,0.7-1.7c0.5-0.4,1.6-0.7,2.6,0.6
		l1.7,2.3l-0.7,0.5l-1.7-2.2c-0.5-0.6-1.1-1-1.8-0.5c-0.5,0.3-0.6,0.9-0.4,1.4c0,0.1,0.1,0.2,0.2,0.4l1.7,2.3l-0.7,0.5L597.6,227.9z
		"/>
	<path class="st36" d="M608.3,222.7c0.3,0.4,0.6,0.7,0.8,1l-0.6,0.5l-0.5-0.6l0,0c0,0.4-0.1,1.2-0.7,1.7c-0.6,0.5-1.6,0.7-2.6-0.7
		l-1.7-2.3l0.7-0.5l1.6,2.1c0.5,0.7,1.1,1.1,1.8,0.6c0.5-0.4,0.6-0.9,0.5-1.3c0-0.1-0.1-0.3-0.2-0.4l-1.8-2.4l0.7-0.5L608.3,222.7z"
		/>
	<path class="st36" d="M608.2,220c-0.3-0.4-0.6-0.7-0.8-1l0.6-0.5l0.5,0.6l0,0c-0.1-0.5,0.1-1.2,0.7-1.7c0.5-0.4,1.6-0.7,2.6,0.6
		l1.7,2.3l-0.7,0.5l-1.7-2.2c-0.5-0.6-1.1-1-1.8-0.5c-0.5,0.3-0.6,0.9-0.4,1.4c0,0.1,0.1,0.2,0.2,0.4l1.7,2.3l-0.7,0.5L608.2,220z"
		/>
	<path class="st36" d="M613.9,211.3l3.5,4.7c0.3,0.3,0.6,0.7,0.8,1l-0.6,0.5l-0.5-0.6l0,0c0.1,0.6-0.1,1.3-0.8,1.7
		c-0.9,0.7-2.2,0.4-3.1-0.7c-1-1.3-0.8-2.7,0.2-3.4c0.6-0.4,1.2-0.5,1.6-0.3l0,0l-1.7-2.3L613.9,211.3z M615.7,215.3
		c-0.1-0.1-0.2-0.2-0.3-0.3c-0.4-0.4-1.1-0.5-1.6-0.1c-0.7,0.5-0.7,1.5,0,2.4c0.6,0.8,1.5,1.1,2.2,0.6c0.5-0.4,0.7-1,0.4-1.6
		c0-0.1-0.1-0.2-0.2-0.3L615.7,215.3z"/>
	<path class="st36" d="M621.9,214.2l-5.8-4.1l0.8-0.6l2.8,2c0.8,0.6,1.5,1.1,2.1,1.6l0,0c-0.3-0.7-0.6-1.6-0.9-2.5l-1.1-3.3l0.7-0.6
		l2.1,6.8L621.9,214.2z"/>
	<path class="st36" d="M622.1,206.3c0.2,0.2,0.2,0.6-0.1,0.8c-0.2,0.2-0.6,0.1-0.7-0.1c-0.2-0.2-0.1-0.6,0.1-0.8
		C621.6,206,621.9,206.1,622.1,206.3z M625,211.9l-2.9-3.9l0.7-0.5l2.9,3.9L625,211.9z"/>
	<path class="st36" d="M626.3,209.8c0.3,0,0.8-0.1,1.1-0.4c0.5-0.4,0.6-0.8,0.3-1.1c-0.3-0.3-0.6-0.4-1.3-0.2
		c-0.9,0.3-1.5,0.1-1.8-0.3c-0.5-0.6-0.3-1.5,0.5-2.1c0.4-0.3,0.8-0.4,1.1-0.5l0.2,0.6c-0.2,0-0.6,0.1-1,0.4c-0.4,0.3-0.5,0.7-0.3,1
		c0.2,0.3,0.6,0.3,1.2,0.1c0.9-0.2,1.5-0.2,1.9,0.4c0.5,0.7,0.3,1.6-0.6,2.3c-0.4,0.3-0.9,0.5-1.3,0.5L626.3,209.8z"/>
	<path class="st36" d="M632.5,204.6c0.3,0.4,0.6,0.7,0.8,1l-0.6,0.5l-0.5-0.6l0,0c0,0.4-0.1,1.2-0.7,1.7c-0.6,0.5-1.6,0.7-2.6-0.7
		l-1.7-2.3l0.7-0.5l1.6,2.1c0.5,0.7,1.1,1.1,1.8,0.6c0.5-0.4,0.6-0.9,0.5-1.3c0-0.1-0.1-0.3-0.2-0.4l-1.8-2.4l0.7-0.5L632.5,204.6z"
		/>
	<path class="st36" d="M636.5,201.8c0.3,0.3,0.5,0.7,0.8,0.9l-0.6,0.5l-0.4-0.4l0,0c0,0.5-0.2,1-0.8,1.5c-0.8,0.6-1.6,0.3-2-0.2
		c-0.7-0.9-0.2-2.1,1.3-3.2l-0.1-0.1c-0.2-0.3-0.8-0.8-1.6-0.2c-0.4,0.3-0.7,0.7-0.8,1l-0.5-0.3c0.2-0.4,0.5-0.9,1-1.3
		c1.2-0.9,2.1-0.3,2.7,0.5L636.5,201.8z M635.1,201.3c-0.8,0.6-1.6,1.3-1,2.1c0.3,0.5,0.8,0.4,1.2,0.2c0.5-0.4,0.6-0.9,0.5-1.3
		c0-0.1-0.1-0.2-0.1-0.3L635.1,201.3z"/>
	<path class="st36" d="M634.1,196.2l0.7-0.5l4.2,5.7l-0.7,0.5L634.1,196.2z"/>
	<path class="st36" d="M637.3,195c0.2,0.2,0.2,0.6-0.1,0.8c-0.2,0.2-0.6,0.1-0.7-0.1c-0.2-0.2-0.1-0.6,0.1-0.8
		C636.8,194.7,637.2,194.7,637.3,195z M640.3,200.5l-2.9-3.9l0.7-0.5l2.9,3.9L640.3,200.5z"/>
	<path class="st36" d="M641.5,198.5c0.3,0,0.8-0.1,1.1-0.4c0.5-0.4,0.6-0.8,0.3-1.1c-0.3-0.3-0.6-0.4-1.3-0.2
		c-0.9,0.3-1.5,0.1-1.8-0.3c-0.5-0.6-0.3-1.5,0.5-2.1c0.4-0.3,0.8-0.4,1.1-0.5l0.2,0.6c-0.2,0-0.6,0.1-1,0.4c-0.4,0.3-0.5,0.7-0.3,1
		c0.2,0.3,0.6,0.3,1.2,0.1c0.9-0.2,1.5-0.2,1.9,0.4c0.5,0.7,0.3,1.6-0.6,2.3c-0.4,0.3-0.9,0.5-1.3,0.5L641.5,198.5z"/>
	<path class="st36" d="M642.4,191.2c0.2,0.2,0.2,0.6-0.1,0.8c-0.2,0.2-0.6,0.1-0.7-0.1c-0.2-0.2-0.1-0.6,0.1-0.8
		C641.9,190.9,642.2,191,642.4,191.2z M645.3,196.8l-2.9-3.9l0.7-0.5l2.9,3.9L645.3,196.8z"/>
	<path class="st36" d="M646.2,193.3c0.7,0.9,1.6,0.9,2.3,0.4c0.5-0.4,0.7-0.7,0.9-1l0.5,0.4c-0.2,0.3-0.5,0.7-1.1,1.2
		c-1.2,0.9-2.5,0.6-3.4-0.5c-0.9-1.2-0.9-2.6,0.3-3.4c1.3-0.9,2.4-0.1,3,0.6c0.1,0.1,0.2,0.3,0.2,0.3L646.2,193.3z M647.9,191.2
		c-0.3-0.5-1-1-1.8-0.4c-0.7,0.5-0.5,1.4-0.2,2L647.9,191.2z"/>
	<path class="st36" d="M649.2,189.7c-0.3-0.5-0.6-0.8-0.9-1.2l0.6-0.5l0.6,0.7l0,0c-0.2-0.7,0-1.3,0.4-1.6c0.1-0.1,0.1-0.1,0.2-0.1
		l0.5,0.7c-0.1,0-0.2,0.1-0.3,0.2c-0.5,0.4-0.6,1-0.3,1.6c0.1,0.1,0.1,0.2,0.2,0.4l1.5,2.1l-0.7,0.5L649.2,189.7z"/>
	<path class="st36" d="M656.3,186.9c0.3,0.4,0.6,0.7,0.8,1l-0.6,0.5l-0.5-0.6l0,0c0,0.4-0.1,1.2-0.7,1.7c-0.6,0.5-1.6,0.7-2.6-0.7
		l-1.7-2.3l0.7-0.5l1.6,2.1c0.5,0.7,1.1,1.1,1.8,0.6c0.5-0.4,0.6-0.9,0.5-1.3c0-0.1-0.1-0.3-0.2-0.4l-1.8-2.4l0.7-0.5L656.3,186.9z"
		/>
	<path class="st36" d="M656.1,184.3c-0.3-0.4-0.6-0.7-0.8-1l0.6-0.5l0.5,0.6l0,0c-0.1-0.5,0.1-1.2,0.7-1.7c0.5-0.4,1.6-0.7,2.6,0.6
		l1.7,2.3l-0.7,0.5l-1.7-2.2c-0.5-0.6-1.1-1-1.8-0.5c-0.5,0.3-0.6,0.9-0.4,1.4c0,0.1,0.1,0.2,0.2,0.4l1.7,2.3l-0.7,0.5L656.1,184.3z
		"/>
	<path class="st36" d="M665.6,180.8c0.7,0.9,0.9,1.6,0.8,2.2c-0.1,0.6-0.6,1.2-1.1,1.5c-0.5,0.3-1.1,0.6-1.5,0.6l-0.2-0.7
		c0.4,0,0.9-0.2,1.4-0.5c0.7-0.5,1-1.3,0.2-2.3l-0.3-0.4l0,0c0.1,0.5-0.1,1.1-0.8,1.6c-1,0.7-2.3,0.4-3.1-0.7
		c-1-1.3-0.7-2.7,0.2-3.4c0.7-0.5,1.3-0.4,1.7-0.2l0,0l-0.4-0.6l0.6-0.5c0.2,0.3,0.4,0.6,0.8,1.1L665.6,180.8z M663.6,179.5
		c-0.1-0.1-0.2-0.2-0.3-0.3c-0.4-0.3-1-0.4-1.5,0c-0.7,0.5-0.7,1.4-0.1,2.3c0.6,0.8,1.4,1.1,2.2,0.5c0.4-0.3,0.6-0.9,0.4-1.5
		c0-0.1-0.1-0.3-0.2-0.4L663.6,179.5z"/>
</g>
<g>
	<path class="st37" d="M560.9,323.3c-0.3-0.9-0.7-1.9-1-2.7l0,0c0,0.8,0,1.7-0.1,2.7l-0.2,3.5l-0.6,0.2l-2-2.7
		c-0.6-0.8-1.1-1.6-1.5-2.3l0,0c0.2,0.8,0.5,1.9,0.8,2.9l0.7,2.8l-0.8,0.2l-1.5-6.6l1.1-0.3l2.1,2.8c0.5,0.7,1,1.3,1.3,2l0,0
		c0-0.7,0-1.5,0-2.4l0.2-3.5l1.1-0.3l2.4,6.3l-0.8,0.3L560.9,323.3z"/>
	<path class="st37" d="M567.5,321.7c0.5,1.7-0.4,2.8-1.5,3.2c-1.3,0.4-2.5-0.2-3-1.7c-0.5-1.5,0.3-2.8,1.5-3.2
		C565.9,319.6,567.1,320.3,567.5,321.7z M563.9,322.9c0.3,1,1.1,1.6,2,1.3c0.8-0.2,1.2-1.2,0.8-2.2c-0.2-0.8-0.9-1.7-1.9-1.3
		C563.7,321,563.6,322.1,563.9,322.9z"/>
	<path class="st37" d="M571.2,315.8l1.7,5.6c0.1,0.4,0.3,0.9,0.4,1.2l-0.8,0.2l-0.3-0.8l0,0c-0.1,0.6-0.5,1.2-1.3,1.4
		c-1.1,0.3-2.3-0.3-2.7-1.7c-0.5-1.5,0.2-2.8,1.3-3.1c0.7-0.2,1.3,0,1.6,0.3l0,0l-0.9-2.8L571.2,315.8z M571.6,320.1
		c0-0.1-0.1-0.2-0.1-0.3c-0.3-0.5-0.9-0.8-1.5-0.6c-0.9,0.3-1.1,1.2-0.8,2.2c0.3,0.9,1,1.6,1.9,1.3c0.6-0.2,1-0.7,0.9-1.4
		c0-0.1,0-0.2-0.1-0.4L571.6,320.1z"/>
	<path class="st37" d="M578.2,319.6c0.1,0.5,0.3,0.9,0.4,1.2l-0.7,0.2l-0.3-0.7l0,0c-0.1,0.4-0.4,1.1-1.3,1.3
		c-0.7,0.2-1.7,0.1-2.2-1.5l-0.8-2.7l0.8-0.3l0.8,2.6c0.3,0.9,0.7,1.4,1.5,1.2c0.6-0.2,0.8-0.7,0.9-1.1c0-0.1,0-0.3-0.1-0.5
		l-0.9-2.8l0.8-0.3L578.2,319.6z"/>
	<path class="st37" d="M577.9,313.7l0.8-0.3l2.1,6.8l-0.8,0.3L577.9,313.7z"/>
	<path class="st37" d="M582.3,312.7l3.5-1.1l0.2,0.7l-2.6,0.8l0.7,2.1l2.4-0.8l0.2,0.7l-2.4,0.8l0.9,2.9l-0.8,0.3L582.3,312.7z"/>
	<path class="st37" d="M590.3,317.7l0.5-7.7l0.6-0.2l-0.5,7.7L590.3,317.7z"/>
	<path class="st37" d="M594.3,309.1c0.5-0.2,1.1-0.5,1.7-0.7c1.2-0.4,2.1-0.4,2.9,0c0.7,0.3,1.3,1,1.6,2c0.3,1,0.3,2-0.2,2.8
		c-0.4,0.8-1.3,1.4-2.6,1.8c-0.6,0.2-1.1,0.3-1.5,0.4L594.3,309.1z M596.9,314.5c0.2,0,0.5-0.1,0.9-0.2c1.8-0.5,2.4-1.8,1.9-3.6
		c-0.5-1.5-1.6-2.2-3.4-1.7c-0.4,0.1-0.7,0.3-0.9,0.4L596.9,314.5z"/>
	<path class="st37" d="M601.6,310.3c-0.2-0.5-0.3-1-0.5-1.4l0.7-0.2l0.3,0.9l0,0c0-0.7,0.4-1.2,1-1.4c0.1,0,0.2,0,0.2,0l0.2,0.8
		c-0.1,0-0.2,0-0.3,0.1c-0.6,0.2-0.9,0.8-0.8,1.4c0,0.1,0,0.3,0.1,0.4l0.8,2.5l-0.8,0.3L601.6,310.3z"/>
	<path class="st37" d="M609.2,310.1c0.1,0.5,0.3,0.9,0.4,1.2l-0.7,0.2l-0.3-0.7l0,0c-0.1,0.4-0.4,1.1-1.3,1.3
		c-0.7,0.2-1.7,0.1-2.2-1.5l-0.8-2.7l0.8-0.3l0.8,2.6c0.3,0.9,0.7,1.4,1.5,1.2c0.6-0.2,0.8-0.7,0.9-1.1c0-0.1,0-0.3-0.1-0.5
		l-0.9-2.8l0.8-0.3L609.2,310.1z"/>
	<path class="st37" d="M614.2,309.7c-0.2,0.2-0.6,0.5-1.2,0.7c-1.4,0.4-2.6-0.2-3-1.7c-0.4-1.4,0.2-2.8,1.7-3.2
		c0.5-0.2,1-0.2,1.2-0.1l0,0.7c-0.2-0.1-0.6-0.1-1,0.1c-1.1,0.3-1.4,1.3-1.1,2.3c0.3,1.1,1.2,1.5,2.1,1.2c0.5-0.1,0.8-0.4,1-0.5
		L614.2,309.7z"/>
	<path class="st37" d="M615.3,306.8L615.3,306.8c0.1-0.2,0.2-0.5,0.3-0.7l0.9-2l1-0.3l-1.2,2.5l2.9,2.1l-1,0.3l-2.3-1.7l-0.3,0.6
		l0.5,1.7l-0.8,0.3l-2.1-6.8l0.8-0.3L615.3,306.8z"/>
	<path class="st37" d="M618.7,303.4l1.7,2.3c0.3,0.4,0.5,0.7,0.7,1.1l0,0c0-0.4,0-0.8,0-1.3l0.1-2.9l0.9-0.3l-0.4,5.2l-0.8,0.2
		l-3.2-4.1L618.7,303.4z"/>
	<path class="st37" d="M627.8,303.1c0.5,1.7-0.4,2.8-1.5,3.2c-1.3,0.4-2.5-0.2-3-1.7c-0.5-1.5,0.3-2.8,1.5-3.2
		C626.2,301,627.4,301.7,627.8,303.1z M624.2,304.3c0.3,1,1.1,1.6,2,1.3c0.8-0.2,1.2-1.2,0.8-2.2c-0.2-0.8-0.9-1.7-1.9-1.3
		C624,302.4,623.9,303.4,624.2,304.3z"/>
	<path class="st37" d="M628.6,301.9c-0.2-0.5-0.3-1-0.5-1.4l0.7-0.2l0.3,0.9l0,0c0-0.7,0.4-1.2,1-1.4c0.1,0,0.2,0,0.2,0l0.2,0.8
		c-0.1,0-0.2,0-0.3,0.1c-0.6,0.2-0.9,0.8-0.8,1.4c0,0.1,0,0.3,0.1,0.4l0.8,2.5l-0.8,0.3L628.6,301.9z"/>
	<path class="st37" d="M632.3,303.3c0.3,0.1,0.8,0.1,1.2,0c0.6-0.2,0.8-0.6,0.7-1c-0.1-0.4-0.4-0.5-1.1-0.6c-0.9,0-1.5-0.4-1.6-0.9
		c-0.2-0.7,0.2-1.5,1.2-1.8c0.5-0.1,0.9-0.1,1.2-0.1l0,0.7c-0.2-0.1-0.6-0.1-1,0c-0.5,0.2-0.7,0.5-0.6,0.9c0.1,0.4,0.4,0.5,1.1,0.5
		c0.9,0.1,1.4,0.3,1.6,1c0.3,0.8-0.2,1.6-1.3,1.9c-0.5,0.2-1,0.2-1.4,0.1L632.3,303.3z"/>
	<path class="st37" d="M635.7,297l0.3,1.1l1.2-0.4l0.2,0.6l-1.2,0.4l0.8,2.5c0.2,0.6,0.4,0.8,0.9,0.7c0.2-0.1,0.4-0.1,0.5-0.2
		l0.2,0.6c-0.1,0.1-0.4,0.3-0.7,0.4c-0.4,0.1-0.7,0.1-1-0.1c-0.3-0.2-0.5-0.6-0.7-1.1l-0.8-2.5l-0.7,0.2l-0.2-0.6l0.7-0.2l-0.3-0.9
		L635.7,297z"/>
	<path class="st37" d="M643.1,299.6c0.1,0.5,0.3,0.9,0.4,1.2l-0.7,0.2l-0.3-0.7l0,0c-0.1,0.4-0.4,1.1-1.3,1.3
		c-0.7,0.2-1.7,0.1-2.2-1.5l-0.8-2.7l0.8-0.3l0.8,2.6c0.3,0.9,0.7,1.4,1.5,1.2c0.6-0.2,0.8-0.7,0.9-1.1c0-0.1,0-0.3-0.1-0.5
		l-0.9-2.8l0.8-0.3L643.1,299.6z"/>
	<path class="st37" d="M645,300.4l-1.2-4l-0.6,0.2l-0.2-0.6l0.6-0.2l-0.1-0.2c-0.2-0.6-0.2-1.3,0-1.8c0.2-0.4,0.6-0.7,1-0.8
		c0.3-0.1,0.6-0.1,0.8-0.1l0.1,0.7c-0.1,0-0.3,0-0.6,0.1c-0.7,0.2-0.7,0.9-0.5,1.6l0.1,0.2l1.1-0.3l0.2,0.6l-1.1,0.3l1.2,4
		L645,300.4z"/>
	<path class="st37" d="M647.4,297.3c0.4,1.1,1.2,1.4,2.1,1.1c0.6-0.2,0.9-0.4,1.2-0.6l0.3,0.6c-0.3,0.2-0.7,0.5-1.4,0.8
		c-1.4,0.4-2.6-0.2-3-1.6c-0.4-1.4,0.1-2.7,1.4-3.2c1.5-0.5,2.3,0.7,2.6,1.6c0.1,0.2,0.1,0.3,0.1,0.4L647.4,297.3z M649.7,295.9
		c-0.2-0.5-0.6-1.3-1.6-1c-0.9,0.3-1,1.2-0.9,1.8L649.7,295.9z"/>
</g>
<g>
	<path class="st38" d="M561.6,376.6c0.2,2.3-1.1,3.7-2.8,3.8c-1.8,0.1-3.1-1.1-3.3-3.2c-0.2-2.1,1-3.6,2.8-3.8
		C560.1,373.3,561.4,374.6,561.6,376.6z M556.4,377.1c0.1,1.4,1,2.7,2.4,2.5c1.4-0.1,2-1.4,1.9-3c-0.1-1.3-0.9-2.7-2.4-2.6
		C556.9,374.2,556.3,375.6,556.4,377.1z"/>
	<path class="st38" d="M562.4,372.8l0.9-0.1l0.2,3l0,0c0.1-0.3,0.3-0.5,0.6-0.7c0.2-0.2,0.5-0.3,0.9-0.3c0.6-0.1,1.7,0.3,1.9,1.9
		l0.2,2.9l-0.9,0.1l-0.2-2.8c-0.1-0.8-0.4-1.4-1.2-1.3c-0.6,0-1,0.5-1.1,1c0,0.1,0,0.3,0,0.4l0.2,2.9l-0.9,0.1L562.4,372.8z"/>
	<path class="st38" d="M568.2,375.9c0-0.5-0.1-0.9-0.1-1.3l0.8-0.1l0.1,0.8l0,0c0.2-0.5,0.7-1,1.5-1c0.7-0.1,1.7,0.3,1.9,1.9
		l0.2,2.9l-0.9,0.1l-0.2-2.8c-0.1-0.8-0.4-1.4-1.2-1.3c-0.6,0-1,0.5-1.1,1c0,0.1,0,0.3,0,0.4l0.2,2.9l-0.9,0.1L568.2,375.9z"/>
	<path class="st38" d="M574.3,376.7c0.1,1.2,0.9,1.6,1.8,1.5c0.6-0.1,1-0.2,1.3-0.4l0.2,0.6c-0.3,0.2-0.8,0.4-1.6,0.4
		c-1.5,0.1-2.5-0.8-2.6-2.2c-0.1-1.5,0.6-2.7,2-2.8c1.6-0.1,2.1,1.2,2.2,2.1c0,0.2,0,0.3,0,0.4L574.3,376.7z M576.9,375.8
		c0-0.6-0.3-1.4-1.3-1.3c-0.9,0.1-1.2,0.9-1.2,1.5L576.9,375.8z"/>
	<path class="st38" d="M586.6,375c-0.1-0.9-0.3-2.1-0.3-2.9l0,0c-0.2,0.8-0.4,1.7-0.6,2.6l-0.9,3.4l-0.7,0.1l-1.3-3.1
		c-0.4-0.9-0.7-1.8-1-2.5l0,0c0,0.8,0.1,2,0.1,3l0.1,2.9l-0.8,0.1l-0.1-6.8l1.1-0.1l1.4,3.2c0.3,0.8,0.6,1.5,0.9,2.2l0,0
		c0.1-0.7,0.3-1.4,0.5-2.3l0.9-3.3l1.1-0.1l1,6.7l-0.8,0.1L586.6,375z"/>
	<path class="st38" d="M593.4,374.9c0.1,1.8-1,2.7-2.2,2.8c-1.3,0.1-2.4-0.8-2.5-2.3c-0.1-1.6,0.8-2.6,2.2-2.8
		C592.2,372.5,593.3,373.4,593.4,374.9z M589.6,375.3c0.1,1.1,0.8,1.8,1.6,1.7c0.8-0.1,1.4-0.9,1.3-2c-0.1-0.8-0.6-1.8-1.6-1.7
		C589.8,373.4,589.5,374.4,589.6,375.3z"/>
	<path class="st38" d="M598.3,369.9l0.5,5.8c0,0.4,0.1,0.9,0.1,1.2l-0.8,0.1l-0.1-0.8l0,0c-0.2,0.6-0.8,1-1.6,1.1
		c-1.2,0.1-2.1-0.8-2.3-2.3c-0.1-1.6,0.8-2.7,1.9-2.8c0.7-0.1,1.3,0.2,1.5,0.6l0,0l-0.2-2.9L598.3,369.9z M597.7,374.1
		c0-0.1,0-0.3-0.1-0.4c-0.2-0.5-0.7-1-1.3-0.9c-0.9,0.1-1.4,0.9-1.3,2c0.1,1,0.6,1.7,1.6,1.7c0.6,0,1.1-0.5,1.2-1.2
		c0-0.1,0-0.2,0-0.4L597.7,374.1z"/>
	<path class="st38" d="M604.2,375.2c0,0.5,0.1,0.9,0.1,1.3l-0.8,0.1l-0.1-0.8l0,0c-0.2,0.4-0.7,1-1.5,1c-0.8,0.1-1.7-0.3-1.8-2
		l-0.2-2.8l0.9-0.1l0.2,2.7c0.1,0.9,0.4,1.5,1.2,1.4c0.6,0,1-0.5,1.1-0.9c0-0.1,0.1-0.3,0-0.5l-0.2-3l0.9-0.1L604.2,375.2z"/>
	<path class="st38" d="M605.2,369.3l0.9-0.1l0.6,7.1l-0.9,0.1L605.2,369.3z"/>
	<path class="st38" d="M609.6,376.5l2.2-7.5l0.7-0.1l-2.2,7.5L609.6,376.5z"/>
	<path class="st38" d="M616.1,368.8l0.6,6.7l-0.9,0.1l-0.6-6.7L616.1,368.8z"/>
	<path class="st38" d="M618,371.8c0-0.5-0.1-0.9-0.1-1.3l0.8-0.1l0.1,0.8l0,0c0.2-0.5,0.7-1,1.5-1c0.7-0.1,1.7,0.3,1.9,1.9l0.2,2.9
		l-0.9,0.1l-0.2-2.8c-0.1-0.8-0.4-1.4-1.2-1.3c-0.6,0-1,0.5-1.1,1c0,0.1,0,0.3,0,0.4l0.2,2.9l-0.9,0.1L618,371.8z"/>
	<path class="st38" d="M624.3,368.8l0.1,1.2l1.3-0.1l0.1,0.7l-1.3,0.1l0.2,2.6c0,0.6,0.2,0.9,0.7,0.9c0.2,0,0.4-0.1,0.5-0.1l0.1,0.7
		c-0.2,0.1-0.4,0.2-0.8,0.2c-0.4,0-0.7-0.1-1-0.3c-0.3-0.2-0.4-0.7-0.4-1.2l-0.2-2.6l-0.7,0.1l-0.1-0.7l0.7-0.1l-0.1-0.9
		L624.3,368.8z"/>
	<path class="st38" d="M627.3,372.3c0.1,1.2,0.9,1.6,1.8,1.5c0.6-0.1,1-0.2,1.3-0.4l0.2,0.6c-0.3,0.2-0.8,0.4-1.6,0.4
		c-1.5,0.1-2.5-0.8-2.6-2.2c-0.1-1.5,0.6-2.7,2-2.8c1.6-0.1,2.1,1.2,2.2,2.1c0,0.2,0,0.3,0,0.4L627.3,372.3z M629.8,371.5
		c0-0.6-0.3-1.4-1.3-1.3c-0.9,0.1-1.2,0.9-1.2,1.5L629.8,371.5z"/>
	<path class="st38" d="M631.7,370.9c0-0.6-0.1-1.1-0.2-1.5l0.8-0.1l0.1,0.9l0,0c0.2-0.7,0.7-1.1,1.2-1.2c0.1,0,0.2,0,0.3,0l0.1,0.8
		c-0.1,0-0.2,0-0.3,0c-0.6,0.1-1,0.6-1.1,1.2c0,0.1,0,0.3,0,0.4l0.2,2.6l-0.9,0.1L631.7,370.9z"/>
	<path class="st38" d="M635,370.4c0-0.5-0.1-0.9-0.1-1.3l0.8-0.1l0.1,0.8l0,0c0.2-0.5,0.7-1,1.5-1c0.7-0.1,1.7,0.3,1.9,1.9l0.2,2.9
		l-0.9,0.1l-0.2-2.8c-0.1-0.8-0.4-1.4-1.2-1.3c-0.6,0-1,0.5-1.1,1c0,0.1,0,0.3,0,0.4l0.2,2.9l-0.9,0.1L635,370.4z"/>
	<path class="st38" d="M641.1,371.2c0.1,1.2,0.9,1.6,1.8,1.5c0.6-0.1,1-0.2,1.3-0.4l0.2,0.6c-0.3,0.2-0.8,0.4-1.6,0.4
		c-1.5,0.1-2.5-0.8-2.6-2.2c-0.1-1.5,0.6-2.7,2-2.8c1.6-0.1,2.1,1.2,2.2,2.1c0,0.2,0,0.3,0,0.4L641.1,371.2z M643.6,370.3
		c0-0.6-0.3-1.4-1.3-1.3c-0.9,0.1-1.2,0.9-1.2,1.5L643.6,370.3z"/>
	<path class="st38" d="M646.4,367l0.1,1.2l1.3-0.1l0.1,0.7l-1.3,0.1l0.2,2.6c0,0.6,0.2,0.9,0.7,0.9c0.2,0,0.4-0.1,0.5-0.1l0.1,0.7
		c-0.2,0.1-0.4,0.2-0.8,0.2c-0.4,0-0.7-0.1-1-0.3c-0.3-0.2-0.4-0.7-0.4-1.2l-0.2-2.6l-0.7,0.1l-0.1-0.7l0.7-0.1l-0.1-0.9L646.4,367z
		"/>
	<path class="st38" d="M653,369.4l0.1,0.6l-2.5,0.2l-0.1-0.6L653,369.4z"/>
	<path class="st38" d="M655.9,365.6c0.4-0.1,1-0.2,1.7-0.3c0.9-0.1,1.5,0.1,1.9,0.4c0.4,0.3,0.7,0.8,0.7,1.4
		c0.1,0.6-0.1,1.1-0.4,1.5c-0.4,0.5-1.1,0.8-2,0.9c-0.3,0-0.5,0-0.7,0l0.2,2.7l-0.9,0.1L655.9,365.6z M657,368.7c0.2,0,0.4,0,0.7,0
		c1-0.1,1.6-0.6,1.6-1.6c-0.1-0.9-0.7-1.3-1.7-1.2c-0.4,0-0.7,0.1-0.8,0.1L657,368.7z"/>
	<path class="st38" d="M661.3,368.5c0-0.6-0.1-1.1-0.2-1.5l0.8-0.1l0.1,0.9l0,0c0.2-0.7,0.7-1.1,1.2-1.2c0.1,0,0.2,0,0.3,0l0.1,0.8
		c-0.1,0-0.2,0-0.3,0c-0.6,0.1-1,0.6-1.1,1.2c0,0.1,0,0.3,0,0.4l0.2,2.6l-0.9,0.1L661.3,368.5z"/>
	<path class="st38" d="M668.9,368.7c0.1,1.8-1,2.7-2.2,2.8c-1.3,0.1-2.4-0.8-2.5-2.3c-0.1-1.6,0.8-2.6,2.2-2.8
		C667.7,366.3,668.7,367.2,668.9,368.7z M665,369.1c0.1,1.1,0.8,1.8,1.6,1.7c0.8-0.1,1.4-0.9,1.3-2c-0.1-0.8-0.6-1.8-1.6-1.7
		C665.3,367.2,665,368.1,665,369.1z"/>
	<path class="st38" d="M674.2,370c0.1,1.1-0.1,1.8-0.5,2.3c-0.4,0.5-1.1,0.7-1.7,0.7c-0.6,0-1.2,0-1.6-0.3l0.2-0.7
		c0.3,0.2,0.8,0.3,1.4,0.3c0.9-0.1,1.5-0.6,1.4-1.8l0-0.5l0,0c-0.2,0.5-0.7,0.9-1.5,0.9c-1.2,0.1-2.1-0.8-2.2-2.2
		c-0.1-1.6,0.9-2.6,2-2.7c0.8-0.1,1.3,0.3,1.6,0.7l0,0l0-0.7l0.8-0.1c0,0.4,0,0.7,0.1,1.3L674.2,370z M673.2,367.9
		c0-0.1,0-0.3-0.1-0.4c-0.2-0.5-0.7-0.9-1.3-0.8c-0.8,0.1-1.4,0.8-1.3,1.9c0.1,0.9,0.6,1.7,1.6,1.6c0.5,0,1-0.4,1.1-1
		c0-0.2,0-0.3,0-0.5L673.2,367.9z"/>
	<path class="st38" d="M675.4,367.3c0-0.6-0.1-1.1-0.2-1.5l0.8-0.1l0.1,0.9l0,0c0.2-0.7,0.7-1.1,1.2-1.2c0.1,0,0.2,0,0.3,0l0.1,0.8
		c-0.1,0-0.2,0-0.3,0c-0.6,0.1-1,0.6-1.1,1.2c0,0.1,0,0.3,0,0.4l0.2,2.6l-0.9,0.1L675.4,367.3z"/>
	<path class="st38" d="M682.2,368.9c0,0.4,0.1,0.8,0.2,1.1l-0.8,0.1l-0.1-0.6l0,0c-0.2,0.4-0.7,0.8-1.4,0.8c-1,0.1-1.5-0.6-1.6-1.3
		c-0.1-1.2,0.9-1.9,2.8-2l0-0.1c0-0.4-0.2-1.1-1.2-1c-0.4,0-0.9,0.2-1.2,0.5l-0.2-0.6c0.4-0.3,0.9-0.5,1.5-0.6
		c1.5-0.1,1.9,0.9,2,1.8L682.2,368.9z M681.2,367.7c-1,0.1-2,0.3-2,1.3c0,0.6,0.4,0.8,0.9,0.8c0.6-0.1,1-0.5,1.1-0.9
		c0-0.1,0-0.2,0-0.3L681.2,367.7z"/>
	<path class="st38" d="M683.4,366.4c0-0.5-0.1-0.9-0.1-1.3l0.8-0.1l0.1,0.8l0,0c0.2-0.5,0.6-0.9,1.4-1c0.7-0.1,1.2,0.3,1.4,0.9l0,0
		c0.1-0.3,0.3-0.5,0.5-0.7c0.3-0.2,0.6-0.4,1-0.4c0.6-0.1,1.6,0.3,1.8,2l0.2,2.8l-0.9,0.1l-0.2-2.7c-0.1-0.9-0.5-1.5-1.2-1.4
		c-0.5,0-0.9,0.4-1,0.9c0,0.1,0,0.3,0,0.4l0.2,3l-0.9,0.1l-0.2-2.9c-0.1-0.8-0.4-1.3-1.1-1.2c-0.5,0-0.9,0.5-1,1c0,0.1,0,0.3,0,0.4
		l0.2,2.9l-0.9,0.1L683.4,366.4z"/>
	<path class="st38" d="M691.7,365.7c0-0.5-0.1-0.9-0.1-1.3l0.8-0.1l0.1,0.8l0,0c0.2-0.5,0.6-0.9,1.4-1c0.7-0.1,1.2,0.3,1.4,0.9l0,0
		c0.1-0.3,0.3-0.5,0.5-0.7c0.3-0.2,0.6-0.4,1-0.4c0.6-0.1,1.6,0.3,1.8,2l0.2,2.8l-0.9,0.1l-0.2-2.7c-0.1-0.9-0.5-1.5-1.2-1.4
		c-0.5,0-0.9,0.4-1,0.9c0,0.1,0,0.3,0,0.4l0.2,3L695,369l-0.2-2.9c-0.1-0.8-0.4-1.3-1.1-1.2c-0.5,0-0.9,0.5-1,1c0,0.1,0,0.3,0,0.4
		l0.2,2.9l-0.9,0.1L691.7,365.7z"/>
	<path class="st38" d="M700.8,362.3c0,0.3-0.2,0.6-0.5,0.6c-0.3,0-0.5-0.2-0.6-0.5c0-0.3,0.2-0.6,0.5-0.6
		C700.5,361.8,700.8,362,700.8,362.3z M700.3,368.6l-0.4-4.8l0.9-0.1l0.4,4.8L700.3,368.6z"/>
	<path class="st38" d="M703,366.1c0.1,1.2,0.9,1.6,1.8,1.5c0.6-0.1,1-0.2,1.3-0.4l0.2,0.6c-0.3,0.2-0.8,0.4-1.6,0.4
		c-1.5,0.1-2.5-0.8-2.6-2.2c-0.1-1.5,0.6-2.7,2-2.8c1.6-0.1,2.1,1.2,2.2,2.1c0,0.2,0,0.3,0,0.4L703,366.1z M705.5,365.3
		c0-0.6-0.3-1.4-1.3-1.3c-0.9,0.1-1.2,0.9-1.2,1.5L705.5,365.3z"/>
	<path class="st38" d="M707.4,364.7c0-0.6-0.1-1.1-0.2-1.5l0.8-0.1l0.1,0.9l0,0c0.2-0.7,0.7-1.1,1.2-1.2c0.1,0,0.2,0,0.3,0l0.1,0.8
		c-0.1,0-0.2,0-0.3,0c-0.6,0.1-1,0.6-1.1,1.2c0,0.1,0,0.3,0,0.4l0.2,2.6l-0.9,0.1L707.4,364.7z"/>
	<path class="st38" d="M714.8,366.1c0,0.5,0.1,0.9,0.1,1.3l-0.8,0.1l-0.1-0.8l0,0c-0.2,0.4-0.7,1-1.5,1c-0.8,0.1-1.7-0.3-1.8-2
		l-0.2-2.8l0.9-0.1l0.2,2.7c0.1,0.9,0.4,1.5,1.2,1.4c0.6,0,1-0.5,1.1-0.9c0-0.1,0.1-0.3,0-0.5l-0.2-3l0.9-0.1L714.8,366.1z"/>
	<path class="st38" d="M716.1,363.7c0-0.5-0.1-0.9-0.1-1.3l0.8-0.1l0.1,0.8l0,0c0.2-0.5,0.7-1,1.5-1c0.7-0.1,1.7,0.3,1.9,1.9
		l0.2,2.9l-0.9,0.1l-0.2-2.8c-0.1-0.8-0.4-1.4-1.2-1.3c-0.6,0-1,0.5-1.1,1c0,0.1,0,0.3,0,0.4l0.2,2.9l-0.9,0.1L716.1,363.7z"/>
	<path class="st38" d="M726,365.8c0.1,1.1-0.1,1.8-0.5,2.3c-0.4,0.5-1.1,0.7-1.7,0.7c-0.6,0-1.2,0-1.6-0.3l0.2-0.7
		c0.3,0.2,0.8,0.3,1.4,0.3c0.9-0.1,1.5-0.6,1.4-1.8l0-0.5l0,0c-0.2,0.5-0.7,0.9-1.5,0.9c-1.2,0.1-2.1-0.8-2.2-2.2
		c-0.1-1.6,0.9-2.6,2-2.7c0.8-0.1,1.3,0.3,1.6,0.7l0,0l0-0.7l0.8-0.1c0,0.3,0,0.7,0.1,1.3L726,365.8z M724.9,363.6
		c0-0.1,0-0.3-0.1-0.4c-0.2-0.5-0.7-0.9-1.3-0.8c-0.8,0.1-1.4,0.8-1.3,1.9c0.1,0.9,0.6,1.7,1.6,1.6c0.5,0,1-0.4,1.1-1
		c0-0.2,0-0.3,0-0.5L724.9,363.6z"/>
</g>
<g>
	<path class="st39" d="M545.9,433.8c0,2.3-1.3,3.6-3.1,3.6c-1.8,0-3.1-1.3-3.1-3.4c0-2.1,1.3-3.6,3.1-3.6
		C544.7,430.4,545.9,431.8,545.9,433.8z M540.7,434c0,1.4,0.8,2.7,2.2,2.7c1.4,0,2.1-1.3,2.1-2.8c0-1.3-0.8-2.7-2.2-2.7
		C541.4,431.2,540.7,432.5,540.7,434z"/>
	<path class="st39" d="M547,430.1l0.9,0l0.1,3h0c0.1-0.3,0.4-0.5,0.6-0.6c0.3-0.2,0.6-0.3,0.9-0.3c0.6,0,1.7,0.4,1.7,2l0.1,2.9
		l-0.9,0l-0.1-2.8c0-0.8-0.3-1.4-1.1-1.4c-0.6,0-1,0.4-1.2,0.9c0,0.1-0.1,0.3-0.1,0.4l0.1,2.9l-0.9,0L547,430.1z"/>
	<path class="st39" d="M552.6,433.6c0-0.5,0-0.9-0.1-1.3l0.8,0l0.1,0.8h0c0.2-0.5,0.8-0.9,1.6-0.9c0.7,0,1.7,0.4,1.8,2l0.1,2.9
		l-0.9,0l-0.1-2.8c0-0.8-0.3-1.4-1.1-1.4c-0.6,0-1,0.4-1.2,0.9c0,0.1-0.1,0.3-0.1,0.4l0.1,2.9l-0.9,0L552.6,433.6z"/>
	<path class="st39" d="M558.6,434.7c0,1.2,0.8,1.7,1.7,1.6c0.6,0,1-0.1,1.3-0.3l0.2,0.6c-0.3,0.1-0.8,0.3-1.6,0.3
		c-1.5,0-2.4-0.9-2.4-2.4c0-1.5,0.8-2.6,2.2-2.7c1.6,0,2,1.3,2,2.2c0,0.2,0,0.3,0,0.4L558.6,434.7z M561.2,434
		c0-0.6-0.3-1.4-1.2-1.4c-0.9,0-1.3,0.8-1.3,1.5L561.2,434z"/>
	<path class="st39" d="M571,433.8c-0.1-0.9-0.2-2.1-0.2-2.9l0,0c-0.2,0.8-0.5,1.6-0.8,2.6l-1.1,3.3l-0.7,0l-1.2-3.2
		c-0.3-0.9-0.6-1.8-0.8-2.6h0c0,0.8,0,2-0.1,3l-0.1,2.9l-0.8,0l0.3-6.7l1.1,0l1.2,3.2c0.3,0.8,0.5,1.6,0.7,2.3h0
		c0.2-0.7,0.4-1.4,0.7-2.3l1.1-3.3l1.1,0l0.6,6.7l-0.8,0L571,433.8z"/>
	<path class="st39" d="M577.7,434.1c0,1.8-1.2,2.6-2.4,2.6c-1.3,0-2.3-0.9-2.4-2.4c0-1.6,1-2.6,2.3-2.6
		C576.8,431.7,577.7,432.7,577.7,434.1z M573.9,434.3c0,1.1,0.6,1.8,1.5,1.8c0.8,0,1.5-0.8,1.4-1.9c0-0.8-0.4-1.9-1.5-1.8
		S573.9,433.3,573.9,434.3z"/>
	<path class="st39" d="M582.9,429.4l0.1,5.8c0,0.4,0,0.9,0.1,1.2l-0.8,0l-0.1-0.8h0c-0.3,0.5-0.8,1-1.6,1c-1.2,0-2.1-0.9-2.1-2.4
		c0-1.6,0.9-2.6,2.1-2.6c0.7,0,1.2,0.3,1.5,0.7h0l-0.1-2.9L582.9,429.4z M582.1,433.6c0-0.1,0-0.3,0-0.4c-0.1-0.6-0.6-1-1.3-1
		c-0.9,0-1.4,0.8-1.4,1.9c0,1,0.5,1.8,1.5,1.8c0.6,0,1.1-0.4,1.3-1.1c0-0.1,0-0.2,0-0.4L582.1,433.6z"/>
	<path class="st39" d="M588.6,435.1c0,0.5,0,0.9,0.1,1.3l-0.8,0l-0.1-0.8h0c-0.2,0.4-0.7,0.9-1.6,0.9c-0.8,0-1.7-0.4-1.7-2.1
		l-0.1-2.8l0.9,0l0.1,2.7c0,0.9,0.3,1.5,1.1,1.5c0.6,0,1-0.4,1.1-0.8c0-0.1,0.1-0.3,0.1-0.5l-0.1-3l0.9,0L588.6,435.1z"/>
	<path class="st39" d="M589.9,429.3l0.9,0l0.1,7.1l-0.9,0L589.9,429.3z"/>
	<path class="st39" d="M593.8,436.7l2.6-7.3l0.7,0l-2.7,7.3L593.8,436.7z"/>
	<path class="st39" d="M600,429.5c0.4-0.1,1-0.2,1.6-0.2c0.9,0,1.4,0.1,1.9,0.5c0.4,0.3,0.6,0.6,0.6,1.2c0,0.6-0.4,1.2-1.1,1.5l0,0
		c0.6,0.1,1.4,0.7,1.4,1.7c0,0.6-0.2,1-0.5,1.4c-0.5,0.4-1.2,0.7-2.3,0.7c-0.6,0-1.1,0-1.4-0.1L600,429.5z M600.9,432.2l0.8,0
		c0.9,0,1.4-0.5,1.4-1.2c0-0.8-0.6-1.1-1.5-1.1c-0.4,0-0.6,0-0.8,0.1L600.9,432.2z M601,435.5c0.2,0,0.4,0,0.7,0
		c0.9,0,1.7-0.4,1.7-1.3c0-0.9-0.8-1.3-1.8-1.3l-0.7,0L601,435.5z"/>
	<path class="st39" d="M606,433.8c0,1.2,0.8,1.7,1.7,1.6c0.6,0,1-0.1,1.3-0.3l0.2,0.6c-0.3,0.1-0.8,0.3-1.6,0.3
		c-1.5,0-2.4-0.9-2.4-2.4c0-1.5,0.8-2.6,2.2-2.7c1.6,0,2,1.3,2,2.2c0,0.2,0,0.3,0,0.4L606,433.8z M608.6,433.1
		c0-0.6-0.3-1.4-1.2-1.4c-0.9,0-1.3,0.8-1.3,1.5L608.6,433.1z"/>
	<path class="st39" d="M610.5,432.6c0-0.6,0-1.1-0.1-1.5l0.8,0l0,0.9l0,0c0.2-0.7,0.7-1.1,1.3-1.1c0.1,0,0.2,0,0.2,0l0,0.8
		c-0.1,0-0.2,0-0.3,0c-0.6,0-1,0.5-1.2,1.2c0,0.1,0,0.3,0,0.4l0.1,2.6l-0.9,0L610.5,432.6z"/>
	<path class="st39" d="M617.1,434.7c0,0.4,0,0.8,0.1,1.2l-0.8,0l-0.1-0.6l0,0c-0.3,0.4-0.8,0.7-1.5,0.7c-1,0-1.5-0.7-1.5-1.4
		c0-1.2,1-1.8,2.9-1.9l0-0.1c0-0.4-0.1-1.1-1.1-1.1c-0.5,0-0.9,0.2-1.3,0.4l-0.2-0.6c0.4-0.3,1-0.4,1.6-0.5c1.5,0,1.9,1,1.9,1.9
		L617.1,434.7z M616.3,433.4c-1,0-2,0.2-2,1.1c0,0.6,0.4,0.8,0.8,0.8c0.6,0,1-0.4,1.2-0.8c0-0.1,0-0.2,0-0.3L616.3,433.4z"/>
	<path class="st39" d="M619.5,429.8l0,1.2l1.3,0l0,0.7l-1.3,0l0.1,2.6c0,0.6,0.2,0.9,0.7,0.9c0.2,0,0.4,0,0.5-0.1l0.1,0.7
		c-0.2,0.1-0.4,0.1-0.8,0.1c-0.4,0-0.7-0.1-1-0.4c-0.3-0.3-0.4-0.7-0.4-1.3l-0.1-2.6l-0.8,0l0-0.7l0.8,0l0-0.9L619.5,429.8z"/>
	<path class="st39" d="M625.9,434.3c0,0.5,0,0.9,0.1,1.3l-0.8,0l-0.1-0.8l0,0c-0.2,0.4-0.7,0.9-1.6,0.9c-0.8,0-1.7-0.4-1.7-2.1
		l-0.1-2.8l0.9,0l0.1,2.7c0,0.9,0.3,1.5,1.1,1.5c0.6,0,1-0.4,1.1-0.8c0-0.1,0.1-0.3,0.1-0.5l-0.1-3l0.9,0L625.9,434.3z"/>
	<path class="st39" d="M627.3,432.1c0-0.5,0-0.9-0.1-1.3l0.8,0l0.1,0.8h0c0.2-0.5,0.8-0.9,1.6-0.9c0.7,0,1.7,0.4,1.8,2l0.1,2.9
		l-0.9,0l-0.1-2.8c0-0.8-0.3-1.4-1.1-1.4c-0.6,0-1,0.4-1.2,0.9c0,0.1-0.1,0.3-0.1,0.4l0.1,2.9l-0.9,0L627.3,432.1z"/>
	<path class="st39" d="M637,434.7c0,1.1-0.2,1.8-0.6,2.2c-0.5,0.4-1.1,0.6-1.7,0.6c-0.6,0-1.2-0.1-1.6-0.4l0.2-0.7
		c0.3,0.2,0.8,0.4,1.4,0.4c0.9,0,1.5-0.5,1.5-1.7l0-0.5h0c-0.3,0.5-0.8,0.8-1.5,0.8c-1.2,0-2.1-1-2.1-2.3c0-1.6,1-2.6,2.1-2.6
		c0.8,0,1.3,0.4,1.5,0.8h0l0-0.7l0.8,0c0,0.4,0,0.7,0,1.3L637,434.7z M636.1,432.5c0-0.2,0-0.3-0.1-0.4c-0.2-0.5-0.6-0.9-1.2-0.9
		c-0.8,0-1.4,0.7-1.4,1.9c0,1,0.5,1.7,1.5,1.7c0.5,0,1-0.4,1.2-0.9c0-0.2,0.1-0.3,0.1-0.5L636.1,432.5z"/>
	<path class="st39" d="M644.6,434c0,0.5,0,0.9,0.1,1.3l-0.8,0l-0.1-0.8h0c-0.2,0.4-0.7,0.9-1.6,0.9c-0.8,0-1.7-0.4-1.7-2.1l-0.1-2.8
		l0.9,0l0.1,2.7c0,0.9,0.3,1.5,1.1,1.5c0.6,0,1-0.4,1.1-0.8c0-0.1,0.1-0.3,0.1-0.5l-0.1-3l0.9,0L644.6,434z"/>
	<path class="st39" d="M646.1,431.7c0-0.5,0-0.9-0.1-1.3l0.8,0l0.1,0.8l0,0c0.2-0.5,0.8-0.9,1.6-0.9c0.7,0,1.7,0.4,1.7,2l0.1,2.9
		l-0.9,0l-0.1-2.8c0-0.8-0.3-1.4-1.1-1.4c-0.6,0-1,0.4-1.2,0.9c0,0.1-0.1,0.3-0.1,0.4l0.1,2.9l-0.9,0L646.1,431.7z"/>
	<path class="st39" d="M655.7,428l0.1,5.8c0,0.4,0,0.9,0.1,1.2l-0.8,0l-0.1-0.8h0c-0.3,0.5-0.8,1-1.6,1c-1.2,0-2.1-0.9-2.1-2.4
		c0-1.6,0.9-2.6,2.1-2.6c0.7,0,1.2,0.3,1.5,0.7l0,0l-0.1-2.9L655.7,428z M654.9,432.2c0-0.1,0-0.3,0-0.4c-0.1-0.6-0.6-1-1.3-1
		c-0.9,0-1.4,0.8-1.4,1.9c0,1,0.5,1.8,1.5,1.8c0.6,0,1.1-0.4,1.3-1.1c0-0.1,0-0.2,0-0.4L654.9,432.2z"/>
	<path class="st39" d="M659.3,428.3c0.4-0.1,1-0.1,1.7-0.2c0.9,0,1.5,0.2,1.9,0.5c0.4,0.3,0.6,0.8,0.6,1.4c0,0.6-0.2,1.1-0.5,1.4
		c-0.4,0.5-1.2,0.8-2,0.8c-0.3,0-0.5,0-0.7,0l0.1,2.7l-0.9,0L659.3,428.3z M660.3,431.6c0.2,0,0.4,0.1,0.7,0.1c1,0,1.7-0.5,1.7-1.5
		c0-0.9-0.7-1.3-1.6-1.3c-0.4,0-0.7,0-0.8,0.1L660.3,431.6z"/>
	<path class="st39" d="M664.6,427.8l0.9,0l0.1,7.1l-0.9,0L664.6,427.8z"/>
	<path class="st39" d="M670.4,433.6c0,0.4,0,0.8,0.1,1.2l-0.8,0l-0.1-0.6l0,0c-0.3,0.4-0.8,0.7-1.5,0.7c-1,0-1.5-0.7-1.5-1.4
		c0-1.2,1-1.8,2.9-1.9l0-0.1c0-0.4-0.1-1.1-1.1-1.1c-0.5,0-0.9,0.2-1.3,0.4l-0.2-0.6c0.4-0.3,1-0.4,1.6-0.5c1.5,0,1.9,1,1.9,1.9
		L670.4,433.6z M669.6,432.3c-1,0-2,0.2-2,1.1c0,0.6,0.4,0.8,0.8,0.8c0.6,0,1-0.4,1.2-0.8c0-0.1,0-0.2,0-0.3L669.6,432.3z"/>
	<path class="st39" d="M671.8,431.2c0-0.5,0-0.9-0.1-1.3l0.8,0l0.1,0.8h0c0.2-0.5,0.8-0.9,1.6-0.9c0.7,0,1.7,0.4,1.7,2l0.1,2.9
		l-0.9,0l-0.1-2.8c0-0.8-0.3-1.4-1.1-1.4c-0.6,0-1,0.4-1.2,0.9c0,0.1-0.1,0.3-0.1,0.4l0.1,2.9l-0.9,0L671.8,431.2z"/>
	<path class="st39" d="M681.5,433.2c0,0.5,0,0.9,0.1,1.3l-0.8,0l-0.1-0.8l0,0c-0.2,0.4-0.7,0.9-1.6,0.9c-0.8,0-1.7-0.4-1.7-2.1
		l-0.1-2.8l0.9,0l0.1,2.7c0,0.9,0.3,1.5,1.1,1.5c0.6,0,1-0.4,1.1-0.8c0-0.1,0.1-0.3,0.1-0.5l-0.1-3l0.9,0L681.5,433.2z"/>
	<path class="st39" d="M682.9,431c0-0.5,0-0.9-0.1-1.3l0.8,0l0.1,0.8h0c0.2-0.5,0.8-0.9,1.6-0.9c0.7,0,1.7,0.4,1.7,2l0.1,2.9l-0.9,0
		l-0.1-2.8c0-0.8-0.3-1.4-1.1-1.4c-0.6,0-1,0.4-1.2,0.9c0,0.1-0.1,0.3-0.1,0.4l0.1,2.9l-0.9,0L682.9,431z"/>
	<path class="st39" d="M692.6,433.6c0,1.1-0.2,1.8-0.6,2.2c-0.5,0.4-1.1,0.6-1.7,0.6c-0.6,0-1.2-0.1-1.6-0.4l0.2-0.7
		c0.3,0.2,0.8,0.4,1.4,0.4c0.9,0,1.5-0.5,1.5-1.7l0-0.5l0,0c-0.3,0.5-0.8,0.8-1.5,0.8c-1.2,0-2.1-1-2.1-2.3c0-1.6,1-2.6,2.1-2.6
		c0.8,0,1.3,0.4,1.5,0.8h0l0-0.7l0.8,0c0,0.4,0,0.7,0,1.3L692.6,433.6z M691.7,431.4c0-0.2,0-0.3-0.1-0.4c-0.2-0.5-0.6-0.9-1.2-0.9
		c-0.8,0-1.4,0.7-1.4,1.9c0,0.9,0.5,1.7,1.5,1.7c0.5,0,1-0.4,1.2-0.9c0-0.2,0.1-0.3,0.1-0.5L691.7,431.4z"/>
</g>
<g>
	<path class="st40" d="M535.5,494c0,2.3-1.4,3.5-3.2,3.5c-1.8,0-3-1.4-3-3.5c0-2.1,1.4-3.5,3.2-3.5C534.3,490.6,535.5,492,535.5,494
		z M530.2,494.1c0,1.4,0.8,2.7,2.1,2.8c1.4,0,2.2-1.2,2.2-2.8c0-1.3-0.7-2.7-2.1-2.8C531,491.3,530.2,492.6,530.2,494.1z"/>
	<path class="st40" d="M536.6,490.4l0.9,0l0,3h0c0.1-0.2,0.4-0.5,0.6-0.6c0.3-0.1,0.6-0.2,0.9-0.2c0.7,0,1.7,0.4,1.7,2.1l0,2.9
		l-0.9,0l0-2.8c0-0.8-0.3-1.4-1.1-1.5c-0.6,0-1,0.4-1.2,0.9c-0.1,0.1-0.1,0.2-0.1,0.4l0,2.9l-0.9,0L536.6,490.4z"/>
	<path class="st40" d="M542.1,494c0-0.5,0-0.9,0-1.3l0.8,0l0,0.8l0,0c0.2-0.5,0.8-0.9,1.6-0.9c0.7,0,1.7,0.4,1.7,2.1l0,2.9l-0.9,0
		l0-2.8c0-0.8-0.3-1.4-1.1-1.4c-0.6,0-1,0.4-1.2,0.9c0,0.1-0.1,0.3-0.1,0.4l0,2.9l-0.9,0L542.1,494z"/>
	<path class="st40" d="M548.1,495.3c0,1.2,0.8,1.7,1.6,1.7c0.6,0,1-0.1,1.3-0.2l0.1,0.6c-0.3,0.1-0.8,0.3-1.6,0.3
		c-1.5,0-2.4-1-2.4-2.5c0-1.5,0.9-2.6,2.3-2.6c1.6,0,2,1.4,2,2.3c0,0.2,0,0.3,0,0.4L548.1,495.3z M550.7,494.7
		c0-0.6-0.2-1.4-1.2-1.4c-0.9,0-1.3,0.8-1.4,1.4L550.7,494.7z"/>
	<path class="st40" d="M560.5,494.8c0-0.9-0.1-2.1-0.1-2.9h0c-0.2,0.8-0.5,1.6-0.9,2.5l-1.2,3.3l-0.7,0l-1.1-3.2
		c-0.3-1-0.6-1.8-0.8-2.6h0c0,0.8-0.1,2-0.2,3l-0.2,2.9l-0.8,0l0.5-6.7l1.1,0l1.1,3.3c0.3,0.8,0.5,1.6,0.7,2.3l0,0
		c0.2-0.7,0.4-1.4,0.7-2.3l1.2-3.2l1.1,0l0.3,6.7l-0.8,0L560.5,494.8z"/>
	<path class="st40" d="M567.3,495.3c0,1.8-1.3,2.6-2.4,2.5c-1.3,0-2.3-1-2.3-2.5c0-1.6,1.1-2.6,2.4-2.5
		C566.3,492.8,567.3,493.8,567.3,495.3z M563.4,495.3c0,1.1,0.6,1.9,1.4,1.9c0.8,0,1.5-0.8,1.5-1.9c0-0.8-0.4-1.9-1.4-1.9
		S563.4,494.4,563.4,495.3z"/>
	<path class="st40" d="M572.6,490.7l-0.1,5.8c0,0.4,0,0.9,0,1.2l-0.8,0l0-0.8h0c-0.3,0.5-0.9,0.9-1.7,0.9c-1.2,0-2.1-1-2-2.5
		c0-1.6,1-2.6,2.2-2.6c0.7,0,1.2,0.4,1.5,0.8h0l0-2.9L572.6,490.7z M571.7,495c0-0.1,0-0.3,0-0.4c-0.1-0.6-0.6-1-1.3-1
		c-0.9,0-1.5,0.8-1.5,1.9c0,1,0.5,1.8,1.4,1.8c0.6,0,1.1-0.4,1.3-1c0-0.1,0-0.2,0-0.4L571.7,495z"/>
	<path class="st40" d="M578,496.6c0,0.5,0,0.9,0,1.3l-0.8,0l0-0.8l0,0c-0.2,0.4-0.7,0.9-1.6,0.9c-0.8,0-1.7-0.4-1.6-2.1l0-2.8l0.9,0
		l0,2.7c0,0.9,0.3,1.5,1.1,1.5c0.6,0,1-0.4,1.2-0.8c0.1-0.1,0.1-0.3,0.1-0.4l0-3l0.9,0L578,496.6z"/>
	<path class="st40" d="M579.6,490.8l0.9,0l-0.1,7.1l-0.9,0L579.6,490.8z"/>
	<path class="st40" d="M583.2,498.4l2.9-7.2l0.7,0l-2.9,7.2L583.2,498.4z"/>
	<path class="st40" d="M589.6,491.4c0.4-0.1,1-0.1,1.7-0.1c0.9,0,1.5,0.2,1.9,0.6c0.4,0.3,0.6,0.8,0.6,1.4c0,0.6-0.2,1.1-0.5,1.4
		c-0.5,0.5-1.2,0.7-2.1,0.7c-0.3,0-0.5,0-0.7-0.1l0,2.7l-0.9,0L589.6,491.4z M590.5,494.6c0.2,0.1,0.4,0.1,0.7,0.1
		c1,0,1.7-0.5,1.7-1.4c0-0.9-0.6-1.3-1.6-1.3c-0.4,0-0.7,0-0.8,0.1L590.5,494.6z"/>
	<path class="st40" d="M594.7,494.7c0-0.6,0-1.1,0-1.5l0.8,0l0,1h0c0.2-0.6,0.8-1.1,1.4-1c0.1,0,0.2,0,0.2,0l0,0.8
		c-0.1,0-0.2,0-0.3,0c-0.6,0-1.1,0.5-1.2,1.1c0,0.1,0,0.3,0,0.4l0,2.6l-0.9,0L594.7,494.7z"/>
	<path class="st40" d="M601.3,497c0,0.4,0,0.8,0.1,1.2l-0.8,0l-0.1-0.6h0c-0.3,0.4-0.8,0.7-1.5,0.7c-1,0-1.5-0.7-1.5-1.4
		c0-1.2,1.1-1.8,2.9-1.8l0-0.1c0-0.4-0.1-1.1-1.1-1.1c-0.4,0-0.9,0.1-1.3,0.3l-0.2-0.6c0.4-0.3,1-0.4,1.6-0.4c1.5,0,1.8,1,1.8,2
		L601.3,497z M600.5,495.7c-1,0-2,0.1-2.1,1.1c0,0.6,0.4,0.8,0.8,0.8c0.6,0,1-0.4,1.2-0.8c0-0.1,0.1-0.2,0.1-0.3L600.5,495.7z"/>
	<path class="st40" d="M603.6,495.5L603.6,495.5c0.1-0.2,0.3-0.4,0.5-0.5l1.4-1.7l1.1,0l-1.9,2l2.1,2.9l-1.1,0l-1.6-2.3l-0.5,0.5
		l0,1.8l-0.9,0l0.1-7.1l0.9,0L603.6,495.5z"/>
	<path class="st40" d="M608.5,492.2l0,1.2l1.3,0l0,0.7l-1.3,0l0,2.6c0,0.6,0.2,0.9,0.6,0.9c0.2,0,0.4,0,0.5-0.1l0,0.7
		c-0.2,0.1-0.4,0.1-0.8,0.1c-0.4,0-0.7-0.1-0.9-0.4c-0.2-0.3-0.3-0.7-0.3-1.3l0-2.6l-0.8,0l0-0.7l0.8,0l0-0.9L608.5,492.2z"/>
	<path class="st40" d="M611.8,492.1c0,0.3-0.2,0.5-0.6,0.5c-0.3,0-0.5-0.2-0.5-0.5c0-0.3,0.2-0.5,0.6-0.5
		C611.6,491.5,611.8,491.7,611.8,492.1z M610.7,498.2l0-4.8l0.9,0l-0.1,4.8L610.7,498.2z"/>
	<path class="st40" d="M614,495.7L614,495.7c0.1-0.2,0.3-0.4,0.5-0.5l1.4-1.7l1.1,0l-1.9,2l2.1,2.9l-1.1,0l-1.6-2.3l-0.5,0.5l0,1.8
		l-0.9,0l0.1-7.1l0.9,0L614,495.7z"/>
	<path class="st40" d="M621.9,497c0,0.5,0,0.9,0,1.3l-0.8,0l0-0.8l0,0c-0.2,0.4-0.7,0.9-1.6,0.9c-0.8,0-1.7-0.4-1.6-2.1l0-2.8l0.9,0
		l0,2.7c0,0.9,0.3,1.5,1.1,1.5c0.6,0,1-0.4,1.2-0.8c0.1-0.1,0.1-0.3,0.1-0.4l0-3l0.9,0L621.9,497z"/>
	<path class="st40" d="M623.3,494.8c0-0.5,0-0.9,0-1.3l0.8,0l0,0.8l0,0c0.3-0.5,0.7-0.9,1.5-0.9c0.7,0,1.2,0.4,1.4,1h0
		c0.2-0.3,0.3-0.5,0.5-0.6c0.3-0.2,0.6-0.3,1.1-0.3c0.6,0,1.6,0.4,1.6,2.1l0,2.8l-0.9,0l0-2.7c0-0.9-0.3-1.5-1-1.5
		c-0.5,0-0.9,0.4-1,0.8c0,0.1-0.1,0.3-0.1,0.4l0,3l-0.9,0l0-2.9c0-0.8-0.3-1.3-1-1.3c-0.5,0-1,0.4-1.1,0.9c-0.1,0.1-0.1,0.3-0.1,0.4
		l0,2.9l-0.9,0L623.3,494.8z"/>
	<path class="st40" d="M638,498.5c-0.2-0.2-0.4-0.4-0.6-0.7c-0.6,0.5-1.2,0.8-2,0.7c-1.3,0-2.1-0.9-2-1.9c0-0.9,0.6-1.5,1.3-2l0,0
		c-0.3-0.4-0.5-0.9-0.5-1.4c0-0.8,0.6-1.7,1.7-1.6c0.8,0,1.5,0.6,1.5,1.4c0,0.7-0.4,1.3-1.5,1.8v0c0.6,0.7,1.2,1.4,1.6,1.9
		c0.3-0.5,0.5-1.1,0.7-2l0.8,0c-0.2,1.1-0.5,1.9-1,2.5c0.4,0.4,0.7,0.8,1.1,1.2L638,498.5z M635.6,498c0.6,0,1.1-0.2,1.4-0.6
		c-0.4-0.4-1.1-1.3-1.9-2.1c-0.4,0.2-0.9,0.7-0.9,1.4C634.2,497.3,634.8,497.9,635.6,498L635.6,498z M635.8,492.3
		c-0.5,0-0.8,0.5-0.8,1c0,0.5,0.2,0.9,0.5,1.2c0.7-0.4,1.1-0.7,1.1-1.3C636.6,492.7,636.4,492.3,635.8,492.3L635.8,492.3z"/>
	<path class="st40" d="M642,491.9c0.4-0.1,1-0.1,1.7-0.1c0.9,0,1.5,0.2,1.9,0.6c0.4,0.3,0.6,0.8,0.6,1.4c0,0.6-0.2,1.1-0.5,1.4
		c-0.5,0.5-1.2,0.7-2.1,0.7c-0.3,0-0.5,0-0.7-0.1l0,2.7l-0.9,0L642,491.9z M642.9,495.2c0.2,0.1,0.4,0.1,0.7,0.1
		c1,0,1.7-0.5,1.7-1.4c0-0.9-0.6-1.3-1.6-1.3c-0.4,0-0.7,0-0.8,0.1L642.9,495.2z"/>
	<path class="st40" d="M647.1,495.3c0-0.6,0-1.1,0-1.5l0.8,0l0,1l0,0c0.2-0.6,0.8-1.1,1.4-1c0.1,0,0.2,0,0.2,0l0,0.8
		c-0.1,0-0.2,0-0.3,0c-0.6,0-1.1,0.5-1.2,1.1c0,0.1,0,0.3,0,0.4l0,2.6l-0.9,0L647.1,495.3z"/>
	<path class="st40" d="M654.4,497.4c0,0.5,0,0.9,0,1.3l-0.8,0l0-0.8h0c-0.2,0.4-0.7,0.9-1.6,0.9c-0.8,0-1.7-0.4-1.6-2.1l0-2.8l0.9,0
		l0,2.7c0,0.9,0.3,1.5,1.1,1.5c0.6,0,1-0.4,1.2-0.8c0.1-0.1,0.1-0.3,0.1-0.4l0-3l0.9,0L654.4,497.4z M651.5,493
		c-0.3,0-0.5-0.2-0.5-0.5c0-0.3,0.2-0.5,0.5-0.5c0.3,0,0.5,0.2,0.5,0.5C652,492.7,651.8,493,651.5,493L651.5,493z M653.4,493
		c-0.3,0-0.5-0.2-0.5-0.5c0-0.3,0.2-0.5,0.5-0.5c0.3,0,0.5,0.2,0.5,0.5C653.9,492.8,653.7,493,653.4,493L653.4,493z"/>
	<path class="st40" d="M656,498.7l0-4.2l-0.7,0l0-0.7l0.7,0l0-0.2c0-0.7,0.2-1.3,0.6-1.7c0.3-0.3,0.8-0.4,1.2-0.4
		c0.3,0,0.6,0.1,0.7,0.1l-0.1,0.7c-0.1-0.1-0.3-0.1-0.6-0.1c-0.8,0-0.9,0.6-1,1.4l0,0.3l1.2,0l0,0.7l-1.2,0l0,4.2L656,498.7z"/>
	<path class="st40" d="M662.9,497.5c0,0.5,0,0.9,0,1.3l-0.8,0l0-0.8h0c-0.2,0.4-0.7,0.9-1.6,0.9c-0.8,0-1.7-0.4-1.6-2.1l0-2.8l0.9,0
		l0,2.7c0,0.9,0.3,1.5,1.1,1.5c0.6,0,1-0.4,1.2-0.8c0.1-0.1,0.1-0.3,0.1-0.4l0-3l0.9,0L662.9,497.5z"/>
	<path class="st40" d="M664.3,495.3c0-0.5,0-0.9,0-1.3l0.8,0l0,0.8h0c0.2-0.5,0.8-0.9,1.6-0.9c0.7,0,1.7,0.4,1.7,2.1l0,2.9l-0.9,0
		l0-2.8c0-0.8-0.3-1.4-1.1-1.4c-0.6,0-1,0.4-1.2,0.9c0,0.1-0.1,0.3-0.1,0.4l0,2.9l-0.9,0L664.3,495.3z"/>
	<path class="st40" d="M674,498.2c0,1.1-0.2,1.8-0.7,2.2c-0.5,0.4-1.2,0.6-1.8,0.6c-0.6,0-1.2-0.2-1.6-0.4l0.2-0.7
		c0.3,0.2,0.8,0.4,1.4,0.4c0.9,0,1.6-0.5,1.6-1.7l0-0.5l0,0c-0.3,0.4-0.8,0.8-1.5,0.8c-1.2,0-2-1-2-2.4c0-1.6,1.1-2.6,2.2-2.5
		c0.8,0,1.3,0.5,1.5,0.9l0,0l0-0.7l0.8,0c0,0.4,0,0.7-0.1,1.3L674,498.2z M673.1,496c0-0.2,0-0.3,0-0.4c-0.2-0.5-0.6-0.9-1.2-0.9
		c-0.8,0-1.4,0.7-1.5,1.8c0,1,0.5,1.7,1.4,1.8c0.5,0,1-0.3,1.2-0.9c0.1-0.1,0.1-0.3,0.1-0.5L673.1,496z"/>
	<path class="st40" d="M675.3,498c0.3,0.2,0.7,0.4,1.2,0.4c0.6,0,0.9-0.3,0.9-0.7c0-0.4-0.2-0.7-0.9-0.9c-0.9-0.3-1.3-0.8-1.3-1.4
		c0-0.8,0.6-1.4,1.7-1.4c0.5,0,0.9,0.1,1.2,0.3l-0.2,0.6c-0.2-0.1-0.5-0.3-1-0.3c-0.5,0-0.8,0.3-0.8,0.7c0,0.4,0.3,0.6,0.9,0.8
		c0.8,0.3,1.3,0.8,1.3,1.5c0,0.8-0.7,1.5-1.8,1.4c-0.5,0-1-0.2-1.4-0.4L675.3,498z"/>
	<path class="st40" d="M679.8,494.1l0.9,2.7c0.2,0.4,0.3,0.8,0.4,1.2h0c0.1-0.4,0.3-0.8,0.4-1.2l1-2.7l0.9,0l-1.9,4.8l-0.8,0
		l-1.8-4.9L679.8,494.1z"/>
	<path class="st40" d="M688.5,496.6c0,1.8-1.3,2.6-2.4,2.5c-1.3,0-2.3-1-2.3-2.5c0-1.6,1.1-2.6,2.4-2.5
		C687.6,494.1,688.5,495.1,688.5,496.6z M684.7,496.6c0,1.1,0.6,1.9,1.5,1.9c0.8,0,1.5-0.8,1.5-1.9c0-0.8-0.4-1.9-1.4-1.9
		C685.1,494.7,684.7,495.7,684.7,496.6z"/>
	<path class="st40" d="M689.6,495.7c0-0.6,0-1.1,0-1.5l0.8,0l0,1l0,0c0.2-0.6,0.8-1.1,1.3-1c0.1,0,0.2,0,0.2,0l0,0.8
		c-0.1,0-0.2,0-0.3,0c-0.6,0-1.1,0.5-1.2,1.1c0,0.1,0,0.3,0,0.4l0,2.6l-0.9,0L689.6,495.7z"/>
	<path class="st40" d="M693,492l0.9,0l0,3h0c0.3-0.5,0.9-0.9,1.7-0.9c1.2,0,2,1,2,2.5c0,1.7-1.1,2.6-2.2,2.6c-0.7,0-1.3-0.3-1.6-0.9
		h0l0,0.8l-0.8,0c0-0.3,0-0.8,0.1-1.2L693,492z M693.8,497.2c0,0.1,0,0.2,0,0.3c0.2,0.6,0.7,1,1.3,1c0.9,0,1.5-0.7,1.5-1.8
		c0-1-0.5-1.8-1.4-1.8c-0.6,0-1.2,0.4-1.3,1.1c0,0.1-0.1,0.2-0.1,0.4L693.8,497.2z"/>
	<path class="st40" d="M699.1,496.9c0,1.2,0.8,1.7,1.6,1.7c0.6,0,1-0.1,1.3-0.2l0.1,0.6c-0.3,0.1-0.8,0.3-1.6,0.3
		c-1.5,0-2.4-1-2.4-2.5c0-1.5,0.9-2.6,2.3-2.6c1.6,0,2,1.4,2,2.3c0,0.2,0,0.3,0,0.4L699.1,496.9z M701.7,496.3
		c0-0.6-0.2-1.4-1.2-1.4c-0.9,0-1.3,0.8-1.4,1.4L701.7,496.3z"/>
	<path class="st40" d="M703.6,495.9c0-0.6,0-1.1,0-1.5l0.8,0l0,1h0c0.2-0.6,0.8-1.1,1.4-1c0.1,0,0.2,0,0.2,0l0,0.8
		c-0.1,0-0.2,0-0.3,0c-0.6,0-1.1,0.5-1.2,1.1c0,0.1,0,0.3,0,0.4l0,2.6l-0.9,0L703.6,495.9z"/>
	<path class="st40" d="M707.3,497c0,1.2,0.8,1.7,1.6,1.7c0.6,0,1-0.1,1.3-0.2l0.1,0.6c-0.3,0.1-0.8,0.3-1.6,0.3
		c-1.5,0-2.4-1-2.4-2.5c0-1.5,0.9-2.6,2.3-2.6c1.6,0,2,1.4,2,2.3c0,0.2,0,0.3,0,0.4L707.3,497z M709.9,496.4c0-0.6-0.2-1.4-1.2-1.4
		c-0.9,0-1.3,0.8-1.4,1.4L709.9,496.4z"/>
	<path class="st40" d="M712.8,493.1c0,0.3-0.2,0.5-0.6,0.5c-0.3,0-0.5-0.2-0.5-0.5c0-0.3,0.2-0.5,0.6-0.5
		C712.6,492.6,712.8,492.8,712.8,493.1z M711.8,499.3l0-4.8l0.9,0l0,4.8L711.8,499.3z"/>
	<path class="st40" d="M715.2,493.3l0,1.2l1.3,0l0,0.7l-1.3,0l0,2.6c0,0.6,0.2,0.9,0.6,0.9c0.2,0,0.4,0,0.5-0.1l0,0.7
		c-0.2,0.1-0.4,0.1-0.8,0.1c-0.4,0-0.7-0.1-0.9-0.4c-0.2-0.3-0.3-0.7-0.3-1.3l0-2.6l-0.8,0l0-0.7l0.8,0l0-0.9L715.2,493.3z"/>
	<path class="st40" d="M721.5,498.1c0,0.5,0,0.9,0,1.3l-0.8,0l0-0.8h0c-0.2,0.4-0.7,0.9-1.6,0.9c-0.8,0-1.7-0.4-1.6-2.1l0-2.8l0.9,0
		l0,2.7c0,0.9,0.3,1.5,1.1,1.6c0.6,0,1-0.4,1.2-0.8c0.1-0.1,0.1-0.3,0.1-0.4l0-3l0.9,0L721.5,498.1z"/>
	<path class="st40" d="M723,495.9c0-0.5,0-0.9,0-1.3l0.8,0l0,0.8h0c0.2-0.5,0.8-0.9,1.6-0.9c0.7,0,1.7,0.4,1.7,2.1l0,2.9l-0.9,0
		l0-2.8c0-0.8-0.3-1.4-1.1-1.4c-0.6,0-1,0.4-1.2,0.9c0,0.1-0.1,0.3-0.1,0.4l0,2.9l-0.9,0L723,495.9z"/>
	<path class="st40" d="M732.6,498.8c0,1.1-0.2,1.8-0.7,2.2c-0.5,0.4-1.2,0.6-1.8,0.6c-0.6,0-1.2-0.2-1.6-0.4l0.2-0.7
		c0.3,0.2,0.8,0.4,1.4,0.4c0.9,0,1.6-0.5,1.6-1.7l0-0.5h0c-0.3,0.4-0.8,0.8-1.5,0.8c-1.2,0-2-1-2-2.4c0-1.6,1.1-2.6,2.2-2.5
		c0.8,0,1.3,0.5,1.5,0.9h0l0-0.7l0.8,0c0,0.3,0,0.7-0.1,1.3L732.6,498.8z M731.8,496.6c0-0.2,0-0.3,0-0.4c-0.2-0.5-0.6-0.9-1.2-0.9
		c-0.8,0-1.4,0.7-1.5,1.8c0,1,0.5,1.7,1.4,1.8c0.5,0,1-0.3,1.2-0.9c0.1-0.1,0.1-0.3,0.1-0.5L731.8,496.6z"/>
</g>
</svg>
