<?xml version="1.0" encoding="utf-8"?>
<!-- Generator: Adobe Illustrator 25.0.1, SVG Export Plug-In . SVG Version: 6.00 Build 0)  -->
<svg version="1.1" id="Ebene_1" xmlns="http://www.w3.org/2000/svg" xmlns:xlink="http://www.w3.org/1999/xlink" x="0px" y="0px"
	 viewBox="0 0 100 60" style="enable-background:new 0 0 100 60;" xml:space="preserve">
<style type="text/css">
	.st0{fill:#919EAE;}
</style>
<g>
	<g>
		<path class="st0" d="M92.1,30.9c-0.8,2.6-3,4.2-4.8,6c-5.2,5.1-11.1,9.4-17.6,12.6c-7.1,3.5-14.4,5.4-22.4,4.9
			c-4.7-0.3-9.2-1.5-13.5-3.3c-9.5-4-17.5-10.1-24.5-17.7c-2-2.1-2-4.6,0-6.7C16.3,19,24.3,12.9,33.7,9c9.8-4.1,19.7-4.6,29.7-1
			c9.4,3.3,17.3,8.9,24.3,15.7c0.6,0.6,1.2,1.2,1.8,1.8c1.1,1.1,2.1,2.2,2.5,3.7C92.1,29.8,92.1,30.3,92.1,30.9z M64.5,16.3
			c5.3,8.9,1.8,18.3-3.6,22.8c-6,4.8-14.4,5.2-20.6,0.9c-3.8-2.7-6.2-6.3-7.1-10.8c-0.9-4.5-0.1-8.8,2.4-12.9
			c-7.5,3.4-13.7,8-19.2,13.7c0.1,0.1,0.2,0.2,0.2,0.3c5,5,10.5,9.4,16.8,12.5c4.4,2.2,8.9,3.7,13.8,4.1c5.9,0.5,11.6-0.7,17.1-3
			c6.5-2.8,12.2-7,17.4-11.8c0.7-0.6,1.4-1.3,2-2C78.1,24.3,71.9,19.6,64.5,16.3z M55.5,20.6c-0.1,2,1.4,4.2,3.2,4.8
			c1.7,0.6,3.2-0.3,3.5-2.1c0.4-1.9-0.6-4-2.2-5.1C57.8,16.9,55.6,18,55.5,20.6z"/>
	</g>
</g>
</svg>
