<?xml version="1.0" encoding="utf-8"?>
<!-- Generator: Adobe Illustrator 25.0.1, SVG Export Plug-In . SVG Version: 6.00 Build 0)  -->
<svg version="1.1" id="Ebene_1" xmlns="http://www.w3.org/2000/svg" xmlns:xlink="http://www.w3.org/1999/xlink" x="0px" y="0px"
	 viewBox="0 0 237.5 338" style="enable-background:new 0 0 237.5 338;" xml:space="preserve">
<style type="text/css">
	.st0{fill:#F1B8BE;stroke:#919EAE;stroke-width:0.7743;stroke-miterlimit:10;stroke-dasharray:1.8057;}
	.st1{fill:#F7CFCD;}
	.st2{fill:none;stroke:#919EAE;stroke-width:0.7743;stroke-miterlimit:10;stroke-dasharray:1.8058;}
	.st3{fill:#FFF0B3;}
	.st4{fill:#C4BC93;}
	.st5{fill:#CDC6A5;}
	.st6{fill:#D1DDE3;}
	.st7{fill:#DAE7ED;}
	.st8{fill:#E9D1AA;}
	.st9{fill:#FFC8B8;}
	.st10{fill:#FFD5C9;}
	.st11{fill:#CAD4E3;}
	.st12{fill:#D5DAE3;}
	.st13{fill:#FCE99D;}
	.st14{fill:#D3BFB6;}
	.st15{fill:#D7CAD9;}
	.st16{fill:#DDD3DE;}
	.st17{fill:#DED4B5;}
	.st18{fill:#D4D9C3;}
	.st19{fill:#C8CFB0;}
	.st20{fill:#F7E2AB;}
	.st21{fill:#F1B8BE;}
	.st22{fill:#C0C6ED;}
	.st23{fill:#C2E2C9;}
	.st24{fill:none;stroke:#919EAE;stroke-width:0.8625;stroke-miterlimit:10;}
</style>
<g>
	<polyline class="st0" points="85.6,55 161.1,33.1 98.3,89.6 71.5,90.8 	"/>
	<g id="XMLID_1_">
		<g>
			<path class="st1" d="M34.2,28c0-0.3-0.5-26.2-0.6-26.4c4.6,4.7,20.5,20.9,26.6,27.2c12.2,12.7,24.5,25.3,24.5,25.3
				c0.5,0.5,0.6,1.3,0.4,1.9l-14,35.8c0,0-13.5,23.7-13.5,23.8c-0.6,1.6-12.8,22.3-18.8,32.6c-0.8,1.5-6.6-1.7-6.6-3.4
				C32.9,120.3,34.2,60.8,34.2,28z"/>
		</g>
		<g>
			<path class="st2" d="M34.2,28c0,32.9-1.3,92.3-2,116.8c-0.1,1.7,5.7,4.9,6.6,3.4c6-10.3,18.2-31,18.8-32.6
				c0,0,13.5-23.7,13.5-23.8l14-35.8c0.3-0.7,0.1-1.4-0.4-1.9c0,0-12.2-12.7-24.5-25.3c-6.1-6.3-22-22.5-26.6-27.2
				C33.7,1.8,34.2,27.7,34.2,28z"/>
		</g>
	</g>
	<g id="XMLID_2_">
		<g>
			<path class="st3" d="M219.5,115.2c0.3,0.4,0.6,0.8,0.9,1.2L92,212.8l0.6-16.3l120-89.6c0.3,0.3,0.7,0.7,1,1.1
				c1.1,1.2,2.1,2.4,3.1,3.6c0.8,1,1.7,2.1,2.5,3.2C219.3,114.8,219.4,115,219.5,115.2C219.5,115.2,219.5,115.2,219.5,115.2z"/>
			<path class="st4" d="M201.6,336l-7.7-0.3l0-0.3l0.7-30.4l10.9-5.8l0.2,0c0.2,0.9,0.3,1.9,0.5,2.8c0,0,0,0,0,0.1
				c0.1,0.8,1.3,12.7,1.3,12.8l0,0c0.5,3.9,2.5,18,3.5,21.6L201.6,336L201.6,336z"/>
			<path class="st5" d="M194.5,305l-0.7,30.4l0,0.3l-2.5-0.1l0,0l-9.2-0.4l0,0l1.8-47.4l19.5-1.6l0.3,0c0.2,1.6,0.4,3.2,0.6,4.9
				l0,0.2c0.4,2.6,0.8,5.3,1.2,7.9l-0.2,0L194.5,305z"/>
			<path class="st6" d="M202.8,276.8c0.2,2.9,0.5,6.1,0.9,9.4l-0.3,0l-19.5,1.6l-1.8,47.4l-0.2,0l-8.2-0.4l0,0l-4.4-0.2l0-0.1
				l1.8-58.2l30.6-4.5l0.9,0C202.6,273.3,202.7,275,202.8,276.8z"/>
			<path class="st7" d="M202.5,269.3c0,0.7,0,1.6,0,2.5l-0.9,0l-30.6,4.5l-1.8,58.2l0,0.1l-2.6-0.1l0,0L157,334l-0.5,0l-2.3-0.1
				l2.2-66l33.8-12.3l27.7-25l0,0c-1.2,1.7-2.3,3.4-3.4,5.2c-0.3,0.5-0.6,0.9-0.9,1.4c-3.3,4.9-6.6,9.8-8.6,15.5
				c-0.3,0.7-0.5,1.4-0.7,2.2c-0.4,1.2-0.8,2.5-1,3.8C202.8,262.2,202.5,265.7,202.5,269.3z"/>
			<path class="st8" d="M165.9,80.3L85,143.6l-17.7,20.8l-3.3,2.9l-6.5,5.8l-0.1-0.1l1.6-25.1l82.4-71.7c4.7,0.3,9.4,0.9,14.1,1.8
				c3.3,0.6,6.5,1.3,9.8,2.1C165.4,80.1,165.6,80.2,165.9,80.3z"/>
			<path class="st9" d="M156.4,267.9l-2.2,66l-7.6-0.4l-0.1,0l-6.6-0.3l-0.1,0c-0.2,0-0.9-0.1-1.8-0.2l0-0.3l2.6-79l95.7-68.8
				c-0.2,1.5-0.3,3.1-0.6,4.6c-0.4,2.6-0.9,5.2-1.5,7.7c-1.6,6.5-3.9,12.7-7,18.6c-0.8,1.5-1.6,2.9-2.4,4.4c-0.6,1-1.2,2-1.9,3
				c-1.6,2.5-3.2,5-4.8,7.4l0,0l-27.7,25L156.4,267.9z"/>
			<path class="st10" d="M140.5,253.8l-2.6,79l0,0.3c-2.5-0.2-6.5-0.6-7-0.6l0,0l-7.8,1l-1,0.1l0-0.3l2.9-87.4l111.4-82.9
				c0.2,2,0.3,4,0.4,6.1c0.2,4.8,0.1,9.6-0.3,14.3c0,0.6-0.1,1.1-0.2,1.7L140.5,253.8z"/>
			<path class="st11" d="M124.9,245.8l-2.9,87.4l0,0.3l-8.7,1.1l-6.1,0.7l0-0.1l4.2-101.9l121.6-88.9c0.2,0.9,0.5,1.8,0.7,2.6
				c1,3.9,1.6,7.9,2.1,11.9c0.2,1.3,0.3,2.6,0.4,4L124.9,245.8z"/>
			<path class="st12" d="M232.9,143.4c0.1,0.3,0.2,0.7,0.3,1l-121.6,88.9l-4.2,101.9l0,0.1l-7.4,0.9l-2.7,0.3l4.1-115.4l125.8-93.2
				l0.1,0c0.2,0.4,0.4,0.8,0.5,1.1c0.9,2.1,1.8,4.2,2.6,6.3c0.1,0.2,0.2,0.4,0.2,0.6C231.4,138.5,232.2,140.9,232.9,143.4z"/>
			<path class="st13" d="M223.8,121.6c1.2,2.1,2.4,4.2,3.4,6.4l-0.1,0l-125.8,93.2l-4.1,115.4l-8.1,1l-1.6-0.7L92,212.8l128.4-96.3
				C221.6,118.1,222.7,119.9,223.8,121.6z"/>
			<path class="st14" d="M86.5,216.9l5.5-4.1l-4.4,124.1l-3.5-1.6c-0.5-2.5-0.6-3.5-1.2-6c-0.5-2.3-1-4.7-1.4-7l3.6-104.4
				L86.5,216.9z"/>
			<path class="st15" d="M207.2,101.7c1.9,1.6,3.6,3.4,5.4,5.2l-120,89.6L92,212.8l-5.5,4.1l-0.2-0.2l0.9-40l115.9-78.3
				C204.5,99.5,205.9,100.6,207.2,101.7z"/>
			<path class="st16" d="M202.3,97.7c0.3,0.2,0.5,0.4,0.8,0.6L87.2,176.7l-0.9,40l0.2,0.2l-1.4,1l-3.6,104.4c0-0.2-0.1-0.5-0.1-0.7
				l0,0c-0.5-2.5-1.3-5.3-1.9-7.8c-0.6-2.5-1.5-4.8-3.1-6.9c-0.8-1.1-1.8-1.9-3-2.4l0,0l4.4-101l1.7-40.2l44.9-20.4l27.8-31.3
				l36-22.7c4.6,2.4,9,5.1,13.2,8.2c0.2,0.1,0.3,0.2,0.5,0.3c0,0,0,0,0,0C201.9,97.4,202.2,97.6,202.3,97.7z"/>
			<path class="st17" d="M71.6,304c-0.4,0-0.7-0.1-1.1-0.1c-1.2-0.1-2.4-0.1-3.6,0c-0.7,0-1.3,0-2,0l0-0.3l4.6-93.6l8.2-6.6
				l-4.4,101l0,0C72.8,304.2,72.2,304.1,71.6,304z"/>
			<path class="st18" d="M77.7,203.4l-8.2,6.6L65,303.6l0,0.3c-0.6,0-1.1,0-1.7,0c-1.7,0-3.5,0.1-5.2,0.1c-0.3,0-0.7,0-1.1,0l0-0.4
				l5.8-112.2l0.1-1.6l0,0l1.2-22.6l0-0.1l3.3-2.9L85,143.6l80.9-63.3c2.2,0.6,4.4,1.3,6.6,2c1.9,0.6,3.8,1.2,5.6,2
				c3.4,1.3,6.7,2.8,10,4.5l-36,22.7l-27.8,31.3l-44.9,20.4L77.7,203.4z"/>
			<path class="st17" d="M62.8,191.5L57,303.7l0,0.4c-2.1,0-4.2,0.1-6.2,0.1c-0.4,0-0.9,0-1.3,0c-1.4,0-2.7,0-4.1-0.1l0-0.3
				l5.1-102.1l11.8-10.1L62.8,191.5z"/>
			<path class="st19" d="M34.5,303.5l0.1-0.5l5.6-114.8l2.6-2.3l14.7-13l6.5-5.8l0,0.1l-1.2,22.6l0,0l-0.1,1.6l-0.4,0l-11.8,10.1
				l-5.1,102.1l0,0.3c-0.9,0-1.8,0-2.8-0.1c-1.9-0.1-3.9-0.1-5.8-0.2C36,303.7,35.2,303.6,34.5,303.5z"/>
			<path class="st20" d="M127.2,75.9c4.7-0.2,9.4-0.1,14.1,0.2L59,147.9l-1.6,25.1l0.1,0.1l-14.7,13l0-0.1l1.3-38.9l67.8-69.7
				l-0.1-0.1c0.5-0.1,8-1,11.8-1.2C124.7,76,126,76,127.2,75.9z"/>
			<path class="st21" d="M97.7,80.2c4.5-1.2,13.4-2.8,14-2.9c0,0,0,0,0,0l0.1,0.1l-67.8,69.7l-1.3,38.9l0,0.1l-2.6,2.3L34.5,303
				l-0.1,0.5c-0.4-0.1-0.8-0.1-1.3-0.2c-2.4-0.5-4.6-1.3-6.8-2.5l0.1-0.2L32.7,159l0-0.7L71.3,91l-0.1-0.3c1.8-1,3.6-1.9,5.4-2.8
				c4.1-2,8.3-3.7,12.6-5.1C92,81.9,94.8,81,97.7,80.2z"/>
			<path class="st1" d="M32.8,158.4l0,0.7l-1,0c0-0.8,0-1.5-0.1-2.3c-0.4-4.6,0-9.1,1.1-13.5c0.7-2.8,1.5-5.5,2.4-8.2
				c1-3,2.2-6,3.3-9c3.3-8.4,8.3-15.7,14.7-22c3.6-3.5,7.4-6.6,11.5-9.3c2.1-1.4,4.2-2.7,6.4-3.9l0.1,0.3L32.8,158.4z"/>
			<path class="st1" d="M21,262.9l0.9-15.4l4.2-76.2c0.8-1,1.6-2.1,2.4-3.2c2-2.7,3.2-5.7,3.3-9.1l1,0l-6.2,141.5l-0.1,0.2
				c-0.1-0.1-0.3-0.2-0.4-0.2c-0.4-0.3-0.9-0.5-1.2-0.8c-2.3-1.6-4-3.6-5.2-5.9c-1.6-3.2-2.1-6.8-1.2-10.6c0.5-2.1,1.3-4.2,2-6.3
				c0.1-0.3,0.2-0.6,0.3-0.9c0.8-2.7,1.5-5.5,1.4-8.3C22,266,21.6,264.4,21,262.9z"/>
			<path class="st22" d="M18.2,231.7c1.1-2.1,1.6-4.3,1.2-6.7c-0.3-1.8-1.1-3-2.9-3.7c-1.5-0.5-2.9-1-4.4-1.5
				c-2.6-0.9-5.3-1.7-7.6-3.2c-3.2-2.1-4.4-5-3.6-8.8c0.6-2.9,1.9-5.6,3.5-8c4.8-7.3,10.1-14.2,15.6-21c1.7-2.1,3.3-4.1,4.9-6.2
				c0.4-0.5,0.7-0.9,1.1-1.4l-4.2,76.2l-1.5-0.1c-0.4-0.2-0.7-0.3-1.1-0.4c-1.1-0.4-2-1-2.8-1.9c-1.9-1.9-3.2-5.7-1-8.8
				C16.4,234.8,17.3,233.2,18.2,231.7z"/>
			<path class="st23" d="M17.8,258.5c-1.6-1.5-2.2-3.3-1.6-5.5c0.6-2.1,1.9-3.7,3.4-5.1c0.2-0.2,0.4-0.3,0.6-0.6l1.5,0.1L21,262.9
				C20.2,261.3,19.2,259.8,17.8,258.5z"/>
		</g>
		<g>
			<polyline class="st24" points="219.8,115.1 219.8,115.1 219.5,115.2 			"/>
			<polyline class="st24" points="26.1,171.2 26,171.2 21.8,247.5 21,262.9 			"/>
			<polyline class="st24" points="71.3,91 32.8,158.4 32.7,159 26.5,300.6 			"/>
			<polyline class="st24" points="111.7,77.4 43.9,147.1 42.7,185.9 			"/>
			<polyline class="st24" points="34.5,303 40.1,188.3 42.7,186 57.4,173 64,167.3 67.3,164.3 			"/>
			<polyline class="st24" points="141.5,76 141.3,76.2 59,147.9 57.4,172.9 			"/>
			<polyline class="st24" points="84.9,143.7 85,143.6 165.9,80.3 			"/>
			<polyline class="st24" points="62.8,191.6 62.9,189.9 64,167.3 			"/>
			<polyline class="st24" points="62.3,191.5 50.5,201.6 45.4,303.7 			"/>
			<polyline class="st24" points="67.3,164.3 85,143.6 85.1,143.5 			"/>
			<polyline class="st24" points="77.7,203.4 79.4,163.2 124.3,142.8 152.1,111.5 188.1,88.8 			"/>
			<polyline class="st24" points="65,303.6 69.6,210 77.7,203.4 			"/>
			<polyline class="st24" points="87.6,337 87.6,336.9 92,212.8 92.5,196.5 212.5,106.9 212.6,106.8 			"/>
			<polyline class="st24" points="101.3,221 101.3,221.3 97.2,336.6 97.2,336.8 			"/>
			<polyline class="st24" points="219.5,115.2 219.8,115.1 219.8,115.1 			"/>
			<polyline class="st24" points="220.5,116.3 220.4,116.4 92,212.8 86.5,216.9 85.1,217.9 81.5,322.3 81.5,322.5 			"/>
			<polyline class="st24" points="101.2,221.4 101.3,221.3 227.2,128.1 			"/>
			<polyline class="st24" points="107.4,335.2 111.6,233.3 233.1,144.4 233.3,144.3 			"/>
			<polyline class="st24" points="122.1,333.2 124.9,245.8 236.3,162.9 236.3,162.9 			"/>
			<polyline class="st24" points="137.9,332.8 140.5,253.8 236.2,185 236.4,184.8 			"/>
			<polyline class="st24" points="217.9,230.6 190.2,255.6 156.4,267.9 154.2,333.9 154.2,334 			"/>
			<polyline class="st24" points="201.6,271.8 171,276.3 169.2,334.5 			"/>
			<polyline class="st24" points="182,335.6 182,335.2 183.8,287.8 203.4,286.3 			"/>
			<polyline class="st24" points="193.8,335.5 194.5,305 205.4,299.2 			"/>
			<line class="st24" x1="77.7" y1="203.4" x2="73.4" y2="304.4"/>
			<polyline class="st24" points="203.3,98.3 203.2,98.4 87.2,176.7 86.4,216.7 			"/>
			<polyline class="st24" points="62.8,189.9 62.8,191.5 57,303.7 			"/>
			<path class="st24" d="M81.3,321.6c-0.5-2.5-1.3-5.3-1.9-7.8c-0.6-2.5-1.5-4.8-3.1-6.9c-0.8-1.1-1.8-1.9-3-2.4
				c-0.5-0.2-1.1-0.4-1.7-0.5c-0.4,0-0.7-0.1-1.1-0.1"/>
			<polyline class="st24" points="166.5,334.5 169.2,334.6 173.6,334.8 			"/>
			<path class="st24" d="M207.4,314.8c0-0.1-1.2-12-1.3-12.8"/>
			<path class="st24" d="M219.5,115.2C219.5,115.2,219.5,115.2,219.5,115.2"/>
			<path class="st24" d="M58.1,304c1.8,0,3.5-0.1,5.2-0.1"/>
			<polyline class="st24" points="201.7,336 201.6,336 193.8,335.7 191.3,335.7 			"/>
			<path class="st24" d="M216.7,111.5c0.8,1,1.7,2.1,2.5,3.2c0.1,0.2,0.2,0.3,0.4,0.5"/>
			<path class="st24" d="M81.3,321.2c0,0.1,0.1,0.3,0.1,0.4c0,0.2,0.1,0.5,0.1,0.7c0.5,2.3,1,4.7,1.4,7c0.5,2.5,0.7,3.5,1.2,6
				l3.5,1.6l1.6,0.7l0.1,0"/>
			<path class="st24" d="M33.2,303.3c-2.4-0.5-4.6-1.3-6.8-2.5c-0.1-0.1-0.3-0.2-0.4-0.2c-0.4-0.3-0.9-0.5-1.2-0.8"/>
			<path class="st24" d="M33.2,303.3c0.4,0.1,0.8,0.2,1.3,0.2c0.8,0.1,1.6,0.2,2.4,0.2c1.9,0.1,3.9,0.2,5.8,0.2"/>
			<path class="st24" d="M50.8,304.1c-0.4,0-0.9,0-1.3,0c-1.4,0-2.7,0-4.1-0.1c-0.9,0-1.8,0-2.8-0.1"/>
			<path class="st24" d="M25,172.6c-1.6,2.1-3.3,4.1-4.9,6.2c-5.5,6.8-10.8,13.7-15.6,21c-1.6,2.5-3,5.1-3.5,8
				c-0.7,3.7,0.4,6.6,3.6,8.8c2.3,1.6,5,2.4,7.6,3.2c1.5,0.5,2.9,1,4.4,1.5c1.7,0.6,2.6,1.8,2.9,3.7c0.4,2.4-0.1,4.6-1.2,6.7
				c-0.8,1.6-1.7,3.1-2.8,4.6c-2.2,3.1-0.9,6.9,1,8.8c0.8,0.8,1.8,1.4,2.8,1.9c0.3,0.1,0.6,0.3,1.1,0.4c-0.2,0.2-0.4,0.4-0.6,0.6
				c-1.6,1.4-2.8,3-3.4,5.1c-0.7,2.2,0,4,1.6,5.5c1.4,1.3,2.4,2.8,3.1,4.4"/>
			<path class="st24" d="M50.8,304.1c2.1,0,4.1,0,6.2-0.1c0.3,0,0.7,0,1.1,0"/>
			<path class="st24" d="M123.4,76.1c1.3-0.1,2.5-0.1,3.8-0.2c4.7-0.2,9.4-0.1,14.1,0.2c4.7,0.3,9.4,0.9,14.1,1.8
				c3.3,0.6,6.5,1.3,9.8,2.1c0.2,0.1,0.5,0.1,0.7,0.2"/>
			<path class="st24" d="M20.3,277c-0.7,2.1-1.5,4.2-2,6.3c-0.9,3.8-0.4,7.4,1.2,10.6"/>
			<path class="st24" d="M19.6,293.9c1.2,2.3,2.9,4.3,5.2,5.9"/>
			<path class="st24" d="M111.6,77.3c0.5-0.1,8-1,11.8-1.2"/>
			<path class="st24" d="M111.6,77.3C111.6,77.3,111.6,77.3,111.6,77.3"/>
			<path class="st24" d="M64.8,94.6c2.1-1.4,4.2-2.7,6.4-3.9c1.8-1,3.6-1.9,5.4-2.8c4.1-2,8.3-3.7,12.6-5.1c2.8-0.9,5.6-1.8,8.4-2.6
				c4.5-1.2,13.4-2.8,14-2.9c0,0,0,0,0,0c0,0,0,0,0,0"/>
			<path class="st24" d="M165.9,80.3c2.2,0.6,4.4,1.3,6.6,2c1.9,0.6,3.8,1.2,5.6,2c3.4,1.3,6.7,2.8,10,4.5"/>
			<path class="st24" d="M201.8,97.3c-0.2-0.1-0.3-0.2-0.5-0.3c-4.2-3.1-8.6-5.8-13.2-8.2"/>
			<path class="st24" d="M20.3,277c0.1-0.3,0.2-0.6,0.3-0.9c0.8-2.7,1.5-5.5,1.4-8.3c0-1.8-0.4-3.4-1.1-4.8"/>
			<path class="st24" d="M25,172.6c0.4-0.5,0.7-0.9,1.1-1.4c0.8-1,1.6-2.1,2.4-3.2c2-2.7,3.2-5.7,3.3-9.1c0-0.8,0-1.5-0.1-2.3
				c-0.4-4.6,0-9.1,1.1-13.5c0.7-2.8,1.5-5.5,2.4-8.2c1-3,2.2-6,3.3-9c3.3-8.4,8.3-15.7,14.7-22c3.6-3.5,7.4-6.6,11.5-9.3"/>
			<path class="st24" d="M63.3,303.9c0.6,0,1.1,0,1.7,0c0.7,0,1.3,0,2,0c1.2,0,2.4,0,3.6,0"/>
			<polyline class="st24" points="191.3,335.7 191.3,335.6 182.1,335.2 			"/>
			<polyline class="st24" points="113.4,334.6 107.4,335.4 100,336.3 			"/>
			<path class="st24" d="M227.1,215.9c-0.8,1.5-1.6,2.9-2.4,4.4c-0.6,1-1.2,2-1.9,3"/>
			<path class="st24" d="M222.8,223.2c-1.6,2.5-3.2,5-4.8,7.4c-1.2,1.7-2.3,3.4-3.4,5.2"/>
			<path class="st24" d="M204.3,291.3c0.4,2.6,0.8,5.3,1.2,7.9c0.2,0.9,0.3,1.9,0.5,2.8c0,0,0,0,0,0.1c0,0.1,0,0.2,0.1,0.3"/>
			<path class="st24" d="M219.5,115.2c0.3,0.4,0.6,0.8,0.9,1.2c1.2,1.7,2.3,3.4,3.4,5.2"/>
			<path class="st24" d="M201.5,336l9.3,0.4c-1.1-3.6-3.1-17.7-3.5-21.6c0-0.1,0-0.2,0-0.3"/>
			<path class="st24" d="M216.7,111.5c-1-1.2-2-2.4-3.1-3.6"/>
			<polyline class="st24" points="146.6,333.5 154.2,333.9 156.5,334 			"/>
			<polyline class="st24" points="181.8,335.2 173.6,334.8 173.6,334.8 			"/>
			<path class="st24" d="M204.2,254.9c-0.4,1.2-0.8,2.5-1,3.8c-0.5,3.5-0.8,7.1-0.8,10.6c0,0.7,0,1.6,0,2.5c0.1,1.5,0.1,3.2,0.3,5"
				/>
			<polyline class="st24" points="166.6,334.5 166.5,334.5 157,334 156.5,334 			"/>
			<polyline class="st24" points="139.8,333.2 146.4,333.5 146.6,333.5 			"/>
			<path class="st24" d="M204.3,291.1c-0.2-1.6-0.4-3.3-0.6-4.9c-0.4-3.4-0.7-6.6-0.9-9.4"/>
			<path class="st24" d="M204.2,254.9c0.2-0.7,0.5-1.5,0.7-2.2c2-5.7,5.3-10.6,8.6-15.5c0.3-0.5,0.6-0.9,0.9-1.4"/>
			<path class="st24" d="M236.4,183.3c0,0.6-0.1,1.1-0.2,1.7c-0.2,1.5-0.3,3.1-0.6,4.6c-0.4,2.6-0.9,5.2-1.5,7.7"/>
			<path class="st24" d="M227.8,129.2c0.9,2.1,1.8,4.2,2.6,6.3"/>
			<path class="st24" d="M202.3,97.7c0.3,0.2,0.5,0.4,0.8,0.6c1.4,1.1,2.7,2.2,4,3.3"/>
			<polyline class="st24" points="89,337.6 89.2,337.6 97.2,336.6 100,336.3 			"/>
			<path class="st24" d="M130.9,332.5C130.8,332.5,130.8,332.5,130.9,332.5"/>
			<path class="st24" d="M139.8,333.2L139.8,333.2c-0.3,0-1-0.1-1.9-0.2c-2.5-0.2-6.5-0.6-7-0.6"/>
			<path class="st24" d="M207.2,101.7c1.9,1.6,3.6,3.4,5.4,5.2c0.3,0.3,0.7,0.7,1,1.1"/>
			<path class="st24" d="M227.1,215.9c3.1-5.9,5.4-12.1,7-18.6"/>
			<path class="st24" d="M202.3,97.7c-0.1-0.1-0.4-0.3-0.6-0.4c0,0,0,0,0,0"/>
			<polyline class="st24" points="123.1,333.4 130.9,332.5 130.9,332.5 130.9,332.5 			"/>
			<path class="st24" d="M235.9,158.9c-0.5-4-1.1-8-2.1-11.9c-0.2-0.9-0.4-1.8-0.7-2.6c-0.1-0.3-0.2-0.7-0.3-1"/>
			<path class="st24" d="M236.4,183.3c0.4-4.8,0.5-9.5,0.3-14.3c-0.1-2-0.2-4-0.4-6.1c-0.1-1.3-0.2-2.7-0.4-4"/>
			<polyline class="st24" points="113.4,334.6 122.1,333.6 123.1,333.4 			"/>
			<path class="st24" d="M227.8,129.2c-0.2-0.4-0.4-0.8-0.5-1.1c-1-2.2-2.2-4.3-3.4-6.4"/>
			<path class="st24" d="M232.9,143.4c-0.7-2.4-1.5-4.9-2.3-7.2c-0.1-0.2-0.2-0.4-0.2-0.6"/>
		</g>
	</g>
	<polyline class="st0" points="85.5,56 100.3,21 143.6,21.1 132.5,36.5 161.1,34.2 	"/>
</g>
</svg>
