<?xml version="1.0" encoding="utf-8"?>
<!-- Generator: Adobe Illustrator 25.0.1, SVG Export Plug-In . SVG Version: 6.00 Build 0)  -->
<svg version="1.1" id="Ebene_1" xmlns="http://www.w3.org/2000/svg" xmlns:xlink="http://www.w3.org/1999/xlink" x="0px" y="0px"
	 viewBox="0 0 841.9 595.3" style="enable-background:new 0 0 841.9 595.3;" xml:space="preserve">
<style type="text/css">
	.st0{fill:#FFD5C9;}
	.st1{fill:#FFC8B8;}
	.st2{fill:#CAD4E3;}
	.st3{fill:#D5DAE3;}
	.st4{fill:#DAE7ED;}
	.st5{fill:#FCE99D;}
	.st6{fill:#FFF0B3;}
	.st7{fill:#C4BC93;}
	.st8{fill:#CDC6A5;}
	.st9{fill:#D7CAD9;}
	.st10{fill:#D1DDE3;}
	.st11{fill:#DDD3DE;}
	.st12{fill:#D4D9C3;}
	.st13{fill:#E9D1AA;}
	.st14{fill:#F7E2AB;}
	.st15{fill:#F1B8BE;}
	.st16{fill:#D3BFB6;}
	.st17{fill:#DED4B5;}
	.st18{fill:#F7CFCD;}
	.st19{fill:#C8CFB0;}
	.st20{fill:#C0C6ED;}
	.st21{fill:#C2E2C9;}
	.st22{fill:none;stroke:#919EAE;stroke-width:0.75;stroke-miterlimit:10;}
	.st23{fill:none;stroke:#919EAE;stroke-width:0.5;stroke-miterlimit:10;}
	.st24{fill:none;stroke:#919EAE;stroke-width:0.644;stroke-miterlimit:10;}
	.st25{fill:none;stroke:#919EAE;stroke-width:0.6204;stroke-miterlimit:10;}
	.st26{fill:none;stroke:#919EAE;stroke-width:0.6367;stroke-miterlimit:10;}
	.st27{fill:none;stroke:#919EAE;stroke-width:0.652;stroke-miterlimit:10;}
	.st28{fill:none;stroke:#919EAE;stroke-width:0.6804;stroke-miterlimit:10;}
	.st29{fill:none;stroke:#919EAE;stroke-width:0.7184;stroke-miterlimit:10;}
	.st30{fill:none;stroke:#919EAE;stroke-width:0.8007;stroke-miterlimit:10;}
	.st31{fill:none;stroke:#919EAE;stroke-width:0.4278;stroke-miterlimit:10;}
	.st32{display:none;fill:#DC97A9;}
	.st33{font-family:'MyriadPro-Regular';}
	.st34{font-size:10px;}
	.st35{display:none;fill:#C19548;}
	.st36{display:none;fill:#898E75;}
	.st37{display:none;fill:#947E99;}
	.st38{display:none;fill:#D6B351;}
	.st39{display:none;fill:#86A2C4;}
	.st40{display:none;fill:#DD998C;}
	.st41{display:none;fill:#9EB9C6;}
	.st42{display:none;fill:#A89C76;}
</style>
<image style="display:none;overflow:visible;" width="564" height="742" xlink:href="8018D5A73F229569.jpg"  transform="matrix(0.7919 0 0 0.7919 197.4286 4.2756)">
</image>
<g id="XMLID_1_">
	<g>
		<path class="st0" d="M498.1,360.5c0.4,4.3,0.5,8.7,0.4,13l-93.3,73.5l0.9,78l0.1,0.3l-7.2,1.2l-7.8,1.3l-0.9,0.2l-0.1-0.5
			l-1.1-87.8l108.2-85.3C497.7,356.5,497.9,358.5,498.1,360.5z"/>
		<path class="st1" d="M498.5,373.6c0,0.5,0,0.9,0,1.4c-0.1,2.1-0.2,4.2-0.5,6.3c-0.3,2.7-0.7,5.2-1.2,7.8c-1.2,6.1-3.1,12-5.6,17.7
			L455.3,442l-33.4,13.9l0.8,66.5l0,0.3l-7.7,1.3l-6.7,1.1l-1.9,0.3l-0.1-0.3l-0.9-78L498.5,373.6z"/>
		<path class="st2" d="M497.5,354.5l-108.2,85.3l1.1,87.8l0.1,0.5l-8.7,1.5l-6,1l0-0.1l-0.4-99.6L493.5,336c0.3,0.9,0.6,1.7,0.8,2.6
			c1.2,3.9,2,7.9,2.6,11.9C497.1,351.8,497.3,353.1,497.5,354.5z"/>
		<path class="st3" d="M493.1,335c0.1,0.3,0.2,0.7,0.3,1l-118.2,94.8l0.4,99.6l0,0.1l-7.4,1.2l-2.7,0.5l-1-113.1l122.3-99.3l0,0
			c0.2,0.4,0.4,0.7,0.6,1.1c1,2,2,4.1,2.9,6.2c0.1,0.2,0.2,0.4,0.3,0.6C491.5,330.1,492.3,332.5,493.1,335z"/>
		<path class="st4" d="M491.2,406.8c-0.2,0.4-0.4,0.9-0.6,1.3c-0.7,1.5-1.5,3-2.3,4.5c-0.6,1-1.2,2.1-1.8,3.1
			c-2.5,4.4-5.1,8.7-7.8,13c-0.3,0.5-0.6,1-0.9,1.5c-3.1,5.1-6.2,10.2-7.9,16c-0.2,0.7-0.4,1.5-0.6,2.2c-0.4,1.3-0.7,2.5-0.8,3.8
			c-0.2,3-0.4,6-0.4,9l-0.7,0l-30.6,5.9l0.8,52.6l0.1,0.4l-2.8,0.5l-9.9,1.7l-2.4,0.4l0-0.3l-0.8-66.5l33.4-13.9L491.2,406.8z"/>
		<path class="st5" d="M364.4,419.2l1,113.1l-8.2,1.4l-1.4,0.2l-0.1-0.3L354.6,411l124.8-102.6c1.3,1.6,2.5,3.3,3.6,5.1
			c1.4,2,2.6,4.1,3.7,6.3l0,0L364.4,419.2z"/>
		<path class="st6" d="M479.4,308.5L354.6,411l-0.2-16.4l116.6-95.4c0.4,0.3,0.7,0.7,1.1,1c1.1,1.1,2.2,2.3,3.3,3.5
			c0.9,1,1.8,2,2.6,3.1c0.1,0.2,0.3,0.3,0.4,0.5c0,0,0,0,0,0C478.8,307.7,479.1,308.1,479.4,308.5z"/>
		<path class="st7" d="M479,513.2l-9.1,1.5l-7.5,1.2l0,0l-0.6-21.7l10.7-1.3l0.1,0c0.2,0.9,0.4,1.9,0.6,2.8c0.9,4.1,2,8,3.1,11.3
			C477.2,509.4,478.1,511.6,479,513.2z"/>
		<path class="st8" d="M472.7,492.8l-0.1,0l-10.7,1.3l0.6,21.7l0,0l-2.1,0.4l-9.5,1.6l-0.1-0.3l-0.4-36.1L470,479l0.1,0
			c0.3,1.9,0.6,3.8,1,5.7C471.6,487.4,472.1,490.2,472.7,492.8z"/>
		<path class="st9" d="M471.1,299.2l-116.6,95.4l0.2,16.4l-5.3,4.4l-0.2-0.2l-0.9-40.2l113.1-83.9c1.4,1,2.8,2.1,4.2,3.1
			C467.4,295.8,469.3,297.5,471.1,299.2z"/>
		<path class="st10" d="M470.1,479l-0.1,0l-19.6,2.4l0.4,36.1l0.1,0.3l-0.7,0.1l-7.8,1.3l-4.6,0.8l-0.1-0.4l-0.8-52.6l30.6-5.9
			l0.7,0c0,0.6,0,1.1,0,1.7c0.1,2,0.3,4.6,0.6,7.5C469.2,473,469.6,476,470.1,479z"/>
		<path class="st11" d="M460.4,290.5c0.3,0.2,0.6,0.4,0.8,0.6L348.2,375l0.9,40.2l0.2,0.2l-1.3,1.1l1,105.2l-0.2,0.1
			c-0.1-0.4-0.2-0.9-0.3-1.3c-0.6-2.5-1.3-4.9-2-7.3c-0.7-2.5-1.7-4.8-3.4-6.8c-0.9-1.1-1.9-1.9-3.1-2.3l0,0l-0.1-101.8l-0.1-40.5
			l44.2-22.5l26.6-32.7l35.2-24.5c4.7,2.2,9.3,4.7,13.6,7.6c0.2,0.1,0.3,0.2,0.5,0.3c0,0,0,0,0,0C460,290.2,460.3,290.4,460.4,290.5
			z"/>
		<path class="st12" d="M324.3,389.4l0.2-22.8l-0.1-0.1l3.2-3.1l16.9-21.7l78.5-67.2c2.3,0.5,4.5,1.1,6.8,1.7
			c1.9,0.5,3.9,1.1,5.8,1.7c3.5,1.2,6.9,2.6,10.2,4.1l-35.2,24.5L384,339.2l-44.2,22.5l0.1,40.5l-7.9,7l-0.4,94.3l0,0.3
			c-0.6,0-1.1,0.1-1.7,0.1c-1.8,0.1-3.5,0.2-5.3,0.4c-0.4,0-0.7,0-1.1,0.1l0-0.4l0.8-113L324.3,389.4L324.3,389.4z"/>
		<path class="st13" d="M344.5,341.8l-16.9,21.7l-3.2,3.1l-6.3,6.1l-0.1-0.1l0.5-25.3l79.6-75.7c4.8,0.1,9.5,0.5,14.2,1.2
			c3.3,0.5,6.6,1,9.9,1.7c0.2,0.1,0.5,0.1,0.8,0.2L344.5,341.8z"/>
		<path class="st14" d="M398.1,271.6l-79.6,75.7l-0.5,25.3l0.1,0.1l-14.5,14l-0.3-0.3l-0.5-39.1l64.7-73c0.2-0.1,0.5-0.1,0.7-0.1
			c3.9-0.8,7.9-1.4,11.8-1.8c1.3-0.1,2.5-0.2,3.8-0.3C388.7,271.6,393.4,271.4,398.1,271.6z"/>
		<path class="st15" d="M367.6,274.2l-64.7,73l0.5,39.1l0.3,0.3l-2.2,2.2l-0.5,115.6l0,0.5c-0.4,0-0.9-0.1-1.3-0.2
			c-2.4-0.4-4.7-1.1-6.9-2.2l0.1-0.2l-0.1-142.5V359l36.8-70.4l0,0c1.4-0.8,2.7-1.6,4.1-2.4c4-2.2,8.2-4.1,12.4-5.7
			c2.8-1,5.5-2.1,8.4-3C358.7,276.2,363.1,275.1,367.6,274.2z"/>
		<path class="st16" d="M355.8,533.6l0.1,0.3l-3.9,0.7c-0.6-2.5-0.8-3.5-1.4-6c-0.6-2.3-1.1-4.5-1.7-6.8l0.2-0.1l-1-105.2l1.3-1.1
			l5.3-4.4L355.8,533.6z"/>
		<path class="st17" d="M339.8,402.2L340,504l0,0c-0.6-0.2-1.1-0.3-1.8-0.4c-0.4,0-0.7,0-1.1-0.1c-1.2,0-2.4,0.1-3.6,0.1
			c-0.7,0-1.3,0.1-2,0.1l0-0.3l0.4-94.3L339.8,402.2z"/>
		<path class="st18" d="M329.4,288.6L292.6,359v0.7h-1c0-0.8,0-1.5-0.2-2.3c-0.6-4.6-0.4-9.1,0.5-13.6c0.6-2.8,1.3-5.6,2.1-8.4
			c0.9-3.1,1.9-6.1,2.9-9.2c2.9-8.6,7.6-16.1,13.8-22.8c3.4-3.7,7.1-6.9,11.1-9.8C324.4,291.8,326.9,290.1,329.4,288.6L329.4,288.6z
			"/>
		<path class="st19" d="M324.5,366.6l-0.2,22.8h0l0,1.6h-0.4l-11.4,10.7l-0.6,102.9l0,0.4c-0.9,0-1.9,0-2.8,0c-1.9,0-3.9,0-5.8,0
			c-0.8,0-1.6,0-2.4-0.1l0-0.5l0.5-115.6l2.2-2.2l14.5-14L324.5,366.6L324.5,366.6z"/>
		<path class="st17" d="M324.3,391l-0.8,113l0,0.4c-2.1,0.1-4.2,0.3-6.2,0.4c-0.4,0-0.9,0.1-1.3,0.1c-1.4,0.1-2.7,0.1-4.1,0.1l0-0.4
			l0.6-102.9l11.4-10.7H324.3z"/>
		<path class="st18" d="M292.6,359.7l0.1,142.5l-0.1,0.2c-0.1-0.1-0.3-0.1-0.4-0.2c-0.4-0.2-0.9-0.5-1.3-0.8
			c-2.4-1.5-4.2-3.5-5.5-5.7c-1.8-3.1-2.4-6.8-1.7-10.6c0.4-2.2,1.1-4.3,1.7-6.4c0.1-0.3,0.2-0.6,0.3-0.9c0.7-2.8,1.2-5.6,1-8.4
			c-0.1-1.8-0.6-3.4-1.3-4.8l0.2-15.5l0.8-76.8c0.8-1.1,1.5-2.2,2.3-3.3c1.9-2.8,3-5.9,3-9.2H292.6z"/>
		<path class="st20" d="M285.4,373.7c0.3-0.5,0.7-1,1-1.4l-0.8,76.8l-1.5,0c-0.4-0.2-0.8-0.3-1.1-0.4c-1.1-0.4-2.1-1-2.9-1.8
			c-2-1.8-3.5-5.6-1.4-8.8c1-1.5,1.8-3.1,2.6-4.7c1-2.1,1.4-4.4,0.9-6.7c-0.3-1.8-1.3-3-3-3.5c-1.5-0.5-3-0.9-4.5-1.3
			c-2.7-0.7-5.4-1.4-7.8-2.9c-3.3-2-4.6-4.9-4-8.6c0.5-3,1.7-5.7,3.2-8.2c4.5-7.6,9.5-14.8,14.8-21.9
			C282.4,378,283.9,375.8,285.4,373.7z"/>
		<path class="st21" d="M285.6,449.1l-0.2,15.5c-0.8-1.6-1.9-3-3.4-4.2c-1.6-1.4-2.4-3.2-1.8-5.5c0.5-2.1,1.7-3.8,3.2-5.3
			c0.2-0.2,0.3-0.3,0.6-0.6L285.6,449.1z"/>
	</g>
	<g>
		<line class="st22" x1="478.8" y1="307.1" x2="478.5" y2="307.3"/>
		<polyline class="st22" points="286.5,372.2 286.5,372.2 285.6,449.1 285.4,464.6 		"/>
		<polyline class="st22" points="329.4,288.6 292.6,359 292.6,359.7 292.8,502.2 		"/>
		<polyline class="st22" points="367.7,274.1 367.6,274.2 302.9,347.2 303.4,386.3 		"/>
		<polyline class="st22" points="300.9,504.3 301.4,388.8 303.6,386.6 318.1,372.6 324.4,366.6 327.6,363.5 		"/>
		<polyline class="st22" points="398.2,271.4 398.1,271.6 318.5,347.3 318,372.6 		"/>
		<polyline class="st22" points="344.4,341.9 344.5,341.8 423,274.6 		"/>
		<polyline class="st22" points="324.3,391.1 324.3,389.4 324.5,366.6 		"/>
		<polyline class="st22" points="323.9,391 312.4,401.7 311.9,504.6 		"/>
		<polyline class="st22" points="327.6,363.5 344.5,341.8 344.6,341.7 		"/>
		<polyline class="st22" points="339.8,402.2 339.8,361.8 384,339.2 410.5,306.6 445.7,282.1 		"/>
		<polyline class="st22" points="331.5,503.5 332,409.2 339.8,402.2 		"/>
		<polyline class="st22" points="355.8,533.6 354.6,411 354.4,394.6 471.1,299.2 471.2,299.1 		"/>
		<polyline class="st22" points="364.4,418.9 364.4,419.2 365.4,532.3 365.4,532.5 		"/>
		<line class="st22" x1="478.5" y1="307.3" x2="478.8" y2="307.1"/>
		<polyline class="st22" points="479.5,308.4 479.4,308.5 354.6,411 349.3,415.4 348,416.5 349,521.7 		"/>
		<polyline class="st22" points="364.2,419.3 364.4,419.2 486.7,319.8 		"/>
		<polyline class="st22" points="375.6,530.4 375.2,430.8 493.5,336 493.6,335.9 		"/>
		<polyline class="st22" points="390.3,527.6 389.2,439.8 497.5,354.5 497.5,354.4 		"/>
		<polyline class="st22" points="406.2,525.1 405.3,447.1 498.5,373.6 498.6,373.5 		"/>
		<polyline class="st22" points="491.6,406.4 491.2,406.8 455.3,442 421.8,455.9 422.6,522.4 		"/>
		<polyline class="st22" points="467.5,461.2 436.9,467.1 437.7,519.7 		"/>
		<polyline class="st22" points="450.8,517.6 450.4,481.5 470,479 		"/>
		<polyline class="st22" points="462.4,515.9 461.9,494.2 472.5,492.9 		"/>
		<line class="st22" x1="339.8" y1="402.2" x2="340" y2="504"/>
		<polyline class="st22" points="461.4,291 461.3,291.1 348.2,375 349.1,415.2 		"/>
		<polyline class="st22" points="324.3,389.4 324.3,391 323.5,504 		"/>
		<path class="st22" d="M348.5,520.5c-0.6-2.5-1.3-4.9-2-7.3c-0.7-2.5-1.7-4.8-3.4-6.8c-0.9-1.1-1.9-1.9-3.1-2.3
			c-0.6-0.2-1.1-0.3-1.8-0.4c-0.4,0-0.7,0-1.1-0.1"/>
		<polyline class="st22" points="435,520.6 437.7,520.1 442.4,519.3 		"/>
		<path class="st22" d="M476.4,506.9c-1.1-3.3-2.2-7.2-3.1-11.3"/>
		<path class="st22" d="M478.5,307.3C478.5,307.3,478.5,307.3,478.5,307.3"/>
		<path class="st22" d="M324.6,504.3c1.8-0.1,3.5-0.2,5.3-0.4"/>
		<polyline class="st22" points="469.9,514.7 462.4,516 460.4,516.3 		"/>
		<path class="st22" d="M475.4,303.7c0.9,1,1.8,2,2.6,3.1c0.1,0.2,0.3,0.3,0.4,0.5"/>
		<path class="st22" d="M348.5,520.5c0.1,0.4,0.2,0.9,0.3,1.3c0.6,2.3,1.1,4.5,1.7,6.8c0.6,2.5,0.8,3.5,1.4,6l3.9-0.7l1.4-0.2"/>
		<path class="st22" d="M299.6,504.7c-2.4-0.4-4.7-1.1-6.9-2.2c-0.1-0.1-0.3-0.1-0.4-0.2c-0.4-0.2-0.9-0.5-1.3-0.8"/>
		<path class="st22" d="M299.6,504.7c0.4,0.1,0.9,0.1,1.3,0.2c0.8,0.1,1.6,0.1,2.4,0.1c2,0,3.9,0,5.8,0"/>
		<path class="st22" d="M317.3,504.7c-0.4,0-0.9,0.1-1.3,0.1c-1.4,0.1-2.7,0.1-4.1,0.1c-0.9,0-1.9,0-2.8,0"/>
		<path class="st22" d="M285.4,373.7c-1.5,2.2-3.1,4.3-4.6,6.4c-5.2,7.1-10.3,14.3-14.8,21.9c-1.5,2.6-2.7,5.2-3.2,8.2
			c-0.6,3.8,0.7,6.7,4,8.6c2.4,1.5,5.1,2.2,7.8,2.9c1.5,0.4,3,0.9,4.5,1.3c1.8,0.5,2.7,1.7,3,3.5c0.5,2.4,0.1,4.6-0.9,6.7
			c-0.8,1.6-1.6,3.2-2.6,4.7c-2.1,3.2-0.6,7,1.4,8.8c0.9,0.8,1.8,1.4,2.9,1.8c0.3,0.1,0.6,0.2,1.1,0.4c-0.2,0.2-0.4,0.4-0.6,0.6
			c-1.5,1.5-2.7,3.2-3.2,5.3c-0.6,2.2,0.2,4,1.8,5.5c1.4,1.3,2.6,2.7,3.4,4.2"/>
		<path class="st22" d="M317.3,504.7c2.1-0.1,4.2-0.2,6.2-0.4c0.4,0,0.7-0.1,1.1-0.1"/>
		<path class="st23" d="M380.1,272.3c1.3-0.1,2.5-0.2,3.8-0.3c4.7-0.4,9.5-0.5,14.2-0.4c4.8,0.1,9.5,0.5,14.2,1.2
			c3.3,0.5,6.6,1,9.9,1.7c0.2,0.1,0.5,0.1,0.8,0.2"/>
		<path class="st22" d="M285.4,478.8c-0.6,2.1-1.3,4.2-1.7,6.4c-0.7,3.8-0.1,7.5,1.7,10.6"/>
		<path class="st22" d="M285.4,495.8c1.3,2.2,3.1,4.2,5.5,5.7"/>
		<path class="st23" d="M368.3,274.1c3.9-0.8,7.9-1.4,11.8-1.8"/>
		<path class="st22" d="M322,293.5c2.4-1.8,4.9-3.4,7.4-5c1.4-0.8,2.7-1.6,4.1-2.4c4-2.2,8.2-4.1,12.4-5.7c2.8-1,5.5-2.1,8.4-3
			c4.4-1.4,8.8-2.5,13.2-3.4c0.2-0.1,0.5-0.1,0.7-0.1"/>
		<path class="st23" d="M423,274.6c2.3,0.5,4.5,1.1,6.8,1.7c1.9,0.5,3.9,1.1,5.8,1.7c3.5,1.2,6.9,2.6,10.2,4.1"/>
		<path class="st22" d="M459.8,290.1c-0.2-0.1-0.3-0.2-0.5-0.3c-4.4-2.9-8.9-5.5-13.6-7.6"/>
		<path class="st22" d="M285.4,478.8c0.1-0.3,0.2-0.6,0.3-0.9c0.7-2.8,1.2-5.6,1-8.4c-0.1-1.8-0.6-3.4-1.3-4.8"/>
		<path class="st22" d="M285.4,373.7c0.3-0.5,0.7-1,1-1.4c0.8-1.1,1.5-2.2,2.3-3.3c1.9-2.8,3-5.9,3-9.2c0-0.8,0-1.5-0.2-2.3
			c-0.6-4.6-0.4-9.1,0.5-13.6c0.6-2.8,1.3-5.6,2.1-8.4c0.9-3.1,1.9-6.1,2.9-9.2c2.9-8.6,7.6-16.1,13.8-22.8
			c3.4-3.7,7.1-6.9,11.1-9.8"/>
		<path class="st22" d="M329.9,503.9c0.6,0,1.1-0.1,1.7-0.1c0.7,0,1.3-0.1,2-0.1c1.2-0.1,2.4-0.1,3.6-0.1"/>
		<polyline class="st22" points="460.4,516.3 450.9,517.9 450.2,518 		"/>
		<polyline class="st22" points="381.7,529.6 375.6,530.6 368.2,531.8 		"/>
		<path class="st22" d="M490.6,408.1c-0.7,1.5-1.5,3-2.3,4.5c-0.6,1-1.2,2.1-1.8,3.1"/>
		<path class="st22" d="M486.6,415.7c-2.5,4.4-5.1,8.7-7.8,13"/>
		<path class="st22" d="M471.1,484.7c0.5,2.7,1,5.4,1.6,8.1c0.2,0.9,0.4,1.9,0.6,2.8"/>
		<path class="st22" d="M478.5,307.3c0.3,0.4,0.6,0.8,0.9,1.2c1.3,1.6,2.5,3.3,3.6,5.1"/>
		<path class="st22" d="M469.9,514.7l9.1-1.5c-0.9-1.6-1.8-3.8-2.6-6.3"/>
		<path class="st22" d="M475.4,303.7c-1.1-1.2-2.2-2.3-3.3-3.5"/>
		<polyline class="st22" points="414.9,524 422.7,522.7 425.1,522.3 		"/>
		<line class="st22" x1="450.2" y1="518" x2="442.4" y2="519.3"/>
		<path class="st22" d="M469.4,448.4c-0.4,1.3-0.7,2.5-0.8,3.8c-0.2,3-0.4,6-0.4,9c0,0.6,0,1.1,0,1.7c0.1,2,0.3,4.6,0.6,7.5"/>
		<line class="st22" x1="435" y1="520.6" x2="425.1" y2="522.3"/>
		<line class="st22" x1="408.2" y1="525.1" x2="414.9" y2="524"/>
		<path class="st22" d="M471.1,484.7c-0.4-1.9-0.7-3.8-1-5.7c-0.5-3.1-0.9-6-1.2-8.6"/>
		<path class="st22" d="M469.4,448.4c0.2-0.7,0.4-1.5,0.6-2.2c1.7-5.8,4.9-10.9,7.9-16c0.3-0.5,0.6-1,0.9-1.5"/>
		<path class="st22" d="M498.5,374.9c-0.1,2.1-0.2,4.2-0.5,6.3c-0.3,2.7-0.7,5.2-1.2,7.8"/>
		<path class="st22" d="M487.4,320.9c1,2,2,4.1,2.9,6.2"/>
		<path class="st22" d="M460.4,290.5c0.3,0.2,0.6,0.4,0.8,0.6c1.4,1,2.8,2.1,4.2,3.1"/>
		<polyline class="st22" points="357.3,533.7 365.4,532.3 368.2,531.8 		"/>
		<polyline class="st22" points="408.2,525.1 406.3,525.4 399,526.6 		"/>
		<path class="st22" d="M465.4,294.3c2,1.6,3.8,3.2,5.6,5c0.4,0.3,0.7,0.7,1.1,1"/>
		<path class="st22" d="M490.6,408.1c0.2-0.4,0.4-0.9,0.6-1.3c2.5-5.7,4.4-11.6,5.6-17.7"/>
		<path class="st22" d="M460.4,290.5c-0.2-0.1-0.4-0.3-0.6-0.4c0,0,0,0,0,0"/>
		<line class="st22" x1="391.3" y1="527.9" x2="399" y2="526.6"/>
		<path class="st22" d="M496.9,350.5c-0.6-4-1.5-8-2.6-11.9c-0.2-0.9-0.5-1.7-0.8-2.6c-0.1-0.3-0.2-0.7-0.3-1"/>
		<path class="st22" d="M498.5,374.9c0-0.5,0-0.9,0-1.4c0.1-4.4,0-8.7-0.4-13c-0.2-2-0.4-4-0.7-6.1c-0.2-1.3-0.4-2.7-0.6-4"/>
		<polyline class="st22" points="381.7,529.6 390.3,528.1 391.3,527.9 		"/>
		<path class="st22" d="M487.4,320.9c-0.2-0.4-0.4-0.8-0.6-1.1c-1.1-2.1-2.4-4.2-3.7-6.3"/>
		<path class="st22" d="M493.1,335c-0.8-2.4-1.7-4.8-2.6-7.2c-0.1-0.2-0.2-0.4-0.3-0.6"/>
	</g>
</g>
<line class="st24" x1="383.2" y1="226" x2="383.2" y2="260"/>
<line class="st25" x1="436.7" y1="265.8" x2="443.8" y2="231.1"/>
<line class="st26" x1="469.4" y1="278.9" x2="495.2" y2="252.3"/>
<line class="st26" x1="492.3" y1="307.7" x2="522.4" y2="286"/>
<line class="st27" x1="510.2" y1="339.4" x2="544.3" y2="329.2"/>
<line class="st28" x1="510.2" y1="381.3" x2="544.2" y2="378.4"/>
<line class="st29" x1="492.1" y1="435.1" x2="526.9" y2="434.3"/>
<line class="st30" x1="481.9" y1="494.1" x2="516.5" y2="494.2"/>
<line class="st31" x1="325.5" y1="239.1" x2="330.8" y2="272.8"/>
<text transform="matrix(-0.1558 -0.9878 0.9878 -0.1558 327.6506 226.2788)" class="st32 st33 st34">Modul A / Kreativitätstechniken</text>
<text transform="matrix(-2.597000e-02 -0.9997 0.9997 -2.597000e-02 386.1722 213.1902)" class="st35 st33 st34">Modul B / Bildbearbeitung</text>
<text transform="matrix(0.1342 -0.991 0.991 0.1342 448.9521 220.4446)" class="st36 st33 st34">Modul C / Gestaltung und Technik</text>
<text transform="matrix(0.6774 -0.7357 0.7357 0.6774 506.085 245.4823)" class="st37 st33 st34">Modul D / Layouten</text>
<text transform="matrix(0.8019 -0.5974 0.5974 0.8019 531.5175 281.5198)" class="st38 st33 st34">Modul E / Konzeption und Visualisierung</text>
<text transform="matrix(0.9554 -0.2954 0.2954 0.9554 555.6196 327.9994)" class="st39 st33 st34">Modul F / Druckvorstufe</text>
<text transform="matrix(0.9966 -8.207999e-02 8.207999e-02 0.9966 555.3783 380.5154)" class="st40 st33 st34">Ohne Modul / Internet - Programmierung</text>
<text transform="matrix(0.9998 -1.969000e-02 1.969000e-02 0.9998 539.4757 437.3475)" class="st41 st33 st34">Ohne Modul / Beratung und Planung</text>
<text transform="matrix(0.9999 1.043000e-02 -1.043000e-02 0.9999 528.9081 497.3877)" class="st42 st33 st34">Ohne Modul / Praktikum &amp; Prüfungsvorbereitung</text>
</svg>
